<?xml version="1.0" encoding="UTF-8"?>
<svg width="80px" height="80px" viewBox="0 0 80 80" version="1.1" xmlns="http://www.w3.org/2000/svg" xmlns:xlink="http://www.w3.org/1999/xlink">
    <title>1Thash</title>
    <g id="页面-1" stroke="none" stroke-width="1" fill="none" fill-rule="evenodd">
        <g id="画板" transform="translate(-186.000000, -2165.000000)" fill="#2D5DF9">
            <g id="1Thash" transform="translate(186.000000, 2165.000000)">
                <path d="M0.0160153398,42.2749267 C0.0921771774,42.9303719 0.439982902,43.5714029 1.05943251,44.0951978 L1.23510829,44.2350671 L34.2769321,69.1516705 C34.6119753,69.3120031 37.1488112,69.3954762 39.7562442,69.40209 L40.4366442,69.4020719 C42.9270403,69.3956124 45.3124714,69.3188318 45.727813,69.1717299 L45.7713983,69.1516705 L78.8800682,44.2350671 C79.4947765,43.7740359 79.863623,43.2060816 79.9988574,42.6110271 L79.9974114,46.2842813 L79.9974114,50.5698569 C79.9974114,51.3792605 79.5857086,52.1886641 78.7623031,52.8062183 L46.0774362,77.9878801 C45.0799797,78.51231 36.194033,78.9340399 34.547222,77.6989316 L1.23510829,52.8062183 C0.482828474,52.2420084 0.110829115,51.41705 0.0856429521,50.569568 L1.2950143e-08,50.5698569 L1.54940949e-10,42.2830331 L0.0160153398,42.2749267 Z M45.479311,2 L78.7623067,26.9056175 C79.5336675,27.4841397 79.9437244,28.2310266 79.9924775,28.9885548 L79.9974114,29.1419789 L79.9974114,39.1416553 C79.9974114,39.9510589 79.5857086,40.7604625 78.7623031,41.3780167 L47.0825655,65.053554 C46.0903403,66.6043199 34.6977123,67.1255433 32.7488356,65.053554 L1.23510829,41.3780167 C0.411702763,40.7604625 7.13318293e-15,39.9510589 7.13318293e-15,39.1416553 L7.10542736e-15,29.1419789 L0.00516897145,28.9885017 C0.0539220249,28.2310266 0.463978938,27.4841397 1.23533971,26.9056175 L34.5613468,2 L45.479311,2 Z M45.7394868,4.75155019 C44.4052483,4.75155019 40.284762,4.87719317 37.3603927,4.88265591 L36.7926471,4.88207321 C35.5907525,4.87697466 34.6686189,4.84573605 34.3597304,4.76777209 L34.3062281,4.75155019 L1.428,29.616 L1.428,30.0929789 L36.4732547,56.2569287 C37.4197759,56.911199 42.6393291,56.9316449 43.5677883,56.3182666 L43.643956,56.2569287 L78.568,30.0939789 L78.568,29.615 L45.7394868,4.75155019 Z M34.1956709,17.7050582 L34.1956709,44.7823419 L25.8027365,44.7823419 L25.8027365,44.7823419 L25.8027365,26.2594689 C22.6616784,31.2776752 19.3233378,33.6494537 15.7877146,33.3748044 L15.7877146,33.3748044 L15.7877146,29.1419789 C17.3352836,28.6658038 20.6736242,24.8534969 25.8027365,17.7050582 L25.8027365,17.7050582 L34.1956709,17.7050582 Z M58.7034576,17.7050582 L58.7034576,20.7047519 L51.4715488,20.7047519 L51.4715488,43.4272309 L42.9452133,43.4272309 L42.9452133,20.7047519 L35.7579459,20.7047519 L35.7579459,17.7050582 L58.7034576,17.7050582 Z" id="形状结合"></path>
            </g>
        </g>
    </g>
</svg>