<?xml version="1.0" encoding="UTF-8"?>
<svg width="80px" height="80px" viewBox="0 0 80 80" version="1.1" xmlns="http://www.w3.org/2000/svg" xmlns:xlink="http://www.w3.org/1999/xlink">
    <title>Binance Pool</title>
    <g id="页面-1" stroke="none" stroke-width="1" fill="none" fill-rule="evenodd">
        <g id="画板" transform="translate(-186.000000, -203.000000)" fill="#F0B90B" fill-rule="nonzero">
            <g id="Binance-Pool" transform="translate(186.000000, 203.000000)">
                <path d="M18.046875,40 L9.0625,49.0625 L0,40 L9.0625,30.9375 L18.046875,40 Z M40,18.046875 L55.46875,33.515625 L64.53125,24.453125 L48.984375,9.0625 L40,7.10542736e-15 L30.9375,9.0625 L15.46875,24.53125 L24.53125,33.59375 L40,18.046875 Z M70.9375,30.9375 L61.875,40 L70.9375,49.0625 L80,40 L70.9375,30.9375 Z M40,61.875 L24.453125,46.40625 L15.46875,55.46875 L30.9375,70.9375 L40,80 L49.0625,70.9375 L64.453125,55.46875 L55.46875,46.40625 L40,61.875 Z M40,48.984375 L49.0625,39.921875 L40,30.9375 L30.9375,40 L40,48.984375 Z" id="形状"></path>
            </g>
        </g>
    </g>
</svg>