<?xml version="1.0" encoding="UTF-8"?>
<svg xmlns="http://www.w3.org/2000/svg" xmlns:xlink="http://www.w3.org/1999/xlink" xmlns:i="http://ns.adobe.com/AdobeIllustrator/10.0/" version="1.1" viewBox="0 0 80 80">
  <defs>
    <style>
      .cls-1 {
        fill: url(#_未命名的渐变);
        fill-rule: evenodd;
      }
    </style>
    <linearGradient id="_未命名的渐变" data-name="未命名的渐变" x1="40.5" y1="80.78" x2="40.5" y2=".78" gradientTransform="translate(0 81) scale(1 -1)" gradientUnits="userSpaceOnUse">
      <stop offset="0" stop-color="#fed766"/>
      <stop offset=".58" stop-color="#f6ac00"/>
      <stop offset="1" stop-color="#f2ae1a"/>
    </linearGradient>
  </defs>
  <g id="_图层_1" data-name="图层_1">
    <path id="_1" class="cls-1" d="M69.7,34.06l-6.97-11.19c.09-.78.16-1.55.2-2.33.04-.46.03-.92-.03-1.38-.28-1.19-.85-2.28-1.67-3.18.69-1.99.69-4.16-.01-6.15-.67-2-4.89-6.47-10.15-8.29,1.12,1.17,1.77,2.72,1.81,4.34-1.64-1.99-3.8-3.49-6.23-4.34-4.49-1.6-9.36-1.75-13.94-.44-1.95.54-3.79,1.42-5.44,2.61,5.31-.26,10.35.58,12.7,2.31-5.9-.56-11.85-.15-17.62,1.22-3.46,2.93-6.28,6.55-8.27,10.62-1.39,2.78-2.35,5.75-2.85,8.82,5.18-6.57,12.34-11.3,20.42-13.48-9.89,4.63-17.38,13.2-20.64,23.61.8,6.9,3.8,13.35,8.56,18.42,2.5,2.68,5.29,5.08,8.32,7.16-5.52-12.71-4.43-25.04,4.43-37.45-7.86,15.51-5.77,29.39,4.65,42.52,3.75,1.77,7.32,3.88,10.68,6.31,2.39,1.77,4.7,3.95,5.6,6.45.3-7.54-1.29-15.03-4.63-21.79,2.71,2.09,5.23,4.43,7.52,6.98-.36-5.8-1.55-10.64-3.59-14.13-1.37-2.35-3.11-3.59-4.63-6.36-1.22-2.29-1.98-4.79-2.24-7.37,1.11.39,2.15.95,3.08,1.66,0,0,4.76,3.48,6.54,6.8.51,1.14.75,2.39.71,3.64,1.69-1.15,3.15-2.6,4.3-4.29h0c.56-.95,1.07-1.94,1.52-2.95-1.08-.43-2.12-.97-3.09-1.62-.62-.12-1.26,0-1.79.34-.29.17-.63.22-.96.13-.22-.06-.44-.14-.65-.24-.33-.18-.54-.51-.55-.89-.05-.45.03-.9.22-1.31.18-.31.52-.49.87-.47,2.28.11,3.35,1.51,5.42,2.26.82.27,1.68.4,2.54.38,1.22-.64,2.37-1.42,3.41-2.31l-.95-1.15c-.57-.69-.79-1.6-.61-2.47.07-.37.42-.62.79-.58.38.05.65.38.64.75-.01.42-.03.87-.02.89.01.04,1.21,1.6,1.21,1.6.4-.38.79-.78,1.18-1.2.63-.68.74-1.69.25-2.48ZM61.9,28.23c-.44-.18-.83-.44-1.16-.77-.57.2-1.16.31-1.77.34-.62.02-1.23-.05-1.83-.23-.98-.26-1.84-.86-2.43-1.69l.14-.04c.57.51,1.22.93,1.92,1.25-1.27-1.02-1.52-2.87-.55-4.18-.26-.43-.63-.79-1.06-1.04-.52-.32-1.1-.5-1.7-.55l.05-.29c1.02-.05,2.04.13,2.98.53,1.44.56,2.56,1.72,3.06,3.19.4,1.44,1.37,2.65,2.69,3.36l-.35.12Z"/>
  </g>
</svg>