<svg xmlns="http://www.w3.org/2000/svg" viewBox="0 0 864 153.5856">
  <g id="white-rgb">
    <g>
      <path id="fullLogo" d="M141.0025,63.9425c0-13.5292-8.34-22.6849-21.4656-22.6849H85.8617v71.0053H101.329V86.22h11.09l12.4083,26.0429h17.191L128.0846,84.3864C136.7271,81.1337,141.0025,73.5025,141.0025,63.9425Zm-15.9709,2.2369c0,4.5783-2.8493,7.019-7.4277,7.019H101.329V54.6822h16.2749c4.5784,0,7.4277,2.4409,7.4277,7.019Z" style="fill: #fff"/>
      <polygon id="fullLogo-2" data-name="fullLogo" points="372.443 89.07 372.134 89.07 365.318 74.828 345.891 41.258 328.999 41.258 328.999 112.264 343.55 112.264 343.55 64.451 343.854 64.451 350.668 78.694 370.101 112.264 386.989 112.264 386.989 41.258 372.443 41.258 372.443 89.07" style="fill: #fff"/>
      <polygon id="fullLogo-3" data-name="fullLogo" points="249.756 41.266 234.288 41.258 234.288 41.266 234.288 53.56 248.962 102.233 248.962 112.263 264.43 112.263 264.43 99.956 249.756 51.284 249.756 41.266" style="fill: #fff"/>
      <polygon id="fullLogo-4" data-name="fullLogo" points="293.656 41.266 278.188 41.258 278.188 41.266 278.188 53.56 292.862 102.233 292.862 112.263 308.329 112.263 308.329 99.956 293.656 51.284 293.656 41.266" style="fill: #fff"/>
      <polygon id="fullLogo-5" data-name="fullLogo" points="202.867 41.258 177.078 41.258 174.062 51.275 159.388 99.947 159.388 112.254 174.855 112.254 174.855 102.224 189.008 55.28 190.937 55.28 205.09 102.224 205.09 112.254 220.557 112.254 220.557 99.947 205.883 51.275 202.867 41.258" style="fill: #fff"/>
      <path id="fullLogo-6" data-name="fullLogo" d="M439.7043,69.5372l-7.1225-1.1193q-4.5777-.71-6.4074-2.0855-1.83-1.3719-1.8313-4.8322c0-4.2723,3.39-6.5064,10.1717-6.5064h21.7715V41.2576H434.5148q-12.0021.2045-18.8176,5.9006c-4.5454,3.7991-6.8169,8.9519-6.8169,15.2579,0,5.9692,1.7638,10.7166,5.2907,14.0388q5.2865,4.9856,16.377,6.3062l7.0186.9157q4.5783.61,6.41,2.5951a7.1352,7.1352,0,0,1,1.8321,5.0354,7.7392,7.7392,0,0,1-2.85,6.3061q-2.85,2.3424-8.34,2.3409a22.9616,22.9616,0,0,1-17.8048-8.24L406.743,101.9883q10.2737,11.4968,26.756,11.4959a35.1989,35.1989,0,0,0,14.903-2.8994,21.5709,21.5709,0,0,0,9.5113-8.0874,22.1045,22.1045,0,0,0,3.254-12.0036q0-9.054-5.2878-14.1412Q450.5885,71.2666,439.7043,69.5372Z" style="fill: #fff"/>
      <path id="fullLogo-7" data-name="fullLogo" d="M53.7763,75.2041V74.591c4.8551-1.7749,8.6055-6.7464,8.6055-15.1165q0-8.24-4.9331-13.2243t-13.7841-4.985L0,41.2576v12.3H9.1765v58.7154H46.8181a16.9914,16.9914,0,0,0,7.3246-1.5768,17.7768,17.7768,0,0,0,5.7984-4.3241,20.0885,20.0885,0,0,0,3.8142-6.4591,22.5047,22.5047,0,0,0,1.3731-7.8844C65.1284,82.6651,59.5215,77.2217,53.7763,75.2041ZM24.6419,54.2859h15.362a5.9887,5.9887,0,0,1,6.5112,6.5113v3.0522a5.9887,5.9887,0,0,1-6.5112,6.5112H24.6419ZM49.0593,92.8422a6.195,6.195,0,0,1-1.78,4.7311,6.7582,6.7582,0,0,1-4.8318,1.6776H24.6419V82.9744H42.4475a6.7593,6.7593,0,0,1,4.8318,1.6789,6.1941,6.1941,0,0,1,1.78,4.73Z" style="fill: #fff"/>
      <path id="fullLogo-8" data-name="fullLogo" d="M578.9678,54.6591H562.6913v18.514h16.2765c4.5781,0,7.4292-2.4415,7.4292-7.02V61.6787C586.397,57.1005,583.5459,54.6591,578.9678,54.6591Z" style="fill: #fff"/>
      <path id="fullLogo-9" data-name="fullLogo" d="M833.2829,30.7171V0H487.7144V30.7171l30.7171,92.1513v30.7172H864V122.8684ZM580.8015,86.6h-18.11v25.6362h-15.46V41.23h33.5707c13.2229,0,21.5672,9.2569,21.5672,22.6859C602.3687,77.3432,594.0244,86.6,580.8015,86.6ZM641.75,113.4845a36.835,36.835,0,0,1-7.7324-.8309l-5.48-18.1782h1.0415A21.3512,21.3512,0,0,0,641.75,98.3428a21.5943,21.5943,0,1,0-19.97-29.61h-1.0038l-5.312-17.62a36.7277,36.7277,0,1,1,26.2857,62.371Zm73.1457,0a36.8352,36.8352,0,0,1-7.7325-.8309l-5.48-18.1782h1.0415a21.3512,21.3512,0,0,0,12.1714,3.8674,21.5943,21.5943,0,1,0-19.97-29.61h-1.0038l-5.312-17.62a36.7277,36.7277,0,1,1,26.2858,62.371Zm98.7054-1.2492H767.81V41.2313h15.462v57.27h30.3293Z" style="fill: #fff"/>
    </g>
  </g>
</svg>
