<svg width="512" height="512" viewBox="0 0 512 512" fill="none" xmlns="http://www.w3.org/2000/svg">
<path d="M489.391 179.802L488.38 334.998C488.152 370.111 469.208 402.435 438.685 419.793L303.774 496.517C273.25 513.876 235.784 513.632 205.49 495.876L71.5914 417.401C41.2952 399.647 22.7736 367.078 23.0021 331.965L24.0129 176.769C24.2414 141.656 43.1851 109.333 73.7098 91.9741L208.621 15.2504C239.145 -2.10867 276.611 -1.86514 306.905 15.8909L440.804 94.3661C471.098 112.12 489.62 144.688 489.39 179.802H489.391Z" fill="#009DA7"/>
<path d="M228.623 415.864C228.409 448.554 205.225 461.666 177.101 445.001L100.426 399.568C72.3011 382.903 49.4642 342.521 49.6778 309.832L50.2699 218.983C50.4834 186.293 73.6672 173.181 101.792 189.846L178.467 235.28C206.591 251.945 229.428 292.326 229.215 325.016L228.623 415.864Z" fill="#002A2D"/>
<path d="M308.917 201.892C279.965 218.51 232.787 218.174 204.073 201.144L125.536 154.559C96.8243 137.529 97.0199 109.998 125.972 93.3773L204.767 48.145C233.719 31.5265 280.897 31.8629 309.61 48.8927L388.148 95.478C416.859 112.508 416.664 140.039 387.712 156.659L308.917 201.892Z" fill="#002A2D"/>
<path d="M461.321 312.568C461.109 345.012 437.924 384.789 409.799 400.964L333.119 445.06C304.993 461.235 282.154 447.922 282.366 415.477L282.953 325.313C283.165 292.868 306.351 253.091 334.475 236.916L411.155 192.821C439.282 176.646 462.12 189.958 461.908 222.403L461.321 312.568Z" fill="#002A2D"/>
<path d="M300.086 155.657L315.017 164.363L298.935 173.555L284.005 164.85L269.386 173.207L173.067 117.046L187.685 108.689L172.755 99.9839L188.836 90.7915L203.767 99.4969L213.561 93.8973L198.631 85.1919L214.712 75.9995L230.083 84.9618C244.705 78.9703 261.09 80.0828 274.264 87.764C287.584 95.5303 287.299 102.286 276.192 110.496L277.071 111.008C291.107 103.83 306.903 102.574 321.981 111.366C336.766 119.987 338.683 132.752 325.964 140.867L340.894 149.572L324.813 158.765L309.883 150.059L300.088 155.659L300.086 155.657ZM258.493 113.85C264.049 110.674 264.482 107.045 258.92 103.802L254.089 100.986C248.526 97.7421 242.236 97.9573 236.68 101.133L211.681 115.423L233.492 128.14L258.491 113.85H258.493ZM301.085 134.634C306.64 131.458 307.075 127.66 301.512 124.417L296.682 121.601C291.119 118.357 284.535 118.571 278.981 121.747L250.474 138.043L272.577 150.93L301.085 134.634Z" fill="white"/>
<path d="M128.747 280.165C128.679 297.16 116.719 304.001 102.036 295.444C87.3506 286.887 75.5027 266.174 75.5711 249.178C75.6395 232.183 87.5992 225.342 102.283 233.899C116.968 242.456 128.816 263.17 128.747 280.165Z" fill="#009DA7"/>
<path d="M196.125 387.141C196.057 404.137 184.097 410.977 169.414 402.42C154.729 393.863 142.881 373.15 142.949 356.154C143.017 339.159 154.977 332.318 169.661 340.875C184.346 349.432 196.194 370.146 196.125 387.141Z" fill="#009DA7"/>
<path d="M399.028 303.652C398.96 320.659 386.938 341.291 372.176 349.734C357.414 358.178 345.503 351.237 345.572 334.232C345.64 317.225 357.661 296.593 372.423 288.149C387.185 279.706 399.097 286.647 399.028 303.652Z" fill="#009DA7"/>
</svg>
