<?xml version="1.0" encoding="UTF-8"?>
<svg width="80px" height="80px" viewBox="0 0 80 80" version="1.1" xmlns="http://www.w3.org/2000/svg" xmlns:xlink="http://www.w3.org/1999/xlink">
    <title>BTC.com</title>
    <g id="页面-1" stroke="none" stroke-width="1" fill="none" fill-rule="evenodd">
        <g id="矿池logo" transform="translate(-1331.000000, -505.000000)">
            <g id="BTC.com" transform="translate(1331.000000, 505.000000)">
                <g id="编组" transform="translate(0.000000, -0.000000)">
                    <path d="M18,79.9999219 L62,79.9999219 C71.9411255,79.9999219 80,71.9410474 80,61.9999219 L80,18 C80,8.0588745 71.9411255,1.72655855e-15 62,0 L18,0 C8.0588745,5.37886881e-15 -1.21743675e-15,8.0588745 0,18 L0,61.9999219 C-3.19730981e-15,71.9410474 8.0588745,79.9999219 18,79.9999219 Z" id="Fill-1" fill="#1F4079"></path>
                    <g transform="translate(10.000109, 24.629242)">
                        <path d="M33.8549453,30.1944063 L33.8549453,30.1605781 C33.8549453,27.5677656 35.9761953,25.3957344 38.8895547,25.3957344 C41.8029141,25.3957344 43.9073672,27.5344062 43.9073672,30.1272969 L43.9073672,30.1605781 C43.9073672,32.7540156 41.7855703,34.9258906 38.8562734,34.9258906 C35.9593984,34.9258906 33.8549453,32.7876875 33.8549453,30.1944063 M40.8091641,30.1944063 L40.8091641,30.1605781 C40.8091641,29.0330781 39.9837734,28.0899531 38.8562734,28.0899531 C37.6940859,28.0899531 36.9535391,29.0157344 36.9535391,30.1272969 L36.9535391,30.1605781 C36.9535391,31.2722188 37.7615859,32.2152656 38.8895547,32.2152656 C40.0517422,32.2152656 40.8091641,31.288625 40.8091641,30.1944063" id="Fill-2" fill="#26ABE2"></path>
                        <path d="M31.2324922,31.2887656 C30.7444453,31.8785312 30.2560078,32.2318125 29.4813203,32.2318125 C28.4035859,32.2318125 27.6631172,31.3393906 27.6631172,30.1607969 L27.6631172,30.1274375 C27.6631172,29.015875 28.4204609,28.0897031 29.4644453,28.0897031 C29.8578047,28.0897031 30.1773359,28.1914219 30.4582734,28.3697031 L30.4578047,28.3670469 C30.9400703,28.7229844 31.7613984,28.6020469 32.0591328,28.3785312 L33.3208516,27.4328281 C32.5462422,26.2207969 31.3004609,25.41275 29.4310859,25.41275 C26.5520234,25.41275 24.5649141,27.5843125 24.5649141,30.1607969 L24.5649141,30.1945469 C24.5649141,32.7710313 26.5688984,34.9261094 29.3298359,34.9261094 C31.3168672,34.9261094 32.5293672,34.0843125 33.3711641,32.8380625 L31.2324922,31.2887656 Z" id="Fill-4" fill="#26ABE2"></path>
                        <path d="M56.8848828,25.3955937 C55.5546484,25.3955937 54.6283984,25.9680156 53.8368359,26.8778594 C53.3488672,25.9346562 52.4226953,25.3955937 51.2101953,25.3955937 C49.9305859,25.3955937 49.0883984,26.0858281 48.4995703,26.8435625 L48.4995703,25.5978594 L46.4808203,25.5978594 C45.8288672,25.5978594 45.2999609,26.1262969 45.2999609,26.77825 L45.2999609,34.7071563 L47.3151172,34.7071563 C47.9671484,34.7071563 48.4959766,34.17825 48.4959766,33.5262188 L48.4995703,29.7564531 C48.4995703,28.7630937 49.0381641,28.2245 49.7955078,28.2245 C50.5537891,28.2245 51.0591016,28.7630937 51.0591016,29.7564531 L51.0591016,34.7071563 L53.0604297,34.7071563 C53.7128516,34.7071563 54.2408203,34.17825 54.2408203,33.5262188 L54.2408203,29.7564531 C54.2408203,28.7630937 54.7968359,28.2245 55.5546484,28.2245 C56.3124609,28.2245 56.8004297,28.7630937 56.8004297,29.7564531 L56.8004297,34.7071563 L58.8052734,34.7071563 C59.4577734,34.7071563 59.9866016,34.17825 59.9866016,33.5262188 L59.9999609,28.7298125 C59.9999609,26.6080937 58.8208203,25.3955937 56.8848828,25.3955937" id="Fill-6" fill="#26ABE2"></path>
                        <path d="M23.5822344,33.0653437 C23.5822344,34.0933906 22.7493437,34.9262031 21.7218438,34.9262031 C20.6937969,34.9262031 19.8609063,34.0933906 19.8609063,33.0653437 C19.8609063,32.037375 20.6937969,31.2044844 21.7218438,31.2044844 C22.7493437,31.2044844 23.5822344,32.037375 23.5822344,33.0653437" id="Fill-8" fill="#26ABE2"></path>
                        <path d="M19.9661328,2.53270312 L19.9661328,5.60692187 L26.3292578,5.60692187 L26.3292578,21.7505156 L30.0851953,21.7505156 C31.2562891,21.7505156 32.2158984,20.8118437 32.2398828,19.6469219 L32.2398828,5.60692187 L36.4887891,5.60692187 C37.6598828,5.60692187 38.6083984,4.66871875 38.6323047,3.50340625 L38.6323047,0.4291875 L22.1096484,0.4291875 C20.9385547,0.4291875 19.9901172,1.36778125 19.9661328,2.53270312" id="Fill-10" fill="#FFFFFF"></path>
                        <path d="M55.5543984,14.1928906 C54.2757266,15.750625 52.9636953,16.7826562 50.7410391,16.7826562 C47.7570547,16.7826562 45.6539297,14.2857812 45.6539297,11.0875 L45.6539297,11.02625 C45.6539297,7.92132813 47.7570547,5.363125 50.7410391,5.363125 C51.9704141,5.363125 52.9663516,5.729375 53.8312734,6.34578125 L53.8321328,6.34445312 C55.0837734,7.24757812 56.0530703,7.35601563 56.9890078,6.6315625 L59.8459609,4.42046875 C57.9623672,1.82976562 55.1539297,0 50.8023672,0 C44.3463516,0 39.5929922,4.87375 39.5929922,11.0875 L39.5929922,11.1475781 C39.5929922,17.5160156 44.4912734,22.1786719 50.5882266,22.1786719 C55.2801797,22.1786719 57.9912734,20.1342187 59.9997109,17.363125 L55.5543984,14.1928906 Z" id="Fill-12" fill="#FFFFFF"></path>
                        <path d="M14.8310938,10.6016641 C16.7177344,9.77986719 18.1213281,8.31814844 18.1213281,5.84963281 L18.1213281,5.78877344 C18.1213281,4.32697656 17.6003906,3.19853906 16.7501563,2.31541406 C15.5679688,1.16650781 13.8172656,0.505648438 11.3666406,0.436273438 L11.3666406,0.429164063 L5.57820312,0.429164063 L2.22044605e-15,0.429164063 L2.22044605e-15,19.6070547 C2.22044605e-15,20.7776797 0.938203125,21.7261172 2.103125,21.7501016 L2.1853125,21.7501016 L2.1853125,21.7452578 L11.3666406,21.7452578 C16.2266406,21.6381484 19.0644531,19.4372109 19.0644531,15.8722891 L19.0644531,15.8118203 C19.0644531,12.9176797 17.4177344,11.4527578 14.8310938,10.6016641 L14.8310938,10.6016641 Z M5.75507813,5.17721094 L9.62132813,5.17721094 C11.3586719,5.17721094 12.3013281,5.81767969 12.3013281,7.00697656 L12.3013281,7.06744531 C12.3013281,8.31814844 11.2692969,8.92658594 9.46757813,8.92658594 L5.75507813,8.92658594 L5.75507813,5.17721094 Z M13.1550781,15.0465859 C13.1550781,16.2972109 12.1510937,16.9980703 10.3253125,16.9980703 L5.75507813,16.9980703 L5.75507813,13.0705703 L10.2608594,13.0705703 C12.24,13.0705703 13.1550781,13.8283047 13.1550781,14.9856484 L13.1550781,15.0465859 Z" id="Fill-14" fill="#FFFFFF"></path>
                    </g>
                </g>
            </g>
        </g>
    </g>
</svg>