<svg xmlns="http://www.w3.org/2000/svg" width="688" height="688" viewBox="0 0 688 688" version="1.1"><path d="" stroke="none" fill="#fc941c" fill-rule="evenodd"/><path d="M 220 19.922 C 210.249 21.904, 202.145 29.252, 199.437 38.569 C 195.999 50.396, 200.136 62.218, 210.196 69.309 C 215.461 73.021, 216.502 73.360, 223.968 73.792 L 232.045 74.260 231.773 134.380 L 231.500 194.500 220.106 212 C 204.490 235.983, 193.265 253.349, 165.808 296 C 152.885 316.075, 139.245 337.225, 135.498 343 C 131.750 348.775, 116.897 371.950, 102.491 394.500 C 88.084 417.050, 61.988 457.775, 44.500 485 C 27.011 512.225, 11.432 537.036, 9.880 540.136 C 8.327 543.236, 5.836 549.761, 4.343 554.636 C 1.890 562.644, 1.622 565.045, 1.564 579.500 C 1.509 593.249, 1.826 596.696, 3.818 604 C 7.895 618.952, 15.370 632.055, 26.639 644.001 C 41.387 659.634, 61.396 669.540, 83.285 672.044 C 89.580 672.764, 174.108 673.003, 350 672.799 L 607.500 672.500 615.500 670.249 C 634.370 664.938, 653.165 652.974, 664.954 638.769 C 672.314 629.900, 680.220 614.428, 683.232 603 C 685.098 595.921, 685.461 591.993, 685.403 579.500 C 685.341 566.215, 685.027 563.494, 682.657 555.703 C 679.531 545.424, 675.855 537.837, 668.561 526.612 C 665.663 522.150, 652.496 501.625, 639.303 481 C 626.110 460.375, 607.205 430.900, 597.292 415.500 C 562.588 361.586, 533.426 316.145, 506.485 274 C 491.542 250.625, 473.842 222.950, 467.151 212.500 L 454.985 193.500 455.242 134 L 455.500 74.500 462.573 73.949 C 473.845 73.070, 482.658 66.699, 486.493 56.658 C 488.644 51.024, 488.218 40.181, 485.635 34.850 C 483.236 29.898, 477.656 24.504, 472.100 21.767 L 467.500 19.500 345.500 19.355 C 278.400 19.276, 221.925 19.531, 220 19.922 M 287.992 133.250 C 287.985 193.954, 287.584 201.630, 284.003 209.726 C 282.166 213.878, 271.395 230.808, 251.860 260.250 L 242.073 275 343.556 275 L 445.039 275 437.186 263.250 C 422.055 240.612, 404.346 212.459, 402.432 208 C 400.599 203.732, 400.485 200.167, 400.215 138.750 L 399.931 74 343.965 74 L 288 74 287.992 133.250 M 288 335 L 288 357 256.061 357 L 224.123 357 223.441 361.542 C 222.947 364.840, 223.308 384.072, 223.971 389.750 C 223.987 389.887, 229.596 390, 236.435 390 C 243.274 390, 250.137 390.478, 251.685 391.061 C 256.712 392.957, 260.832 397.876, 262.029 403.412 C 262.786 406.911, 263.031 429.113, 262.815 474.500 C 262.463 548.337, 262.927 543.767, 255.233 549.046 C 252.025 551.247, 250.441 551.534, 239.889 551.832 L 228.123 552.165 227.542 557.332 C 226.933 562.745, 225.002 583.955, 225.001 585.250 C 225 585.663, 239.175 586, 256.500 586 L 288 586 288 608 L 288 630 303.750 630 L 319.500 630.001 319.500 608.250 L 319.500 586.500 332.250 586.220 L 345 585.940 345 607.970 L 345 630 361 630 L 377 630 377 607.580 L 377 585.159 383.750 584.550 C 410.321 582.150, 423.701 577.580, 438.700 565.784 C 458.966 549.844, 467.057 520.936, 458.015 496.769 C 452.842 482.942, 444.034 473.764, 429.250 466.794 C 424.712 464.654, 421.012 462.588, 421.026 462.202 C 421.040 461.816, 423.265 459.999, 425.971 458.164 C 434.809 452.169, 442.823 439.478, 444.992 428.040 C 450.511 398.941, 434.995 374.252, 404.102 362.978 C 397.499 360.568, 381.841 357, 377.869 357 C 377.391 357, 377 347.100, 377 335 L 377 313 361 313 L 345 313 345 335.030 L 345 357.060 332.250 356.780 L 319.500 356.500 319.657 334.750 L 319.813 313 303.907 313 L 288 313 288 335 M 316 422 C 316 437.950, 315.999 451.337, 315.998 451.750 C 315.996 452.963, 353.902 453.180, 361 452.007 C 369.711 450.568, 379.080 445.893, 383.424 440.817 C 392.569 430.133, 392.053 413.119, 382.287 403.353 C 374.049 395.116, 364.907 393.041, 336.750 393.017 L 316 393 316 422 M 316 518.500 L 316 552 339.750 551.983 C 366.078 551.963, 373.066 551.029, 383.536 546.130 C 399.693 538.569, 407.053 524.014, 402.551 508.526 C 400.251 500.617, 392.114 492.312, 383.493 489.076 C 374.159 485.572, 368.342 485.012, 341.250 485.006 L 316 485 316 518.500" stroke="none" fill="#f4941c" fill-rule="evenodd"/></svg>