<?xml version="1.0" encoding="UTF-8"?>
<svg width="80px" height="80px" viewBox="0 0 80 80" version="1.1" xmlns="http://www.w3.org/2000/svg" xmlns:xlink="http://www.w3.org/1999/xlink">
    <title>BTC.top</title>
    <g id="页面-1" stroke="none" stroke-width="1" fill="none" fill-rule="evenodd">
        <g id="画板" transform="translate(-186.000000, -807.000000)">
            <g id="BTC.top" transform="translate(186.000000, 807.000000)">
                <polygon id="Fill-1" fill="#3490BE" points="8.46089296e-05 73.2566066 17.6537086 73.2566066 17.6537086 61.0065281 8.46089296e-05 61.0065281"></polygon>
                <g id="编组-13" transform="translate(0.000000, -0.000000)" fill="#3361A4">
                    <path d="M30.648904,40.3474285 C30.6459668,39.9102105 30.7168784,39.7419528 31.2140986,39.7444426 C35.5917341,39.7679677 39.9702088,39.7562191 44.3482639,39.7637718 C45.3666211,39.7654501 46.3765865,39.8720273 47.3668309,40.1237843 C49.3469001,40.6268789 50.6182732,42.2116895 50.7156193,44.2538588 C50.7890484,45.8004862 50.4735129,47.2166196 49.4551556,48.4326062 C49.1979438,48.7401694 48.9201719,48.8748594 48.501416,48.8719222 C45.6385187,48.8522013 42.7743627,48.8614324 39.9110459,48.8614324 C37.0267492,48.8614324 34.1424526,48.8492641 31.2585756,48.8732722 C30.7634534,48.877377 30.6421905,48.7376518 30.6466806,48.2530195 C30.6711425,45.6179624 30.6682054,42.9824857 30.648904,40.3474285 M30.6480648,21.6746081 C30.6451276,21.219767 30.7458304,21.0766851 31.225008,21.0791702 C35.4562049,21.0993433 39.6878213,21.085077 43.9190181,21.0968257 C45.0384978,21.0997629 46.1583971,21.1606041 47.2501835,21.4383761 C49.1157032,21.9125185 50.312808,23.0554955 50.6254063,24.9852133 C50.9736702,27.132701 50.4626034,29.008291 48.743942,30.4689015 C47.7192908,31.3399809 46.5049826,31.6114589 45.2176649,31.6236271 C42.8952061,31.6454461 40.5714885,31.6299211 38.2486101,31.6299211 L38.2486101,31.65174 C35.9257318,31.65174 33.6024338,31.6412501 31.2795554,31.6609711 C30.8276515,31.6651671 30.6400925,31.5971927 30.6442197,31.0706008 C30.6728209,27.9387431 30.6682054,24.8064658 30.6480648,21.6746081 M70.6619107,64.9218538 C57.5415921,64.9084267 44.4204342,64.9080072 31.3001155,64.9226943 C30.7953427,64.9226943 30.633379,64.8207314 30.6442884,64.2865868 C30.6816324,62.5230287 30.6765973,60.7573726 30.6459668,58.9933949 C30.6379945,58.517574 30.7773001,58.4135144 31.2346587,58.4147732 C36.4867304,58.4294591 41.7396412,58.4370118 46.9917129,58.4126753 C49.0460504,58.4030246 51.094094,58.2591035 53.1148639,57.83783 C56.9814326,57.0317878 59.4725687,54.6866709 60.7183465,50.9963322 C61.6225739,48.3159588 61.6729253,45.5722265 60.9956988,42.8364666 C60.2437844,39.8015353 58.3908525,37.6095706 55.6496378,36.146023 C55.4322876,36.0302147 55.2128394,35.919022 54.8998214,35.7566387 C58.3526694,34.0627334 60.294975,31.2648733 61.0909469,27.7029307 C62.0623095,23.3529885 60.9650684,19.4725731 57.9154513,16.2110605 C56.2895203,14.4726781 54.1516834,13.6985252 51.8426517,13.3452261 C50.0950381,13.077944 48.3344172,12.9885703 46.5691806,12.9877311 C38.2855345,12.9847939 30.002308,12.9931858 21.7190814,12.9726257 C21.1136057,12.9709473 20.9688454,13.1341698 20.9701042,13.7291556 C20.9881468,25.1891365 20.9768177,36.6486979 20.9998954,48.1086788 C21.0015738,48.76031 20.814854,48.8803141 20.2076999,48.8761182 C16.346586,48.8475857 12.4850524,48.8526209 8.62351885,48.8727614 C8.12797705,48.875279 7.95804105,48.7829681 7.95887715,48.2404316 C7.97566404,35.182213 7.97440525,22.1239945 7.96139781,9.06535626 C7.96097821,8.58030434 8.08056281,8.44519385 8.57526541,8.44519385 C29.2734713,8.45862177 49.9712576,8.45862177 70.6694635,8.44519385 C71.1738168,8.44519385 71.2753588,8.59499017 71.2749392,9.06913261 C71.2631905,27.483902 71.2631905,45.8982519 71.276199,64.3126017 C71.276199,64.8064651 71.1452843,64.9226943 70.6619107,64.9218538 M80,0.788423638 C80,0.115812719 79.8023701,-0.000834714283 79.1817889,-3.55271368e-14 C66.1252487,0.0180470645 53.0687085,0.0138511136 40.0113291,0.0138511136 C26.8926888,0.0138511136 13.7736289,0.0167882792 0.654988615,0.0021024513 C0.148117754,0.00168285622 0.00167907025,0.108260007 0.00209866533,0.638208598 C0.0172040883,19.4239001 0.0180432785,38.2100112 0,56.9957027 C0,57.5965628 0.190496858,57.6972656 0.732613706,57.6960069 C7.18850366,57.6788035 13.6443936,57.6846778 20.0994444,57.6846778 C20.9860488,57.6846778 20.9856292,57.6846778 20.9856292,58.5721214 C20.9856292,63.2216545 20.9843704,67.8716072 20.9881468,72.5211404 C20.9885664,72.8052062 20.8605899,73.1568269 21.3985108,73.1475958 C22.5960351,73.128714 23.7956575,73.2327736 24.9889859,73.234452 C42.8406587,73.2650824 60.6927512,73.2558513 78.5440044,73.2537534 C78.7705857,73.2537534 78.9971671,73.2063391 79.22207,73.2134722 C79.9500675,73.2361304 79.998321,72.8328995 79.9979014,72.2165143 C79.9802784,48.4070109 79.9798588,24.5975075 80,0.788423638" id="Fill-2"></path>
                </g>
            </g>
        </g>
    </g>
</svg>