<svg xmlns="http://www.w3.org/2000/svg" viewBox="20.647 12.755 413.334 413.334" width="600" height="600" role="img" aria-label="DMND">
  <g fill="#ee4136">
    <path transform="translate(7.547 215)" d="M90.39-185.50Q119.47-185.50 141.35-173.71Q163.23-161.92 175.02-140.96Q186.81-120.00 186.81-93.27L186.81-93.27Q186.81-66.81 175.02-45.59Q163.23-24.37 141.35-12.18Q119.47 0 90.39 0L90.39 0L13.10 0L13.10-185.50L90.39-185.50ZM85.15-51.88Q104.80-51.88 116.33-62.62Q127.86-73.36 127.86-93.27L127.86-93.27Q127.86-113.18 116.33-123.93Q104.80-134.67 85.15-134.67L85.15-134.67L71.26-134.67L71.26-51.88L85.15-51.88Z"></path>
    <path transform="translate(197.919 215)" d="M165.06-185.50L236.06-185.50L236.06 0L178.16 0L178.16-92.49L149.60 0L99.82 0L71.26-92.49L71.26 0L13.10 0L13.10-185.50L84.36-185.50L125.24-74.15L165.06-185.50Z"></path>
    <path transform="translate(22.589 369.344)" d="M158.92-154.34L158.92 0L110.53 0L59.30-77.61L59.30 0L10.90 0L10.90-154.34L59.30-154.34L110.53-75.43L110.53-154.34L158.92-154.34Z"></path>
    <rect x="33.489" y="383.344" width="148.022" height="26"></rect>
    <path transform="translate(222.547 400.496)" d="M90.39-185.50Q119.47-185.50 141.35-173.71Q163.23-161.92 175.02-140.96Q186.81-120.00 186.81-93.27L186.81-93.27Q186.81-66.81 175.02-45.59Q163.23-24.37 141.35-12.18Q119.47 0 90.39 0L90.39 0L13.10 0L13.10-185.50L90.39-185.50ZM85.15-51.88Q104.80-51.88 116.33-62.62Q127.86-73.36 127.86-93.27L127.86-93.27Q127.86-113.18 116.33-123.93Q104.80-134.67 85.15-134.67L85.15-134.67L71.26-134.67L71.26-51.88L85.15-51.88Z"></path>
  </g>
</svg>