<?xml version="1.0" encoding="UTF-8" standalone="no"?>
<svg xmlns="http://www.w3.org/2000/svg" xmlns:xlink="http://www.w3.org/1999/xlink" version="1.1" width="420" height="347" viewBox="456.5 214.5 420 347"><g id="document" fill-opacity="0" fill="#000000" fill-rule="nonzero" stroke="#000000" stroke-width="0" stroke-linecap="butt" stroke-linejoin="miter" stroke-miterlimit="10" font-family="none" font-weight="none" font-size="none"><rect x="768.82494" y="309.07781" transform="scale(0.59571,0.694)" width="700" height="500" id="Shape-1-1"/></g><g fill="none" fill-rule="nonzero" stroke="#000000" stroke-width="3" stroke-linecap="round" stroke-linejoin="round" stroke-miterlimit="10" stroke-dasharray="none" font-family="none" font-weight="none" font-size="none"><g id="stage"><g id="Layer3-1" fill="#ffffff"><path d="M458.66129,290.12777l62.55746,46.8528l9.51561,-13.22632l11.96145,-10.76671l12.88907,-9.29079c0,0 14.89347,-6.90131 14.95509,-6.90131c0.06162,0 13.41863,-4.32201 13.46539,-4.28702c0.04676,0.03499 12.14972,-2.12237 12.34544,-2.12237c0.19572,0 10.39665,0.8575 10.39665,0.8575c0,0 9.85067,0.65853 10.02054,0.77094c0.16987,0.11241 4.21857,1.55505 4.37233,1.54823c0.15375,-0.00682 14.27581,7.82153 14.27581,7.99353c0,0.17201 10.97302,6.44439 10.97302,6.47211c0,0.02772 9.09991,7.79994 9.19785,7.82782c0.09794,0.02788 7.39342,7.88925 7.71602,7.81395c0.32259,-0.0753 6.41592,10.16519 6.86094,10.05186c0.44502,-0.11333 4.22403,11.44699 4.22403,11.44699c0,0 4.2034,8.80302 4.2633,8.77839c0.0599,-0.02464 1.97397,8.04124 2.25362,7.91543l2.02903,19.57311c0,0 -0.68434,13.66461 -0.41789,13.73731c0.26644,0.0727 -1.69837,15.13728 -1.69837,15.13728c0,0 -4.37292,14.13949 -4.18468,14.20218c0.18823,0.06268 -6.24655,15.01743 -6.23965,15.01743c0.0069,0 -9.17048,13.54305 -9.32709,13.69984c-0.15662,0.15679 -11.1491,11.85141 -11.07069,11.33422c0.0784,-0.51718 -13.12306,9.11814 -12.9307,9.20362c0.19236,0.08548 -12.83452,5.71088 -12.74057,5.58551c0.09395,-0.12537 -9.28185,2.67369 -9.28185,2.67369l-11.66284,0.72113l-12.79134,0.79936c0,0 -11.98523,-2.78145 -11.945,-2.66488c0.04023,0.11656 -12.55424,-3.43488 -12.60328,-3.26047c-0.04905,0.17441 -10.41587,-4.01771 -10.1679,-4.17346c0.24797,-0.15576 -10.63363,-7.42652 -10.63363,-7.42652l-9.10761,-6.91311c0,0 -8.79419,-8.50633 -8.79419,-8.4022c0,0.10413 -6.86598,-9.9384 -6.86598,-9.9384c0,0 -62.75646,51.64557 -62.4697,50.97744c0.28675,-0.66813 9.50256,11.59347 9.50256,11.59347c0,0 13.1788,13.75142 13.21557,13.71465c0.03677,-0.03677 11.00807,9.76679 11.41288,9.52563c0.40481,-0.24116 11.85085,8.04212 11.88941,8.04212c0.03857,0 13.22893,7.88602 13.4207,7.88602c0.19177,0 13.44413,5.08842 13.44413,5.08842c0,0 13.71539,4.86617 14.13858,4.49669c0.42319,-0.36949 14.99958,3.22569 15.09869,3.2583c0.09912,0.03261 11.79444,2.87964 12.05813,2.7814c0.2637,-0.09824 13.13088,0.8363 13.37617,0.8509c0.24529,0.0146 13.78316,0.78293 13.71773,0.8507c-0.06543,0.06777 12.27712,-0.44806 12.48367,-0.5562c0.20655,-0.10814 16.68621,-2.37244 16.72098,-2.37244c0.03477,0 18.19353,-4.4502 18.19353,-4.4502c0,0 15.69426,-5.14126 15.70417,-5.14126l18.65265,-9.59397l20.30769,-13.70719l16.69521,-16.40828l15.00705,-19.48034c0,0 12.0698,-20.20987 12.0698,-20.15575c0,0.05411 8.52463,-19.51512 8.52463,-19.41303c0,0.10209 5.35121,-20.45943 5.35121,-20.45943l3.74768,-23.0255c0,0 0.65864,-31.59021 0.65286,-31.64367c-0.00578,-0.05347 -4.14289,-29.44206 -4.14289,-29.44206c0,0 -5.98613,-21.33735 -6.08766,-21.01881c-0.10153,0.31854 -7.40634,-19.59525 -7.44024,-19.2063c-0.0339,0.38895 -13.64179,-20.97452 -13.37693,-20.9368c0.26486,0.03772 -14.84473,-20.17996 -14.34835,-20.12765c0.49639,0.05231 -17.68238,-16.07925 -17.70219,-15.71977c-0.01981,0.35947 -22.01715,-13.09071 -21.43074,-13.09071c0.58641,0 -26.16432,-10.47999 -26.16432,-10.47999l-27.31611,-6.33717c0,0 -30.66536,-0.90796 -30.55074,-0.90796c0.11462,0 -23.022,2.44026 -23.022,2.44026l-17.67072,4.35882c0,0 -22.03481,7.27491 -21.82517,7.4138c0.20964,0.13889 -20.537,8.52183 -20.29919,8.95967c0.23781,0.43784 -20.68046,13.86632 -20.34351,13.98533c0.33695,0.11901 -14.96124,14.34631 -14.96124,14.36203c0,0.01572 -10.83791,11.76621 -10.75864,11.9645c0.07927,0.19829 -7.28473,10.48367 -7.28473,10.48367z" id="Path-1"/></g><g id="Layer2-1" stroke-dasharray="0,0"><path d="M601.87862,489.49931" id="Path-1-1" fill-opacity="0" fill="#ca2121"/><path d="M493.95023,388.55318l15.6209,2.79308l15.90733,3.15038l12.41749,4.21241c0,0 9.42153,4.70817 9.46214,4.68136c0.04061,-0.02681 9.34951,5.48779 9.40254,5.58056c0.05303,0.09277 6.30335,6.82168 6.67464,6.61613c0.37129,-0.20555 5.74586,6.42263 5.88508,6.42263c0.13923,0 4.08042,6.15061 4.35733,6.0395c0.27691,-0.1111 3.4428,7.7154 3.6417,7.64242c0.1989,-0.07297 4.0349,8.86944 4.25375,8.88274c0.21885,0.0133 2.99209,7.76124 2.99209,7.76124c0,0 2.35495,10.54435 2.36232,10.56644c0.00736,0.02209 1.71079,11.57736 1.80732,11.59225c0.09654,0.01489 1.53678,12.20139 1.70751,12.1123c0.17073,-0.08909 1.28388,11.20043 1.54723,11.18293c0.26335,-0.0175 1.56891,12.93175 1.73751,12.97979c0.16861,0.04805 2.12906,12.73259 2.3461,12.68154c0.21705,-0.05105 1.48035,11.54064 1.51544,11.54064c0.03509,0 1.38482,7.36683 1.40242,7.28581c0.01759,-0.08102 1.71953,-12.84996 1.75695,-12.84996c0.03741,0 0.85029,-13.30454 0.97413,-13.30454c0.12385,0 1.06433,-14.83167 1.07071,-14.83167c0.00638,0 2.00251,-14.63851 2.04485,-14.51563c0.04235,0.12288 1.69816,-13.23 1.73761,-13.13786c0.03944,0.09214 3.41024,-11.98197 3.41392,-12.0422c0.00367,-0.06023 4.20079,-10.8459 4.26527,-10.81081c0.06448,0.03509 5.15483,-9.53157 5.30137,-9.3928c0.14654,0.13877 6.79309,-8.75704 6.79481,-8.63493c0.00172,0.12211 8.91398,-8.13405 8.92317,-8.03757c0.00919,0.09648 10.04088,-6.35791 10.06832,-6.30301c0.02745,0.0549 9.93996,-3.99431 9.9767,-3.84777c0.03674,0.14654 9.88142,-3.69185 9.73478,-3.33801c-0.14664,0.35384 10.75006,-3.31561 10.7317,-3.24234c-0.01836,0.07327 13.91388,-4.26771 13.85888,-3.91852c-0.055,0.34919 14.03405,-3.15753 14.1964,-3.16086c0.16235,-0.00333 10.35754,-1.55509 10.40629,-1.43537c0.04875,0.11972 11.53134,-1.77187 11.58063,-1.73236c0.04928,0.03952 12.00788,-1.12087 12.0082,-1.12087c0.00032,0 15.70226,-2.89489 15.70226,-2.89489l12.6418,-1.63744l10.60461,-0.53611c0,0 21.53144,-2.3471 21.75661,-2.38625c0.22517,-0.03915 23.58795,-1.36857 23.58795,-1.36857l30.77857,-1.58587c0,0 22.09244,-1.53173 22.09244,-1.48795c0,0.04378 -22.41897,-2.46291 -22.52476,-2.42765c-0.10579,0.03526 -27.02776,-1.58587 -27.02776,-1.58587l-27.53675,-1.91865c0,0 -21.09969,-2.31863 -21.0173,-2.3788c0.08238,-0.06017 -9.54334,-1.06695 -9.48564,-1.06695c0.0577,0 -12.91177,-0.71464 -12.91177,-0.71464l-10.90512,-1.52709c0,0 -10.2473,-1.1915 -10.07864,-1.06425c0.16866,0.12725 -30.25984,-4.18492 -30.25984,-4.18492c0,0 -24.82461,-5.43547 -24.54492,-5.46876c0.2797,-0.03329 -15.36151,-3.1132 -15.36151,-3.1132c0,0 -12.87551,-5.96842 -12.82733,-5.8954c0.04818,0.07302 -11.37573,-6.77684 -11.37573,-6.77684l-8.09809,-6.51867l-5.95263,-6.30866l-7.35474,-12.43137c0,0 -5.30057,-13.82149 -5.06497,-13.86836c0.2356,-0.04687 -3.6823,-14.62663 -3.63335,-14.60418c0.04895,0.02245 -2.00011,-10.23616 -2.00011,-10.23616c0,0 -1.4707,-15.59159 -1.39893,-15.68426c0,0 -1.52642,-16.66588 -1.49188,-16.64565c0.03454,0.02023 -1.55727,-16.57064 -1.41653,-16.58082c0.14074,-0.01017 -2.79047,15.82985 -2.7804,15.87043c0.01006,0.04058 -1.35974,17.38242 -1.35974,17.38242c0,0 -2.99223,18.07716 -2.89196,18.05212c0.10027,-0.02504 -2.58937,13.49771 -2.49547,13.37339c0.0939,-0.12431 -4.21697,16.97412 -4.16264,16.88223c0,0 -3.67339,10.41272 -3.39988,10.41272c0.27351,0 -5.03246,12.12241 -5.16005,12.29378c-0.12759,0.17137 -6.55366,11.8887 -6.55366,11.8887c0,0 -9.61559,10.61883 -9.46232,10.64065c0.15328,0.02183 -11.06153,6.87481 -10.93021,6.86396c0.13133,-0.01085 -12.83646,6.36035 -12.70091,6.31657c0.13555,-0.04378 -11.43212,3.70011 -11.32262,3.70011c0.1095,0 -11.86048,3.91948 -11.63063,3.81011c0.22985,-0.10937 -8.94821,1.27579 -8.77299,1.69401c0.17522,0.41823 -30.01826,3.66854 -30.01826,3.66854z" id="Path-1-2" fill="#0745d2"/></g></g></g></svg>