<?xml version="1.0" encoding="UTF-8" standalone="no"?>
<svg
   width="28"
   height="28"
   viewBox="0 0 28 28"
   fill="none"
   version="1.1"
   id="svg1"
   xmlns="http://www.w3.org/2000/svg"
   xmlns:svg="http://www.w3.org/2000/svg">
  <defs
     id="defs1" />
  <circle
     cx="14"
     cy="14"
     fill="#7540ef"
     id="ellipse1"
     r="14" />
  <path
     fill-rule="evenodd"
     clip-rule="evenodd"
     d="M 9.91049,5.16214 C 11.3173,4.50303 12.7775,4.2002 14.2199,4.2002 c 3.7217,0 7.2831,2.03076 9.0104,5.48662 H 20.0607 C 19.3127,8.70707 18.3155,7.94108 17.1581,7.44229 13.4541,5.85687 9.14478,7.51355 7.54212,11.1119 c -0.76571,1.728 -0.80132,3.634 -0.12465,5.3976 0.69449,1.7992 2.08346,3.2243 3.88203,4.0081 3.6861,1.5854 8.0132,-0.0713 9.6159,-3.6697 l 0.0178,-0.0356 -2.1191,-2.8324 2.0479,-2.7611 h 2.8848 l -2.0479,2.7968 2.1013,2.8502 c -0.4096,1.3004 -1.0685,2.4939 -1.9766,3.5271 -0.926,1.0332 -2.0479,1.8704 -3.3122,2.4583 C 13.5254,25.167 7.54213,23.1006 5.17376,18.2196 4.03409,15.8682 3.89163,13.2318 4.76419,10.7735 5.65455,8.27954 7.4887,6.2844 9.91049,5.16214 Z m 6.30501,6.03726 h 2.867 l -2.0122,2.779 2.0122,2.7611 h -2.867 l -2.0834,-2.7611 z"
     fill="#ffffff"
     id="path1" />
</svg>
