<?xml version="1.0" encoding="UTF-8" standalone="no"?>
<svg
   width="48.93285"
   height="49.999092"
   viewBox="0 0 48.93285 49.999092"
   fill="none"
   version="1.1"
   id="svg32"
   xmlns="http://www.w3.org/2000/svg"
   xmlns:svg="http://www.w3.org/2000/svg">
  <path
     d="m 36.1808,29.522768 c 4.4576,-4.5547 4.4576,-11.9399 0,-16.4931 L 32.4823,9.2505875 c -5.6847,-5.80869 -14.486,-6.48679 -20.9006,-2.04059 L 4.12155,14.831168 c -5.4954,5.6151 -5.4954,14.7199 0,20.3367 l 10.39335,10.6199 c 5.4954,5.6151 14.406,5.6151 19.9029,0 l 2.9348,-2.9988 c -6.4146,4.4478 -15.2159,3.7681 -20.9007,-2.0406 l -3.6985,-3.7791 c -4.45757,-4.5547 -4.45757,-11.9399 0,-16.4931 l 3.6431,-3.7224 c 4.4576,-4.5548 11.6852,-4.5548 16.1413,0 4.4576,4.5547 4.4576,11.9399 0,16.493 l 3.643,-3.7224 z"
     fill="url(#paint0_linear_69_811)"
     id="path15"
     style="fill:url(#paint0_linear_69_811)" />
  <path
     d="m 37.3527,42.789068 7.4586,-7.6211 c 5.4954,-5.6152 5.4954,-14.72 0,-20.3367 L 34.4195,4.2113775 c -5.4954,-5.61517 -14.406,-5.61517 -19.9029,0 l -2.9348,2.99874 c 6.4146,-4.44777 15.2159,-3.76809 20.9007,2.04059 l 3.6985,3.7790605 c 4.4575,4.5548 4.4575,11.9399 0,16.4931 l -3.6431,3.7225 c -4.4576,4.5547 -11.6852,4.5547 -16.1413,0 -4.4576,-4.5548 -4.4576,-11.9399 0,-16.4931 l -3.6431,3.7225 c -4.45756,4.5547 -4.45756,11.9399 0,16.4931 l 3.6985,3.7791 c 5.6848,5.8087 14.4861,6.4868 20.9007,2.0406 z"
     fill="url(#paint1_linear_69_811)"
     id="path16"
     style="fill:url(#paint1_linear_69_811)" />
  <path
     d="m 32.5378,33.245268 0.5281,-0.5396 -0.0185,-0.0189 c -0.1632,0.1904 -0.331,0.3776 -0.5081,0.5585 z"
     fill="url(#paint2_linear_69_811)"
     id="path17"
     style="fill:url(#paint2_linear_69_811)" />
  <path
     d="m 26.3465,46.119968 c -3.7924,-0.2989 -7.3647,-1.9792 -10.0592,-4.7325 l -4.6778,-4.7798 c -4.53769,-4.6365 -4.53769,-12.1806 0,-16.8172 l 4.0434,-4.1315 c 4.5115,-4.6098 12.1887,-4.5516 16.7664,0.1259 l 0.5312,0.5428 c 3.8864,3.971 4.3283,10.1479 1.3304,14.624 -0.3542,0.6073 -0.7684,1.1878 -1.238,1.7353 l 0.0185,0.0189 3.1149,-3.1828 c 0.5189,-0.5302 0.9762,-1.1013 1.3735,-1.6992 2.6345,-4.5343 2.0463,-10.4972 -1.7661,-14.3927 l -3.1858,-3.2552 C 29.9126,7.4321175 25.9923,5.7518075 21.8427,5.5693075 c -4.2128,-0.1888 -8.1053,1.21932 -10.6859,3.8562 L 5.19485,15.517368 c -2.61759,2.6747 -4.0588,6.2304 -4.0588,10.011 0,3.7807 1.44121,7.338 4.0588,10.011 l 9.48185,9.6885 c 2.6976,2.7565 6.2853,4.3046 10.0992,4.355 0.0647,0 0.1309,0 0.1956,0 2.6253,0 5.1505,-0.7127 7.3616,-2.0453 0.7329,-0.5066 1.4304,-1.0888 2.0802,-1.7511 l 2.519,-2.574 -0.0631,-0.0912 c -3.0349,2.2293 -6.7719,3.2929 -10.5242,2.9971 z m 10.1085,-19.4069 c 0.7006,-3.7539 -0.368,-7.7894 -3.2058,-10.6906 l -0.5312,-0.5428 c -2.2958,-2.3459 -5.3799,-3.6549 -8.6858,-3.6863 -0.04,0 -0.08,0 -0.1201,0 -3.2719,0 -6.3068,1.2618 -8.5564,3.5604 l -4.0434,4.1315 c -4.70241,4.8049 -4.70241,12.6212 0,17.4261 l 4.6778,4.7797 c 2.7654,2.8257 6.4316,4.55 10.3241,4.8568 0.4219,0.0331 0.8437,0.0504 1.2641,0.0504 1.4859,0 2.9579,-0.2061 4.376,-0.6073 -5.4631,1.8376 -11.7006,0.4861 -15.9596,-3.8656 l -5.6386,-5.7615 c -4.69471,-4.7971 -4.69471,-12.6039 0,-17.4009 l 4.4268,-4.5233 c 2.2727,-2.3222 5.403,-3.5651 8.8059,-3.5069 3.3382,0.0598 6.5594,1.4285 8.8382,3.7571 l 1.0624,1.0855 c 2.8963,2.9595 3.8848,7.1413 2.9656,10.9362 z m -2.6992,-11.2083 -1.0624,-1.0856 c -2.3466,-2.3977 -5.6633,-3.809 -9.0985,-3.8703 -3.506,-0.0598 -6.7333,1.2225 -9.0784,3.6202 l -4.4268,4.5233 c -4.8425,4.9481 -4.8425,12.9987 0,17.9452 l 5.6386,5.7615 c 3.0949,3.1624 7.2092,4.7782 11.3373,4.7782 1.8323,0 3.6646,-0.321 5.4137,-0.9645 -5.5985,2.4434 -12.261,1.2681 -16.7787,-3.348 l -6.59939,-6.7432 c -2.35121,-2.4025 -3.6446,-5.5947 -3.6446,-8.9931 0,-3.3984 1.29493,-6.5906 3.6446,-8.9931 l 4.81019,-4.915 c 2.3143,-2.3647 5.6817,-3.6690005 9.2386,-3.5793205 3.5291,0.08968 6.9135,1.5308205 9.2847,3.9553205 l 1.5921,1.6268 c 3.0641,3.1309 3.9941,7.6259 2.7977,11.5875 0.2264,-0.933 0.3434,-1.9022 0.3434,-2.8886 0,-3.1813 -1.2118,-6.1721 -3.4136,-8.422 z m 0.5066,-0.5176 -1.5921,-1.6268 c -2.4313,-2.4843 -5.8988,-3.9631805 -9.5126,-4.0544305 -3.6462,-0.08968 -7.1029,1.2476305 -9.4819,3.6784305 l -4.81017,4.915 c -2.4128,2.4654 -3.74315,5.7458 -3.74315,9.2322 0,3.4865 1.32881,6.7669 3.74315,9.2323 l 6.59937,6.7432 c 3.0441,3.1104 7.0429,4.6932 11.0555,4.6932 1.9801,0 3.9618,-0.387 5.8341,-1.1643 -2.1464,1.0337 -4.5222,1.5387 -6.9489,1.4412 -3.7739,-0.151 -7.3246,-1.7385 -9.9976,-4.4698 l -7.56025,-7.7234 c -5.01037,-5.1196 -5.01037,-13.4487 0,-18.5683 l 5.19515,-5.3083 c 4.9488,-5.0566905 14.1966,-4.8175405 19.4009,0.5003 l 2.1234,2.1696 c 3.312,3.3842 4.1388,8.3621 2.4821,12.5424 1.375,-4.1504 0.448,-8.9285 -2.7855,-12.2325 z m 0.5066,-0.5176 -2.1234,-2.1696 C 30.1297,9.7291575 26.5113,8.1841575 22.7204,8.0614375 c -3.834,-0.12271 -7.4371,1.23978 -9.8837,3.7382305 l -5.19518,5.3083 c -5.12277,5.2345 -5.12277,13.7508 0,18.9853 l 7.56018,7.7234 c 2.7254,2.7847 6.3438,4.4021 10.1901,4.5563 0.2018,0.0079 0.4019,0.0126 0.6036,0.0126 2.3112,0 4.5654,-0.5334 6.6087,-1.5434 -5.5909,3.2001 -12.7692,2.3332 -17.4932,-2.4938 l -8.51949,-8.7051 c -2.50365,-2.5582 -3.88173,-5.9582 -3.88173,-9.5752 0,-3.6171 1.37808,-7.0186 3.88173,-9.5752 l 5.57849,-5.7001 c 2.4652,-2.5189305 6.1468,-3.8751305 10.1024,-3.7240905 3.9094,0.15104 7.6187,1.73537 10.1778,4.3501905 l 2.6545,2.7124 c 3.486,3.562 4.2236,8.8861 2.2127,13.1939 1.6952,-4.2842 0.8468,-9.3833 -2.5483,-12.8525 z m -9.7975,34.9119 c -0.0647,0 -0.1293,0 -0.1925,0 -3.7616,-0.0504 -7.2984,-1.5765 -9.9607,-4.2952 l -9.48179,-9.6884 c -2.5791,-2.6354 -4.00029,-6.1407 -4.00029,-9.8679 0,-3.7272 1.42119,-7.2325 4.00029,-9.8678 L 11.2984,9.5702475 c 5.2491,-5.36343 15.5316,-4.99842 21.1579,0.7505205 l 3.1857,3.2551 c 3.68,3.7603 4.3021,9.4777 1.8693,13.9034 2.0833,-4.41 1.3396,-9.8757 -2.2358,-13.5289 l -2.6545,-2.7124 C 30.0204,8.5806375 26.251,6.9679875 22.28,6.8153775 c -4.0218,-0.15104 -7.7712,1.22876 -10.284,3.7963905 l -5.57858,5.7001 c -2.54984,2.6055 -3.95256,6.0683 -3.95256,9.7515 0,3.6831 1.40426,7.1475 3.95256,9.7514 l 8.51948,8.7051 c 2.904,2.9673 6.721,4.4651 10.5427,4.4651 2.4898,0 4.9811,-0.6388 7.223,-1.9179 -2.2896,1.5057 -4.9565,2.3128 -7.7342,2.3128 z"
     fill="url(#paint3_linear_69_811)"
     id="path18"
     style="fill:url(#paint3_linear_69_811)" />
  <path
     d="m 16.3943,16.752468 -0.5281,0.5396 0.0185,0.0189 c 0.1632,-0.1904 0.331,-0.3776 0.5081,-0.5585 z"
     fill="url(#paint4_linear_69_811)"
     id="path19"
     style="fill:url(#paint4_linear_69_811)" />
  <path
     d="m 13.143,36.566868 3.1858,3.2551 c 2.6853,2.7439 6.6056,4.4242 10.7552,4.6067 0.2479,0.011 0.4943,0.0157 0.7391,0.0157 3.9248,0 7.5186,-1.3908 9.9468,-3.8719 l 5.962,-6.0919 c 2.6176,-2.6746 4.0588,-6.2303 4.0588,-10.011 0,-3.7807 -1.4412,-7.3379 -4.0588,-10.011 L 34.2516,4.7700975 c -2.7008,-2.75645 -6.2868,-4.303024 -10.1008,-4.354943 -2.7023,-0.03304 -5.3045,0.684393 -7.5741,2.056323 -0.7268,0.50346 -1.4181,1.08087 -2.0633,1.74009 l -2.519,2.57395 0.0631,0.09125 c 3.0349,-2.22939 6.7734,-3.29453 10.5243,-2.99717 3.7924,0.29893 7.3646,1.97923 10.0592,4.73254 l 4.6778,4.7797305 c 4.5376,4.6366 4.5376,12.1806 0,16.8172 l -4.0434,4.1315 c -4.5115,4.6098 -12.1887,4.5516 -16.7664,-0.1259 l -0.5313,-0.5428 c -3.8878,-3.971 -4.3282,-10.1478 -1.3303,-14.6255 0.3541,-0.6073 0.7668,-1.1879 1.238,-1.7354 l -0.0185,-0.0188 -3.115,3.1828 c -0.5188,0.5302 -0.9746,1.1013 -1.3734,1.6992 -2.63608,4.5343 -2.04789,10.4971 1.7661,14.3942 z m 2.536,-2.5913 0.5312,0.5428 c 2.2958,2.3458 5.38,3.6548 8.6858,3.6863 0.0401,0 0.0801,0 0.1201,0 3.272,0 6.3069,-1.2618 8.5564,-3.5604 l 4.0435,-4.1316 c 4.7024,-4.8049 4.7024,-12.6211 0,-17.426 L 32.9382,8.3069075 c -2.7654,-2.82567 -6.4316,-4.55003 -10.3241,-4.85683 -1.9155,-0.15103 -3.8263,0.04406 -5.6463,0.5601 5.4646,-1.84235 11.7052,-0.49087 15.9673,3.8625 l 5.6386,5.7614905 c 2.2742,2.3238 3.5276,5.4138 3.5276,8.7004 0,3.2867 -1.2519,6.3767 -3.5276,8.7005 l -4.4268,4.5233 c -2.2727,2.3222 -5.3953,3.5682 -8.8059,3.5069 -3.3382,-0.0598 -6.5594,-1.4286 -8.8382,-3.7571 l -1.0624,-1.0856 c -2.8963,-2.9594 -3.8848,-7.1413 -2.9656,-10.9345 -0.7006,3.7539 0.368,7.7879 3.2058,10.6891 z m -0.5066,0.5176 1.0625,1.0856 c 2.3466,2.3977 5.6632,3.809 9.0984,3.8704 0.0816,0 0.1617,0.0015 0.2433,0.0015 3.4152,0 6.544,-1.2806 8.8351,-3.6217 l 4.4268,-4.5233 c 2.3451,-2.3962 3.6369,-5.5837 3.6369,-8.9726 0,-3.389 -1.2918,-6.5765 -3.6369,-8.9727 L 33.1999,7.5989175 c -4.4699,-4.56734 -11.0693,-5.90623 -16.7618,-3.81057 5.6001,-2.44966 12.2688,-1.27439 16.788,3.34329 l 6.5994,6.7432305 c 4.8533,4.9575 4.8533,13.0255 0,17.9846 l -4.8102,4.915 c -4.8364,4.9418 -13.4914,4.7656 -18.5233,-0.376 l -1.5921,-1.6268 c -3.1041,-3.1718 -4.0188,-7.7454 -2.7485,-11.7464 -1.0208,3.9648 -0.0154,8.3653 3.021,11.4679 z m -0.5065,0.5176 1.5921,1.6269 c 2.6468,2.7045 6.2745,4.067 9.8483,4.067 3.389,0 6.7302,-1.2256 9.1446,-3.691 l 4.8102,-4.9151 c 4.9826,-5.0912 4.9826,-13.3747 0,-18.466 L 33.4617,6.8893475 c -4.5454,-4.64285 -11.2218,-5.87633 -16.8881,-3.52423 2.1464,-1.03366 4.5238,-1.5387 6.9505,-1.44273 3.7739,0.15104 7.3246,1.73852 9.9976,4.4698 l 7.5602,7.7249805 c 2.4267,2.4795 3.7632,5.7772 3.7632,9.2841 0,3.507 -1.3365,6.8046 -3.7632,9.2842 l -5.1951,5.3084 c -2.3897,2.4417 -5.9127,3.7743 -9.6697,3.6516 -3.7185,-0.1196 -7.2661,-1.6331 -9.7312,-4.152 l -2.1234,-2.1696 c -3.312,-3.3842 -4.1388,-8.3621 -2.4805,-12.5424 -1.375,4.1519 -0.4481,8.9301 2.7839,12.2325 z m -0.5066,0.5177 2.1233,2.1696 c 2.516,2.5708 6.1344,4.1158 9.9253,4.2385 0.1601,0.0047 0.3203,0.0078 0.4789,0.0078 3.6553,0 7.0613,-1.3514 9.4033,-3.746 l 5.1951,-5.3084 c 2.4821,-2.5362 3.8478,-5.9062 3.8478,-9.4918 0,-3.5856 -1.3673,-6.9572 -3.8478,-9.4918 L 33.725,6.1813575 c -2.7254,-2.78477 -6.3438,-4.40214 -10.1901,-4.55632 -2.5283,-0.1007 -5.0042,0.43738 -7.2292,1.54027 5.5924,-3.2079881 12.78,-2.344238 17.5101,2.48899 l 8.521,8.7051705 c 5.1675,5.28 5.1675,13.8719 0,19.152 l -5.5785,5.7001 c -2.4651,2.5189 -6.1467,3.8751 -10.1023,3.724 -3.9095,-0.151 -7.6188,-1.7353 -10.1778,-4.3502 l -2.6546,-2.7124 c -2.1433,-2.19 -3.3228,-5.1007 -3.3228,-8.197 0,-1.7967 0.4004,-3.5289 1.1518,-5.0959 -1.7492,4.3046 -0.9147,9.4556 2.5051,12.9515 z m -3.9018,-7.8556 c 0,3.1624 1.2057,6.1359 3.3937,8.3732 l 2.6545,2.7124 c 2.6007,2.6573 6.37,4.27 10.3395,4.4226 0.2032,0.0078 0.4065,0.011 0.6082,0.011 3.7909,0 7.2907,-1.3704 9.6758,-3.809 l 5.5786,-5.7001 c 5.2629,-5.3776 5.2629,-14.1268 0,-19.5044 L 33.9867,5.4733675 c -4.7978,-4.899308 -12.0871,-5.783512 -17.7703,-2.53776 2.3435,-1.54342 5.0812,-2.355255 7.9313,-2.315922 3.7616,0.050346 7.2984,1.576462 9.9607,4.295152 l 9.4803,9.6885305 c 2.5791,2.6353 4.0003,6.1406 4.0003,9.8678 0,3.7272 -1.4212,7.2325 -4.0003,9.8678 l -5.962,6.0919 c -2.5406,2.596 -6.3823,3.9805 -10.535,3.7964 -4.0988,-0.1809 -7.9713,-1.8376 -10.6228,-4.5469 l -3.1857,-3.2551 c -3.64926,-3.7288 -4.29134,-9.3817 -1.9309,-13.7917 -0.7191,1.5575 -1.0978,3.2709 -1.0978,5.044 z"
     fill="url(#paint5_linear_69_811)"
     id="path20"
     style="fill:url(#paint5_linear_69_811)" />
  <path
     d="m 28.1109,45.440168 c -4.3406,0 -8.421,-1.7275 -11.4897,-4.8631 l -3.6985,-3.7791 c -2.111,-2.157 -3.27352,-5.0252 -3.27352,-8.0758 0,-3.0507 1.16252,-5.9188 3.27352,-8.0759 l 1.2996,-1.3278 c -0.0077,0.0141 -0.0139,0.0283 -0.0216,0.0424 -0.0262,0.0488 -0.0493,0.0976 -0.0739,0.1464 -0.0323,0.0629 -0.0631,0.1258 -0.0939,0.1903 -0.793,1.6268 -1.2164,3.4299 -1.2164,5.3021 0,3.1797 1.2118,6.1706 3.4121,8.4188 2.2003,2.2483 5.1274,3.4865 8.2392,3.4865 3.1119,0 6.0205,-1.2319 8.2192,-3.4692 0.0062,-0.0063 0.0124,-0.0125 0.02,-0.0188 l 3.6431,-3.7225 c 4.5423,-4.6429 4.5423,-12.1948 0,-16.8376 L 32.6516,9.0777175 c -3.1596,-3.22844 -7.3585,-5.00472 -11.8269,-5.00472 -3.0271,0 -5.9311,0.81813 -8.4717,2.34896 l -2.0032,2.04689 c 2.927,-2.5299 6.5963,-3.90969 10.4734,-3.90969 4.3406,0 8.4209,1.7275 11.4897,4.86312 l 3.6985,3.7790905 c 4.3575,4.4525 4.3575,11.6976 0,16.1501 l -1.2996,1.3279 c 0.0077,-0.0142 0.0139,-0.0283 0.0216,-0.0409 0.0261,-0.0488 0.0508,-0.0991 0.0754,-0.1495 0.0308,-0.0629 0.0631,-0.1243 0.0924,-0.1872 0.793,-1.6268 1.2164,-3.4314 1.2164,-5.3021 0,-3.1797 -1.2118,-6.1705 -3.4121,-8.4188 -4.5423,-4.6429 -11.9347,-4.6429 -16.4785,0 l -3.643,3.7225 c -4.54233,4.6428 -4.54233,12.1947 0,16.8376 l 3.6985,3.7791 c 3.1595,3.2285 7.3585,5.0047 11.8268,5.0047 3.0272,0 5.9312,-0.8181 8.4718,-2.3489 l 2.0032,-2.0469 c -2.9271,2.5299 -6.5963,3.9097 -10.475,3.9097 z m -11.5467,-28.5163 c 2.1788,-2.2263 5.0412,-3.3386 7.9036,-3.3386 2.8624,0 5.7248,1.1139 7.9036,3.3386 2.111,2.157 3.2735,5.0252 3.2735,8.0758 0,3.0507 -1.1625,5.9188 -3.2735,8.0743 -2.111,2.157 -4.918,3.3448 -7.9036,3.3448 -2.9856,0 -5.7926,-1.1878 -7.9036,-3.3448 -2.111,-2.157 -3.2735,-5.0252 -3.2735,-8.0743 0,-3.0491 1.1625,-5.9188 3.2735,-8.0758 z"
     fill="#ffffff"
     id="path21" />
  <defs
     id="defs32">
    <linearGradient
       id="paint0_linear_69_811"
       x1="19.7609"
       y1="50.3447"
       x2="19.7609"
       y2="4.31604"
       gradientUnits="userSpaceOnUse"
       gradientTransform="translate(0,-7.3249999e-4)">
      <stop
         stop-color="#FF7F00"
         id="stop21" />
      <stop
         offset="1"
         stop-color="#FF0000"
         id="stop22" />
    </linearGradient>
    <linearGradient
       id="paint1_linear_69_811"
       x1="9.1666203"
       y1="22.8416"
       x2="49.272701"
       y2="22.8416"
       gradientUnits="userSpaceOnUse"
       gradientTransform="translate(0,-7.3249999e-4)">
      <stop
         stop-color="#0055D6"
         id="stop23" />
      <stop
         offset="1"
         stop-color="#0090FF"
         id="stop24" />
    </linearGradient>
    <linearGradient
       id="paint2_linear_69_811"
       x1="32.5378"
       y1="32.967602"
       x2="33.0644"
       y2="32.967602"
       gradientUnits="userSpaceOnUse"
       gradientTransform="translate(0,-7.3249999e-4)">
      <stop
         stop-color="#FFB266"
         id="stop25" />
      <stop
         offset="1"
         stop-color="#FF3333"
         id="stop26" />
    </linearGradient>
    <linearGradient
       id="paint3_linear_69_811"
       x1="20.153601"
       y1="49.585098"
       x2="20.153601"
       y2="5.5543098"
       gradientUnits="userSpaceOnUse"
       gradientTransform="translate(0,-7.3249999e-4)">
      <stop
         stop-color="#FFB266"
         id="stop27" />
      <stop
         offset="1"
         stop-color="#FF3333"
         id="stop28" />
    </linearGradient>
    <linearGradient
       id="paint4_linear_69_811"
       x1="15.8662"
       y1="17.033199"
       x2="16.3943"
       y2="17.033199"
       gradientUnits="userSpaceOnUse"
       gradientTransform="translate(0,-7.3249999e-4)">
      <stop
         stop-color="#4C88E2"
         id="stop29" />
      <stop
         offset="1"
         stop-color="#66BCFF"
         id="stop30" />
    </linearGradient>
    <linearGradient
       id="paint5_linear_69_811"
       x1="9.7617397"
       y1="22.431299"
       x2="47.789101"
       y2="22.431299"
       gradientUnits="userSpaceOnUse"
       gradientTransform="translate(0,-7.3249999e-4)">
      <stop
         stop-color="#4C88E2"
         id="stop31" />
      <stop
         offset="1"
         stop-color="#66BCFF"
         id="stop32" />
    </linearGradient>
  </defs>
</svg>
