<?xml version="1.0" encoding="UTF-8"?>
<svg width="80px" height="80px" viewBox="0 0 80 80" version="1.1" xmlns="http://www.w3.org/2000/svg" xmlns:xlink="http://www.w3.org/1999/xlink">
    <title>kucoinpool</title>
    <g id="页面-1" stroke="none" stroke-width="1" fill="none" fill-rule="evenodd">
        <g id="矿池logo" transform="translate(-186.000000, -3400.000000)" fill="#54AC93">
            <g id="kucoinpool" transform="translate(186.000000, 3400.000000)">
                <path d="M44.4925857,2.90124577 C46.4418184,0.941304619 49.3263025,0.497333955 51.700993,1.56639277 C52.6037044,1.87703743 53.4518169,2.39355313 54.1720848,3.11765543 L54.1720848,3.11765543 L73.4224945,22.4738206 C75.9448947,25.0103231 75.9448947,29.1224743 73.4224945,31.6588543 C70.8999724,34.1952343 66.8101668,34.1952343 64.2877665,31.6588543 L64.2877665,31.6588543 L49.2246607,16.5129966 L26.0138742,39.8512956 L49.4801059,63.4464431 L64.2877665,48.5574341 C66.8101668,46.0211766 70.8999724,46.0211766 73.4224945,48.5574341 C75.9448947,51.0938141 75.9448947,55.2060878 73.4224945,57.7423452 L73.4224945,57.7423452 L54.1720848,77.0986329 C52.024687,79.2578278 48.7419227,79.5775406 46.2568155,78.0604672 C45.6192992,77.7516607 45.0212696,77.3330563 44.4925857,76.8014679 L44.4925857,76.8014679 L16.9185111,49.0759104 L16.9185111,65.9997339 C16.9185111,69.5866689 14.0265927,72.4944745 10.4592556,72.4944745 C6.8919184,72.4944745 4,69.5866689 4,65.9997339 L4,65.9997339 L4,14.1643514 C4,10.5774165 6.8919184,7.6696108 10.4592556,7.6696108 C14.0265927,7.6696108 16.9185111,10.5774165 16.9185111,14.1643514 L16.9185111,14.1643514 L16.9185111,30.6268032 Z M48.5714387,33.3142989 C52.26381,33.3142989 55.2571527,36.3076416 55.2571527,40.0000129 C55.2571527,43.6923841 52.26381,46.6857268 48.5714387,46.6857268 C44.8790675,46.6857268 41.8857248,43.6923841 41.8857248,40.0000129 C41.8857248,36.3076416 44.8790675,33.3142989 48.5714387,33.3142989 Z" id="形状结合"></path>
            </g>
        </g>
    </g>
</svg>