<?xml version="1.0" encoding="UTF-8"?>
<!DOCTYPE svg PUBLIC "-//W3C//DTD SVG 1.1//EN" "http://www.w3.org/Graphics/SVG/1.1/DTD/svg11.dtd">
<svg xmlns="http://www.w3.org/2000/svg" version="1.1" width="64px" height="64px" style="shape-rendering:geometricPrecision; text-rendering:geometricPrecision; image-rendering:optimizeQuality; fill-rule:evenodd; clip-rule:evenodd" xmlns:xlink="http://www.w3.org/1999/xlink">
<g><path style="opacity:1" fill="#88a37b" d="M 24.5,0.5 C 27.4309,2.09082 30.0976,4.09082 32.5,6.5C 31.2248,9.60375 31.2248,12.6038 32.5,15.5C 33.0845,18.0034 33.7511,20.5034 34.5,23C 34.8361,24.0299 35.5028,24.5299 36.5,24.5C 33.682,26.0722 30.682,27.4055 27.5,28.5C 26.3583,24.8832 24.6916,21.5498 22.5,18.5C 26.3227,11.8254 24.656,6.32542 17.5,2C 19.5938,0.648491 21.9272,0.148491 24.5,0.5 Z"/></g>
<g><path style="opacity:1" fill="#617b55" d="M 38.5,-0.5 C 41.1667,-0.5 43.8333,-0.5 46.5,-0.5C 47.1667,0.166667 47.8333,0.833333 48.5,1.5C 48.5,1.83333 48.5,2.16667 48.5,2.5C 47.8826,2.38929 47.3826,2.05596 47,1.5C 47.0638,5.63761 45.8972,9.30428 43.5,12.5C 40.274,14.8771 36.6073,15.8771 32.5,15.5C 31.2248,12.6038 31.2248,9.60375 32.5,6.5C 33.7872,3.54685 35.7872,1.21351 38.5,-0.5 Z"/></g>
<g><path style="opacity:1" fill="#97af8c" d="M 16.5,-0.5 C 19.1667,-0.5 21.8333,-0.5 24.5,-0.5C 24.5,-0.166667 24.5,0.166667 24.5,0.5C 21.9272,0.148491 19.5938,0.648491 17.5,2C 24.656,6.32542 26.3227,11.8254 22.5,18.5C 19.2685,11.8816 13.9352,8.88162 6.5,9.5C 8.95645,5.22011 12.2898,1.88677 16.5,-0.5 Z"/></g>
<g><path style="opacity:1" fill="#425339" d="M 48.5,2.5 C 51.866,8.86991 50.5327,14.2032 44.5,18.5C 43.5,19.1667 42.5,19.8333 41.5,20.5C 41.0618,20.5654 40.7284,20.3988 40.5,20C 43.0414,18.1516 44.0414,15.6516 43.5,12.5C 45.8972,9.30428 47.0638,5.63761 47,1.5C 47.3826,2.05596 47.8826,2.38929 48.5,2.5 Z"/></g>
<g><path style="opacity:1" fill="#b2c4aa" d="M 48.5,2.5 C 48.5,2.16667 48.5,1.83333 48.5,1.5C 49.2389,1.36899 49.9056,1.53566 50.5,2C 54.7561,7.07932 59.0894,11.9127 63.5,16.5C 63.5,18.8333 63.5,21.1667 63.5,23.5C 62.6153,26.06 60.9486,28.06 58.5,29.5C 58.7529,27.1727 58.0863,25.1727 56.5,23.5C 51.6724,23.4338 47.6724,21.7671 44.5,18.5C 50.5327,14.2032 51.866,8.86991 48.5,2.5 Z"/></g>
<g><path style="opacity:1" fill="#556c4a" d="M 4.5,13.5 C 4.9528,14.4584 5.61947,15.2917 6.5,16C 5.76231,19.6158 5.09564,23.2825 4.5,27C 5.31461,28.6434 6.31461,30.1434 7.5,31.5C 6.83333,31.5 6.16667,31.5 5.5,31.5C 3.08377,29.0922 1.08377,26.4256 -0.5,23.5C -0.5,21.5 -0.5,19.5 -0.5,17.5C 0.166667,17.5 0.5,17.1667 0.5,16.5C 1.83333,15.5 3.16667,14.5 4.5,13.5 Z"/></g>
<g><path style="opacity:1" fill="#516646" d="M 43.5,12.5 C 44.0414,15.6516 43.0414,18.1516 40.5,20C 40.7284,20.3988 41.0618,20.5654 41.5,20.5C 40.0552,22.0627 38.3885,23.396 36.5,24.5C 35.5028,24.5299 34.8361,24.0299 34.5,23C 33.7511,20.5034 33.0845,18.0034 32.5,15.5C 36.6073,15.8771 40.274,14.8771 43.5,12.5 Z"/></g>
<g><path style="opacity:1" fill="#394831" d="M 11.5,13.5 C 13.4044,13.7376 14.7377,14.7376 15.5,16.5C 15.4614,17.7562 15.9614,18.7562 17,19.5C 17.3594,23.4643 17.5261,27.131 17.5,30.5C 17.5,31.1667 17.1667,31.5 16.5,31.5C 14.8333,31.5 13.1667,31.5 11.5,31.5C 12.3646,27.2788 12.6979,23.1121 12.5,19C 12.0037,17.0036 11.0037,15.3369 9.5,14C 10.0944,13.5357 10.7611,13.369 11.5,13.5 Z"/></g>
<g><path style="opacity:1" fill="#607954" d="M 6.5,9.5 C 13.9352,8.88162 19.2685,11.8816 22.5,18.5C 24.6916,21.5498 26.3583,24.8832 27.5,28.5C 26.8333,28.5 26.1667,28.5 25.5,28.5C 23.1093,23.7212 19.776,19.7212 15.5,16.5C 14.7377,14.7376 13.4044,13.7376 11.5,13.5C 9.27433,12.2437 6.941,12.2437 4.5,13.5C 3.16667,14.5 1.83333,15.5 0.5,16.5C 1.33924,13.1451 3.33924,10.8118 6.5,9.5 Z"/></g>
<g><path style="opacity:1" fill="#495d40" d="M 11.5,13.5 C 10.7611,13.369 10.0944,13.5357 9.5,14C 11.0037,15.3369 12.0037,17.0036 12.5,19C 12.6979,23.1121 12.3646,27.2788 11.5,31.5C 10.1667,31.5 8.83333,31.5 7.5,31.5C 6.31461,30.1434 5.31461,28.6434 4.5,27C 5.09564,23.2825 5.76231,19.6158 6.5,16C 5.61947,15.2917 4.9528,14.4584 4.5,13.5C 6.941,12.2437 9.27433,12.2437 11.5,13.5 Z"/></g>
<g><path style="opacity:1" fill="#273222" d="M 15.5,16.5 C 19.776,19.7212 23.1093,23.7212 25.5,28.5C 24.1667,29.1667 22.8333,29.8333 21.5,30.5C 20.1667,30.5 18.8333,30.5 17.5,30.5C 17.5261,27.131 17.3594,23.4643 17,19.5C 15.9614,18.7562 15.4614,17.7562 15.5,16.5 Z"/></g>
<g><path style="opacity:1" fill="#9eb494" d="M 44.5,18.5 C 47.6724,21.7671 51.6724,23.4338 56.5,23.5C 58.0863,25.1727 58.7529,27.1727 58.5,29.5C 57.8902,30.391 57.5569,31.391 57.5,32.5C 55.8828,31.962 54.2161,31.6287 52.5,31.5C 49.6146,31.1936 46.9479,31.5269 44.5,32.5C 41.6726,32.5838 39.006,33.2504 36.5,34.5C 36.2648,33.9033 35.7648,33.5699 35,33.5C 32.6698,35.0426 30.1698,35.5426 27.5,35C 29.8912,34.3086 29.8912,33.3086 27.5,32C 25.6547,30.872 23.6547,30.372 21.5,30.5C 22.8333,29.8333 24.1667,29.1667 25.5,28.5C 26.1667,28.5 26.8333,28.5 27.5,28.5C 30.682,27.4055 33.682,26.0722 36.5,24.5C 38.3885,23.396 40.0552,22.0627 41.5,20.5C 42.5,19.8333 43.5,19.1667 44.5,18.5 Z"/></g>
<g><path style="opacity:1" fill="#b0c2a7" d="M 17.5,30.5 C 18.8333,30.5 20.1667,30.5 21.5,30.5C 23.6547,30.372 25.6547,30.872 27.5,32C 29.8912,33.3086 29.8912,34.3086 27.5,35C 30.1698,35.5426 32.6698,35.0426 35,33.5C 35.7648,33.5699 36.2648,33.9033 36.5,34.5C 34.7162,34.8925 33.0495,35.5592 31.5,36.5C 30.2905,36.9321 29.2905,37.5987 28.5,38.5C 28.1667,38.5 27.8333,38.5 27.5,38.5C 21.5221,36.9747 16.8555,38.9747 13.5,44.5C 14.0253,45.1924 14.6919,45.6924 15.5,46C 13.6885,47.0407 13.3552,48.2073 14.5,49.5C 11.9524,53.4611 11.9524,57.4611 14.5,61.5C 11.622,60.4378 9.62195,58.4378 8.5,55.5C 9.38262,51.0434 10.8826,46.71 13,42.5C 13.498,39.5184 13.6646,36.5184 13.5,33.5C 11.4727,33.6621 9.4727,33.4955 7.5,33C 10.2305,32.2716 12.8971,32.4383 15.5,33.5C 16.2975,33.0431 16.6309,32.3764 16.5,31.5C 17.1667,31.5 17.5,31.1667 17.5,30.5 Z"/></g>
<g><path style="opacity:1" fill="#647e57" d="M 52.5,31.5 C 54.2161,31.6287 55.8828,31.962 57.5,32.5C 58.6254,37.057 59.9587,41.3904 61.5,45.5C 61.1667,46.5 60.5,47.1667 59.5,47.5C 57.7354,46.5386 55.7354,46.2053 53.5,46.5C 53.2281,42.0983 53.5614,37.7649 54.5,33.5C 53.7573,32.8182 53.0906,32.1515 52.5,31.5 Z"/></g>
<g><path style="opacity:1" fill="#566d4c" d="M 44.5,32.5 C 46.9479,31.5269 49.6146,31.1936 52.5,31.5C 53.0906,32.1515 53.7573,32.8182 54.5,33.5C 53.5614,37.7649 53.2281,42.0983 53.5,46.5C 55.7354,46.2053 57.7354,46.5386 59.5,47.5C 55.6454,49.023 51.9788,48.6896 48.5,46.5C 45.0347,43.3749 42.3681,39.7083 40.5,35.5C 42.5625,34.2237 44.8958,33.3903 47.5,33C 46.552,32.5172 45.552,32.3505 44.5,32.5 Z"/></g>
<g><path style="opacity:1" fill="#33412d" d="M 44.5,32.5 C 45.552,32.3505 46.552,32.5172 47.5,33C 44.8958,33.3903 42.5625,34.2237 40.5,35.5C 39.8333,35.5 39.1667,35.5 38.5,35.5C 36.7162,35.8925 35.0495,36.5592 33.5,37.5C 32.5084,37.6716 31.8417,37.3382 31.5,36.5C 33.0495,35.5592 34.7162,34.8925 36.5,34.5C 39.006,33.2504 41.6726,32.5838 44.5,32.5 Z"/></g>
<g><path style="opacity:1" fill="#96ae8b" d="M 5.5,31.5 C 6.16667,31.5 6.83333,31.5 7.5,31.5C 8.83333,31.5 10.1667,31.5 11.5,31.5C 13.1667,31.5 14.8333,31.5 16.5,31.5C 16.6309,32.3764 16.2975,33.0431 15.5,33.5C 12.8971,32.4383 10.2305,32.2716 7.5,33C 9.4727,33.4955 11.4727,33.6621 13.5,33.5C 13.6646,36.5184 13.498,39.5184 13,42.5C 10.8826,46.71 9.38262,51.0434 8.5,55.5C 4.10416,53.3422 1.10416,50.0088 -0.5,45.5C -0.5,43.5 -0.5,41.5 -0.5,39.5C 1.08377,36.5744 3.08377,33.9078 5.5,31.5 Z"/></g>
<g><path style="opacity:1" fill="#7d9a6f" d="M 57.5,32.5 C 60.2766,34.2685 62.2766,36.6018 63.5,39.5C 63.5,41.5 63.5,43.5 63.5,45.5C 62.8333,45.5 62.1667,45.5 61.5,45.5C 59.9587,41.3904 58.6254,37.057 57.5,32.5 Z"/></g>
<g><path style="opacity:1" fill="#dde4d9" d="M 27.5,38.5 C 22.7212,40.8907 18.7212,44.224 15.5,48.5C 14.8333,48.5 14.5,48.8333 14.5,49.5C 13.3552,48.2073 13.6885,47.0407 15.5,46C 14.6919,45.6924 14.0253,45.1924 13.5,44.5C 16.8555,38.9747 21.5221,36.9747 27.5,38.5 Z"/></g>
<g><path style="opacity:1" fill="#46583d" d="M 31.5,36.5 C 31.8417,37.3382 32.5084,37.6716 33.5,37.5C 32.3398,38.265 31.3398,39.265 30.5,40.5C 31.4512,45.7698 31.7846,51.1032 31.5,56.5C 29.4728,59.1939 27.1395,61.5272 24.5,63.5C 21.8333,63.5 19.1667,63.5 16.5,63.5C 15.8333,62.8333 15.1667,62.1667 14.5,61.5C 11.9524,57.4611 11.9524,53.4611 14.5,49.5C 14.5,48.8333 14.8333,48.5 15.5,48.5C 16.3285,49.3324 17.1618,48.999 18,47.5C 18.9147,48.3279 19.5814,49.3279 20,50.5C 22.3124,47.0205 25.1458,44.0205 28.5,41.5C 29.7759,40.3864 29.7759,39.3864 28.5,38.5C 29.2905,37.5987 30.2905,36.9321 31.5,36.5 Z"/></g>
<g><path style="opacity:1" fill="#313f2b" d="M 27.5,38.5 C 27.8333,38.5 28.1667,38.5 28.5,38.5C 29.7759,39.3864 29.7759,40.3864 28.5,41.5C 25.1458,44.0205 22.3124,47.0205 20,50.5C 19.5814,49.3279 18.9147,48.3279 18,47.5C 17.1618,48.999 16.3285,49.3324 15.5,48.5C 18.7212,44.224 22.7212,40.8907 27.5,38.5 Z"/></g>
<g><path style="opacity:1" fill="#8ca680" d="M 38.5,35.5 C 39.7349,38.9583 41.7349,41.9583 44.5,44.5C 42.6554,46.5364 42.1554,48.8697 43,51.5C 44.973,53.473 46.973,55.473 49,57.5C 49.5791,58.9285 49.4124,60.2618 48.5,61.5C 47.8333,62.1667 47.1667,62.8333 46.5,63.5C 43.8333,63.5 41.1667,63.5 38.5,63.5C 35.8333,61.5 33.5,59.1667 31.5,56.5C 31.7846,51.1032 31.4512,45.7698 30.5,40.5C 31.3398,39.265 32.3398,38.265 33.5,37.5C 35.0495,36.5592 36.7162,35.8925 38.5,35.5 Z"/></g>
<g><path style="opacity:1" fill="#a9bda0" d="M 38.5,35.5 C 39.1667,35.5 39.8333,35.5 40.5,35.5C 42.3681,39.7083 45.0347,43.3749 48.5,46.5C 48.0618,46.4346 47.7284,46.6012 47.5,47C 51.6655,51.1638 56.3322,51.6638 61.5,48.5C 61.631,49.2389 61.4643,49.9056 61,50.5C 56.5946,54.0832 52.4279,57.7499 48.5,61.5C 49.4124,60.2618 49.5791,58.9285 49,57.5C 46.973,55.473 44.973,53.473 43,51.5C 42.1554,48.8697 42.6554,46.5364 44.5,44.5C 41.7349,41.9583 39.7349,38.9583 38.5,35.5 Z"/></g>
<g><path style="opacity:1" fill="#dce4d8" d="M 61.5,45.5 C 62.1667,45.5 62.8333,45.5 63.5,45.5C 63.5,45.8333 63.5,46.1667 63.5,46.5C 62.8333,47.1667 62.1667,47.8333 61.5,48.5C 56.3322,51.6638 51.6655,51.1638 47.5,47C 47.7284,46.6012 48.0618,46.4346 48.5,46.5C 51.9788,48.6896 55.6454,49.023 59.5,47.5C 60.5,47.1667 61.1667,46.5 61.5,45.5 Z"/></g>
</svg>
