<?xml version="1.0" standalone="no"?>
<!DOCTYPE svg PUBLIC "-//W3C//DTD SVG 20010904//EN"
 "http://www.w3.org/TR/2001/REC-SVG-20010904/DTD/svg10.dtd">

<svg width="71" height="71" viewBox="0 0 71 71" fill="none" xmlns="http://www.w3.org/2000/svg">
<path d="M35.3359 70.0895C34.624 70.0895 33.9121 70.0571 33.2002 70.0248H33.006L33.2973 65.0415H33.4914C34.5269 65.1062 35.6271 65.1062 36.695 65.0739L37.2451 65.0415L37.5363 70.0248L36.9538 70.0571C36.4037 70.0571 35.8536 70.0895 35.3359 70.0895ZM33.4267 69.6365C34.5593 69.7012 35.7242 69.7012 36.9215 69.6688H37.1156L36.8891 65.4622H36.7273C35.6918 65.4945 34.6887 65.4945 33.6856 65.4622L33.4267 69.6365Z" fill="white"/>
<path d="M13.8173 13.7847L10.549 10.5488C11.5198 9.57808 12.5553 8.67203 13.6231 7.79834L16.4707 11.4225C15.5323 12.1668 14.6262 12.9758 13.8173 13.7847Z" fill="white"/>
<path d="M13.8172 14.076L10.2578 10.5489L10.3872 10.4195C11.358 9.44873 12.3934 8.51032 13.4613 7.66899L13.6231 7.53955L16.7295 11.455L16.5677 11.5844C15.6293 12.3287 14.7556 13.1053 13.9143 13.9466L13.8172 14.076ZM10.8079 10.5489L13.8172 13.5259C14.5615 12.7817 15.3705 12.0698 16.2118 11.3903L13.5907 8.08965C12.62 8.83391 11.6815 9.67524 10.8079 10.5489Z" fill="white"/>
<path d="M19.4153 9.35172L16.9884 5.43629C18.1533 4.7244 19.383 4.04486 20.6126 3.4624L22.5865 7.6367C21.4539 8.15444 20.4184 8.7369 19.4153 9.35172Z" fill="white"/>
<path d="M19.3506 9.61067L16.6972 5.37166L16.859 5.27458C18.0239 4.53033 19.2536 3.88315 20.4832 3.30069L20.645 3.20361L22.7807 7.73386L22.6189 7.83093C21.551 8.31632 20.5156 8.89878 19.5124 9.5136L19.3506 9.61067ZM17.2149 5.50109L19.4477 9.09293C20.3538 8.54283 21.2922 8.02509 22.2629 7.57206L20.4508 3.75371C19.383 4.27146 18.2828 4.85392 17.2149 5.50109Z" fill="white"/>
<path d="M25.693 6.40713L24.1721 2.03868C25.4665 1.58565 26.7932 1.22971 28.1199 0.938477L29.0907 5.43636C27.9581 5.69523 26.7932 6.01882 25.693 6.40713Z" fill="white"/>
<path d="M25.5635 6.66582L23.9456 1.94142L24.1397 1.8767C25.4341 1.42368 26.7931 1.06773 28.1199 0.7765L28.314 0.744141L29.3819 5.63033L29.1877 5.66269C28.0228 5.92156 26.8902 6.24515 25.79 6.63346L25.5635 6.66582ZM24.4309 2.16793L25.8224 6.18043C26.8255 5.82449 27.861 5.53326 28.8965 5.30674L27.9904 1.16481C26.7931 1.42368 25.5959 1.77962 24.4309 2.16793Z" fill="white"/>
<path d="M23.266 62.9059L21.4216 67.1449C20.1596 66.5948 18.9299 65.98 17.765 65.3005L20.0949 61.3203C21.098 61.8704 22.1658 62.4205 23.266 62.9059Z" fill="white"/>
<path d="M21.5187 67.3713L21.3569 67.3066C20.0949 66.7565 18.8652 66.1416 17.668 65.4297L17.5062 65.3327L20.0302 60.9966L20.192 61.0937C21.1951 61.6761 22.2629 62.2262 23.3631 62.7116L23.5249 62.7763L21.5187 67.3713ZM18.0239 65.2032C19.0918 65.8181 20.192 66.3682 21.3245 66.8859L23.0072 63.0028C22.0364 62.5822 21.0656 62.0968 20.1596 61.5467L18.0239 65.2032Z" fill="white"/>
<path d="M29.9967 64.9121L29.1877 69.4424C27.8287 69.2159 26.5019 68.8599 25.1752 68.4716L26.5343 64.0708C27.6669 64.3944 28.8318 64.6856 29.9967 64.9121Z" fill="white"/>
<path d="M29.3495 69.669L29.1553 69.6366C27.7963 69.3777 26.4372 69.0541 25.1428 68.6658L24.9487 68.6011L26.4048 63.812L26.599 63.8767C27.7315 64.2327 28.8965 64.4915 30.0614 64.7181L30.2555 64.7504L29.3495 69.669ZM25.4341 68.3422C26.6313 68.6982 27.8286 68.9894 29.0259 69.2159L29.7701 65.0416C28.7347 64.8475 27.6668 64.5886 26.6637 64.2974L25.4341 68.3422Z" fill="white"/>
<path d="M17.0855 59.3137L14.335 63.0026C13.2348 62.1937 12.1669 61.2876 11.1962 60.3492L14.3673 56.9839C15.2087 57.8252 16.1147 58.6018 17.0855 59.3137Z" fill="white"/>
<path d="M14.3674 63.2938L14.2056 63.1644C13.1054 62.3554 12.0375 61.4494 11.0344 60.511L10.905 60.3815L14.335 56.7573L14.4644 56.8868C15.3058 57.6957 16.2442 58.4723 17.1826 59.1519L17.3444 59.2813L14.3674 63.2938ZM11.4551 60.3492C12.3611 61.1905 13.2995 61.9995 14.3027 62.7437L16.8266 59.346C15.9853 58.6989 15.144 58.0193 14.3674 57.2751L11.4551 60.3492Z" fill="white"/>
<path d="M32.9413 4.91881L32.5854 0.32385C32.9737 0.291491 33.3944 0.259132 33.7827 0.259132C34.7534 0.226774 35.7242 0.226774 36.695 0.259132L36.5332 4.85409C35.6918 4.82174 34.8505 4.82174 34.0092 4.85409C33.6532 4.85409 33.2973 4.88645 32.9413 4.91881Z" fill="white"/>
<path d="M32.7796 5.11278L32.3589 0.129514H32.553C32.9413 0.0971554 33.362 0.0647965 33.7827 0.0647965C34.7858 0.0324376 35.7566 0.0324376 36.695 0.0647965H36.8891L36.695 5.04807H36.5008C35.6595 5.01571 34.8182 5.01571 34.0092 5.04807C33.6532 5.04807 33.2973 5.08042 32.9737 5.11278H32.7796ZM32.7796 0.485462L33.1031 4.69212C33.3944 4.65976 33.6856 4.65976 33.9768 4.6274C34.7534 4.59504 35.5301 4.59504 36.3067 4.6274L36.4685 0.388385C35.5948 0.356027 34.6887 0.356027 33.7827 0.420744C33.4591 0.420744 33.1355 0.453103 32.7796 0.485462Z" fill="white"/>
<path d="M60.8347 18.38H61.3848C63.6499 18.38 65.4944 18.8007 66.8535 19.6097C61.1583 8.12226 49.2826 0.194336 35.6271 0.194336V4.82166C46.1438 4.82166 55.4308 10.2256 60.8347 18.38Z" fill="white"/>
<path d="M67.3388 20.1272L66.7887 19.8036C65.4297 18.9947 63.6176 18.6064 61.4172 18.6064H60.77L60.7053 18.5093C55.1072 10.0636 45.7555 5.01563 35.6595 5.01563H35.4653V0H35.6595C49.0561 0 61.0936 7.4749 67.08 19.5448L67.3388 20.1272ZM60.9318 18.1857H61.3848C63.3911 18.1857 65.0737 18.5093 66.4328 19.1565C60.4788 7.60434 48.7972 0.453024 35.8213 0.388307V4.62732C45.9173 4.69204 55.3013 9.74003 60.9318 18.1857Z" fill="white"/>
<path d="M69.9923 29.3496V32.7473C69.9923 36.4362 68.4714 38.7984 65.462 39.8339C63.1646 54.2659 50.6417 65.3003 35.5948 65.3003V69.8953C54.816 69.8953 70.4453 54.2659 70.4453 35.0448C70.4777 33.1032 70.3159 31.1941 69.9923 29.3496Z" fill="white"/>
<path d="M35.6271 70.0896H35.433V65.1063H35.6271C42.8108 65.1063 49.768 62.5176 55.2043 57.8256C60.6082 53.1659 64.1677 46.7912 65.2679 39.8017L65.3002 39.6722L65.3973 39.6399C68.3096 38.6367 69.7981 36.3069 69.7981 32.7474V29.3497L70.1864 29.3174C70.51 31.2266 70.6718 33.1681 70.6718 35.0449C70.6718 54.3632 54.9454 70.0896 35.6271 70.0896ZM35.8213 65.4623V69.7013C54.8483 69.6042 70.2835 54.1043 70.2835 35.0449C70.2835 34.2359 70.2511 33.3946 70.1864 32.5533V32.7151C70.1864 36.4363 68.6656 38.8633 65.6562 39.9635C64.5236 46.9853 60.8994 53.4248 55.4631 58.1168C49.9945 62.8088 43.0373 65.4299 35.8213 65.4623Z" fill="white"/>
<path d="M61.223 20.2241H37.7952H37.0509L23.0719 38.1833L9.31936 20.2241H3.33297C1.19728 24.7544 0 29.77 0 35.1092C0 40.4161 1.19728 45.4641 3.33297 49.9619H9.287C6.79537 45.5611 5.37158 40.5131 5.37158 35.1092C5.37158 31.8733 5.88932 28.7669 6.82773 25.8546C8.12208 27.8285 10.1607 30.8055 10.6461 31.485L21.8423 46.4348H23.0072H24.2045L35.4006 31.485C36.0802 30.5466 36.7273 29.5758 37.1804 28.4109C37.0509 29.6082 37.0186 30.6113 37.0186 31.5821V49.9943H42.6167V38.3775H61.1583C65.7209 38.3775 67.8566 36.7595 67.8566 32.6176V25.984C67.9213 21.8421 65.7856 20.2241 61.223 20.2241ZM61.223 30.9026C61.223 32.8764 60.2523 33.2648 58.1166 33.2648H42.6814V25.3692H58.1166C60.2523 25.3692 61.223 25.7575 61.223 27.7314V30.9026V30.9026Z" fill="white"/>
</svg>