<?xml version="1.0" encoding="UTF-8"?>
<svg width="256" height="256" viewBox="0 0 256 256" fill="none" xmlns="http://www.w3.org/2000/svg">
<rect width="256" height="256" rx="2.24561" fill="#EEECE8"/>
<path d="M58.8357 43.7891C58.3397 43.7891 57.9375 44.1912 57.9375 44.6873V155.172C57.9375 155.668 58.3397 156.07 58.8357 156.07H79.6256C80.1217 156.07 80.5239 155.668 80.5239 155.172V78.1155H84.1842L117.2 155.524C117.341 155.855 117.666 156.07 118.026 156.07H137.36C137.72 156.07 138.045 155.855 138.186 155.524L171.202 78.1155H174.862V155.172C174.862 155.668 175.264 156.07 175.76 156.07H196.55C197.046 156.07 197.449 155.668 197.449 155.172V44.6873C197.449 44.1912 197.046 43.7891 196.55 43.7891H163.841C163.481 43.7891 163.156 44.0039 163.015 44.3349L129.523 122.866H125.863L92.371 44.3349C92.2298 44.0039 91.9047 43.7891 91.5448 43.7891H58.8357Z" fill="#272525"/>
<path d="M57.9375 190.652C57.9375 190.156 58.3397 189.754 58.8357 189.754H196.55C197.046 189.754 197.449 190.156 197.449 190.652V211.312C197.449 211.808 197.046 212.21 196.55 212.21H58.8357C58.3397 212.21 57.9375 211.808 57.9375 211.312V190.652Z" fill="#F2A900"/>
</svg>
