<svg xmlns="http://www.w3.org/2000/svg" width="1100px" height="1100px" version="1.1"  fill-rule="evenodd" clip-rule="evenodd" viewBox="0 0 538.76 538.76">
  <path fill="#053EA1" d="M0 538.76l0 -538.76 337.36 0c111.04,0 201.4,90.36 201.4,201.4l0 337.36 -538.76 0 0 0zm309.49 -336.51l0 134.69 49.82 0 0 -134.69 -49.82 0zm-130.04 0l0 134.69 49.82 0 0 -134.69 -49.82 0zm260.09 237.29l-340.32 0 0 -340.32 102.18 0c26.18,0 49.82,10.14 67.98,26.18 18.16,-16.04 41.8,-26.18 67.98,-26.18 56.15,0 102.18,46.03 102.18,102.18l0 238.14 0 0 0 0z"/>
</svg>
