<?xml version="1.0" encoding="UTF-8" standalone="no"?>
<svg
   width="49.000038"
   height="48.999992"
   viewBox="0 0 49.000038 48.999992"
   fill="none"
   version="1.1"
   id="svg23"
   xmlns="http://www.w3.org/2000/svg"
   xmlns:svg="http://www.w3.org/2000/svg">
  <defs
     id="defs23" />
  <path
     d="m 48.020438,24.496594 c 0,12.9897 -10.5302,23.52 -23.52,23.52 -12.9897,0 -23.51997002,-10.5303 -23.51997002,-23.52 0,-12.9898 10.53027002,-23.52003125 23.51997002,-23.52003125 12.9898,0 23.52,10.53023125 23.52,23.52003125 z"
     fill="#ffb852"
     id="path1" />
  <path
     fill-rule="evenodd"
     clip-rule="evenodd"
     d="m 6.976428,14.820994 c -1.58801,2.8688 -2.49205,6.1688 -2.49205,9.68 0,2.4371 0.43556,4.7725 1.23308,6.9326 l 0.77799,-0.7984 c -0.65548,-1.9246 -1.01107,-3.9879 -1.01107,-6.1342 0,-3.2618 0.82122,-6.3318 2.26819,-9.0146 z m 10.87511,-8.1417103 c 2.0698,-0.77257 4.3103,-1.19491 6.6494,-1.19491 7.6334,0 14.2163,4.4975 17.2434,10.9871203 l 1.0207,-0.1734 c -3.1328,-6.9645102 -10.1321,-11.8137203 -18.2641,-11.8137203 -2.656,0 -5.1912,0.51732 -7.5104,1.4567 z m 6.6494,36.8383103 c 7.4565,0 13.9107,-4.2916 17.0273,-10.5394 l 1.2054,-0.2049 c -3.148,6.9273 -10.1278,11.7443 -18.2327,11.7443 -4.1343,0 -7.976,-1.2535 -11.1655,-3.4011 l 0.71,-0.7286 c 2.9999,1.9783 6.5933,3.1297 10.4555,3.1297 z"
     fill="#000000"
     id="path2" />
  <mask
     id="mask0_15907_23"
     maskUnits="userSpaceOnUse"
     x="1"
     y="0"
     width="48"
     height="49">
    <path
       d="m 48.872,24.5005 c 0,12.9897 -10.5302,23.52 -23.52,23.52 -12.9897,0 -23.51997,-10.5303 -23.51997,-23.52 0,-12.9898 10.53027,-23.520031 23.51997,-23.520031 12.9898,0 23.52,10.530231 23.52,23.520031 z"
       fill="#ffb852"
       id="path3" />
  </mask>
  <g
     mask="url(#mask0_15907_23)"
     id="g12"
     transform="translate(-0.85156202,-0.00390625)">
    <path
       d="m 29.9494,19.2186 c -0.3798,0.0107 -0.765,-0.1685 -1.0552,-0.3503 l -2.7339,-2.5837 c -0.2929,-0.2768 -0.3985,-0.6539 -0.4093,-1.0338 -0.0107,-0.3798 0.1685,-0.765 0.3504,-1.0552 l 0.228,-0.231 c 0.5536,-0.5858 1.4082,-0.6099 1.994,-0.0563 l 2.7339,2.5837 c 0.5858,0.5536 0.6099,1.4082 0.0563,1.994 l -0.228,0.231 c -0.1819,0.2902 -0.5564,0.4909 -0.9362,0.5016 z"
       fill="#ffb900"
       stroke="#000000"
       stroke-width="0.8"
       id="path4" />
    <path
       d="M 4.48061,46.3083 C 4.10079,46.319 3.7156,46.1398 3.42537,45.958 L 0.691541,43.3743 C 0.39863,43.0975 0.292947,42.7204 0.28222,42.3405 0.271493,41.9607 0.450677,41.5755 0.632542,41.2853 L 17.0141,24.128 c 0.5537,-0.5859 1.4083,-0.61 1.9941,-0.0564 l 2.7338,2.5837 c 0.5858,0.5536 0.61,1.4082 0.0563,1.994 L 5.41675,45.8067 c -0.18187,0.2902 -0.55632,0.4909 -0.93614,0.5016 z"
       fill="#ffb900"
       stroke="#000000"
       stroke-width="0.8"
       id="path5" />
    <path
       d="m 23.0029,25.8289 -3.4173,-3.2295 c -0.9764,-0.9228 -1.0193,-2.442 -0.0939,-3.3234 l 1.9378,-2.0504 c 0.9227,-0.9764 2.442,-1.0193 3.3234,-0.0939 l 3.4173,3.2296 c 0.9763,0.9227 1.0193,2.442 0.0938,3.3234 l -1.9377,2.0504 c -0.8278,0.9737 -2.3471,1.0166 -3.3234,0.0938 z"
       fill="#000000"
       stroke="#000000"
       stroke-width="0.8"
       id="path6" />
    <path
       d="m 32.02,38.8804 c 0.1004,0.1872 0.293,0.2768 0.4829,0.2714 0.2848,-0.008 0.3744,-0.2006 0.464,-0.3932 l 0.3316,-1.7199 C 33.9321,32.5543 33.0437,28.018 30.7498,24.1865 30.5545,24.0019 30.2643,23.8201 30.0797,24.0153 l -3.6013,3.7129 c -0.1846,0.1953 -0.2715,0.4828 -0.0762,0.6674 1.1797,1.3921 2.1721,2.8846 2.8824,4.4801 z"
       fill="#ffe3bd"
       stroke="#000000"
       stroke-width="0.8"
       id="path7" />
    <path
       d="m 16.7371,19.3548 c 0.0976,0.0923 0.2875,0.087 0.3825,0.0843 0.0949,-0.0027 0.2822,-0.103 0.2822,-0.103 0.1952,0.1845 3.6882,-4.0005 3.8728,-4.1957 0.1845,-0.1953 0.1765,-0.4802 -0.0188,-0.6647 L 14.7244,8.25001 C 14.1386,7.69637 13.284,7.7205 12.7303,8.30632 l -2.5836,2.73388 c -0.1819,0.2902 -0.36108,0.6754 -0.35036,1.0552 0.01073,0.3798 0.11641,0.7569 0.40936,1.0338 z"
       fill="#ffe3bd"
       stroke="#000000"
       stroke-width="0.8"
       id="path8" />
    <path
       d="m 36.5775,20.2265 c 2.3433,-2.3434 6.1426,-2.3431 8.486,3e-4 2.3433,2.3433 2.3433,6.1423 0,8.4856 -2.3434,2.3434 -6.1427,2.3437 -8.486,3e-4 -2.3433,-2.3433 -2.3433,-6.1429 0,-8.4862 z"
       fill="#ffe3bd"
       stroke="#000000"
       stroke-width="0.8"
       id="path9" />
    <path
       d="m 42.4902,26.5569 c 0.0477,-0.1811 0.0664,-0.365 0.0584,-0.5503 0.1486,0.0028 0.2962,-0.0136 0.4421,-0.0506 0.3304,-0.084 0.6242,-0.2674 0.8822,-0.5255 0.4183,-0.4183 0.6678,-0.8973 0.6767,-1.4321 0.007,-0.4234 -0.1378,-0.836 -0.3954,-1.2334 l 0.1672,-0.1672 c 0.2945,-0.2945 0.2945,-0.7716 0,-1.0662 -0.2004,-0.2003 -0.4852,-0.2644 -0.7395,-0.1922 0.0721,-0.2543 0.0081,-0.5392 -0.1922,-0.7395 -0.2946,-0.2945 -0.7717,-0.2945 -1.0663,0 l -0.106,0.1061 -0.2745,-0.2745 c -0.092,-0.092 -0.2181,-0.1503 -0.361,-0.15 -0.1413,-3e-4 -0.2679,0.0563 -0.3613,0.1497 l -4.4076,4.4076 c -0.0933,0.0933 -0.15,0.2199 -0.1496,0.3612 -4e-4,0.143 0.0579,0.269 0.1499,0.3611 l 0.2745,0.2745 -0.0252,0.0252 c -0.2946,0.2945 -0.2946,0.7717 0,1.0662 0.2003,0.2003 0.4851,0.2644 0.7395,0.1922 -0.0722,0.2544 -0.0081,0.5392 0.1922,0.7395 0.2945,0.2945 0.7717,0.2945 1.0662,0 l 0.0869,-0.0869 c 0.3251,0.2076 0.6691,0.3445 1.0313,0.3962 0.6492,0.0927 1.2321,-0.1448 1.7249,-0.6377 0.2876,-0.2875 0.4913,-0.6115 0.5866,-0.9734 z m -5.9127,-6.3304 c 2.3433,-2.3434 6.1426,-2.3431 8.486,3e-4 2.3433,2.3433 2.3433,6.1423 0,8.4856 -2.3434,2.3434 -6.1427,2.3437 -8.486,3e-4 -2.3433,-2.3433 -2.3433,-6.1429 0,-8.4862 z"
       fill="#ffb900"
       stroke="#000000"
       stroke-width="0.8"
       id="path10" />
    <path
       d="m 40.7239,25.0169 -0.8086,-0.8087 c -0.0217,-0.0216 -0.0433,-0.0216 -0.065,0 l -1.0825,1.0826 c -0.0216,0.0216 -0.0216,0.0433 0,0.0649 l 0.815,0.8151 c 0.1999,0.1998 0.4076,0.3053 0.6226,0.3162 0.2151,0.0108 0.412,-0.0724 0.5902,-0.2506 0.1785,-0.1786 0.2617,-0.3754 0.2509,-0.5905 -0.0108,-0.2151 -0.1183,-0.4248 -0.3226,-0.629 z"
       fill="#ffb900"
       stroke="#000000"
       stroke-width="0.8"
       id="path11" />
    <path
       d="m 41.4242,24.2214 c 0.2042,0.2042 0.4105,0.3152 0.6192,0.3324 0.209,0.0176 0.3957,-0.0561 0.561,-0.2215 0.1695,-0.1694 0.2466,-0.3595 0.2314,-0.5709 -0.0153,-0.2107 -0.1252,-0.418 -0.3294,-0.6222 l -0.763,-0.763 c -0.0216,-0.0216 -0.0433,-0.0216 -0.0649,0 l -1.0173,1.0173 c -0.0216,0.0216 -0.0216,0.0433 0,0.0649 z"
       fill="#ffb900"
       stroke="#000000"
       stroke-width="0.8"
       id="path12" />
  </g>
  <path
     fill-rule="evenodd"
     clip-rule="evenodd"
     d="m 49.000038,24.499994 c 0,13.531 -10.9691,24.5 -24.5,24.5 -13.531,0 -24.500038025717046,-10.969 -24.500038025717046,-24.5 C -2.5717053e-8,10.968994 10.969038,0 24.500038,0 c 13.5309,0 24.5,10.968994 24.5,24.499994 z m -24.5,23.52 c 12.9897,0 23.52,-10.5303 23.52,-23.52 0,-12.9897 -10.5303,-23.51999425 -23.52,-23.51999425 -12.9898,0 -23.52004002,10.53029425 -23.52004002,23.51999425 0,12.9897 10.53024002,23.52 23.52004002,23.52 z"
     fill="#000000"
     id="path13" />
  <path
     d="m 43.203138,32.828094 c 0,0.5523 -0.4477,1 -1,1 -0.5523,0 -1,-0.4477 -1,-1 0,-0.5523 0.4477,-1 1,-1 0.5523,0 1,0.4477 1,1 z"
     fill="#000000"
     id="path16" />
  <path
     d="m 43.203138,16.015594 c 0,0.5523 -0.4477,1 -1,1 -0.5523,0 -1,-0.4477 -1,-1 0,-0.5523 0.4477,-1 1,-1 0.5523,0 1,0.4477 1,1 z"
     fill="#000000"
     id="path17" />
  <path
     d="m 18.535138,6.5156237 c 0,0.55229 -0.4477,1 -1,1 -0.5523,0 -1,-0.44771 -1,-1 0,-0.55228 0.4477,-1 1,-1 0.5523,0 1,0.44772 1,1 z"
     fill="#000000"
     id="path18" />
  <path
     d="m 7.968748,15.765594 c 0,0.5523 -0.44771,1 -1,1 -0.55228,0 -1,-0.4477 -1,-1 0,-0.5523 0.44772,-1 1,-1 0.55229,0 1,0.4477 1,1 z"
     fill="#000000"
     id="path19" />
  <path
     d="m 7.003908,30.828094 c 0,0.5523 -0.44772,1 -1,1 -0.55229,0 -1,-0.4477 -1,-1 0,-0.5523 0.44771,-1 1,-1 0.55228,0 1,0.4477 1,1 z"
     fill="#000000"
     id="path20" />
  <path
     d="m 14.597638,40.515594 c 0,0.5523 -0.4477,1 -1,1 -0.5523,0 -1,-0.4477 -1,-1 0,-0.5523 0.4477,-1 1,-1 0.5523,0 1,0.4477 1,1 z"
     fill="#000000"
     id="path21" />
  <path
     fill-rule="evenodd"
     clip-rule="evenodd"
     d="m 19.983938,25.984794 c 0.1526,-0.1598 0.1467,-0.413 -0.0131,-0.5655 -0.1597,-0.1526 -0.4129,-0.1467 -0.5655,0.0131 l -4.8075,5.0351 0.5659,0.5658 z m -8.2995,7.5341 2.0707,-2.1688 0.5659,0.5658 -2.0708,2.1688 z m -0.2769,1.4484 -0.5658,-0.5658 -1.2942,1.3555 0.5658,0.5658 z m -2.1369,2.2381 -0.56581,-0.5658 -0.62538,0.655 c -0.15256,0.1598 -0.1467,0.413 0.01308,0.5655 0.15978,0.1526 0.41297,0.1467 0.56553,-0.0131 z"
     fill="#000000"
     id="path22" />
  <path
     d="m 8.086768,40.333994 c -0.82704,0.0479 -1.45863,0.7572 -1.41071,1.5843 0.04793,0.827 0.75723,1.4586 1.58427,1.4107 0.82704,-0.048 1.45861,-0.7573 1.41071,-1.5843 -0.0479,-0.827 -0.75723,-1.4586 -1.58427,-1.4107 z"
     fill="#ffb900"
     stroke="#000000"
     stroke-width="0.8"
     id="path23" />
</svg>
