<?xml version="1.0" encoding="UTF-8" standalone="no"?>
<svg
   width="400"
   height="400"
   viewBox="0 0 105.833 105.833"
   version="1.1"
   xmlns:xlink="http://www.w3.org/1999/xlink"
   xmlns="http://www.w3.org/2000/svg"
   xmlns:svg="http://www.w3.org/2000/svg">
  <defs>
    <linearGradient
       id="B"
       x1="-1.336"
       y1="106.769"
       x2="107.977"
       y2="-2.01"
       gradientUnits="userSpaceOnUse">
      <stop
         offset="0"
         stop-color="#9200d1" />
      <stop
         offset="1"
         stop-color="#040308" />
    </linearGradient>
    <path
       id="C"
       d="m 97.543,67.914 c 6.836,-5.259 13.744,-0.95 11.76,7.083 -3.595,11.403 -37.471,43.387 -55.859,40.09 -7.48,-3.118 -3.584,-9.598 -3.608,-13.363 z" />
    <path
       id="D"
       d="m 67.146,24.813 1.457,2.213 C 64.777,35.177 67.496,38.796 67.87,44.039 76.1,59.586 49.795,85.17 41.337,88.861 18.289,98.92 6.628,65.63 11.053,39.794 12.673,30.337 24.904,6.163 67.146,24.813 Z" />
    <clipPath
       clipPathUnits="userSpaceOnUse"
       id="clipPath2007">
      <circle
         style="fill:none;stroke:#d2d2d2;stroke-width:0.847709"
         cx="52.9165"
         cy="52.9165"
         r="52.492645" />
    </clipPath>
  </defs>
  <path
     d="M -2.138,-1.876 H 108.244 V 107.972 H -2.138 Z"
     fill="url(#B)"
     clip-path="url(#clipPath2007)"
     style="fill:url(#B)"
     transform="translate(0.42385455,-0.42385501)" />
  <use
     xlink:href="#D"
     fill="#a7a7a7"
     transform="matrix(0.91381607,0,0,0.91381607,5.4078264,3.7961222)" />
  <use
     xlink:href="#C"
     fill="#22676d"
     transform="matrix(0.91381607,0,0,0.91381607,5.2122698,3.8929867)" />
  <use
     xlink:href="#C"
     x="-5.8699999"
     y="-6.848"
     fill="#bae5e9"
     transform="matrix(0.91381607,0,0,0.91381607,5.2122698,3.8929867)" />
  <g
     transform="matrix(0.76144821,0.19638913,-0.19638913,0.76144821,11.773466,3.7104913)">
    <path
       d="m 35.095,56.217 c -6.897,2.534 -14.54,-2.389 -17.231,-4.852 1.232,-3.402 4.605,-5.926 8.723,-7.237 1.667,-0.531 3.456,-0.862 5.275,-0.973 9.172,1.09 10.688,11.787 3.234,13.062 z"
       fill="#deaa87" />
    <path
       d="m 30.309,23.863 c -7.896,9.706 -12.702,16.83 -7.27,28.958 4.306,9.614 -0.285,11.722 5.684,18.251 5.451,5.552 10.178,5.893 13.988,13.595 11.299,14.269 22.41,3.338 26.08,-5.859 C 81.867,56.072 88.323,34.99 70.681,21.167 55.19,12.329 46.139,12.585 30.308,23.863 Z"
       fill="#784421" />
    <path
       d="m 77.833,50.324 c 6.477,-6.036 5.342,-16.933 4.158,-21.167 -6.08,-0.74 -12.596,4.007 -16.442,10.583 -3.818,10.455 6.858,17.904 12.284,10.583 z m -39.09,-0.809 c 1.456,-4.067 6.299,-7.993 12.284,-6.993 15.426,4.293 4.804,19.41 -2.977,18.474 18.639,3.574 22.325,26.346 6.174,27.178 C 41.506,88.517 45.642,78.855 37.815,76.147 32.218,74.21 35.759,62.478 35.152,63.878 c -6.589,8.76 -12.047,-0.849 -11.528,-9.922 1.775,-2.871 4.82,-3.699 8.882,-1.039 4.79,2.255 5.347,-0.782 6.237,-3.402 z"
       fill="#deaa87" />
    <path
       d="m 60.073,75.352 c -5.07,-5.325 -4.322,-6.425 -6.725,-8.867 -1.507,-1.603 -6.296,-3.855 -11.279,-2.636 -1.699,0.415 -4.449,1.386 -6.199,3.3 -1.683,1.841 -1.026,7.464 2.778,9.202 3.896,1.781 4.088,2.792 5.889,6.981 3.63,8.44 20.554,1.587 15.536,-7.98 z"
       fill="#502d16" />
    <path
       d="m 38.957,52.607 c 1.042,-2.641 2.729,-4.765 10.224,-5.171 7.241,0.815 8.551,5.869 4.817,8.574 -3.148,3.346 -6.333,3.394 -8.936,2.931 -3.51,-0.18 -6.926,-0.203 -8.447,2.894 -5.221,5.911 -10.283,0.054 -10.312,-5.662 1.651,-1.605 3.813,-2.438 7.455,-1.033 4.248,1.104 4.568,-0.834 5.198,-2.532 z"
       fill="#e9c6af" />
    <path
       d="M 42.473,76.398 C 41.477,75.823 42.22,73.699 43.517,73.4 47.746,72.424 56.114,72.874 56.705,74.227 58.16,77.801 52.529,82.984 46.449,82.88 44.075,83.139 45.379,78 42.473,76.399 Z"
       fill="#28170b" />
    <path
       d="m 46.929,76.247 c 0.615,-1.755 8.221,-2.283 7.216,4.076 -0.212,1.375 3.358,1.465 4.41,3.341 1.056,4.793 -3.659,4.369 -6.949,2.773 -4.203,-2.192 -5.874,-5.476 -4.677,-10.19 z"
       fill="#da789c" />
    <path
       d="m 40.867,57.274 c 1.612,-2.043 0.701,-3.848 2.828,-5.021 2.852,-1.245 3.874,0.029 6.461,-0.488 -1.801,1.927 -1.088,3.183 -3.148,4.379 -2.486,1.343 -2.405,0.481 -6.141,1.129 z m -4.341,2.049 c -2.299,-0.611 -2.053,-2.431 -4.251,-2.123 -2.769,0.652 -2.384,2.077 -4.56,3.117 2.373,0.423 2.105,1.799 4.268,1.545 2.555,-0.38 1.455,-0.965 4.543,-2.539 z"
       fill="#28170b" />
    <path
       d="m 44.578,52.357 0.175,1.002 1.721,-0.919 z m -12.969,5.68 0.803,0.561 0.75,-0.484 z"
       fill="#f4e3d7" />
    <path
       d="m 76.762,47.728 c 4.556,-4.246 3.758,-11.911 2.925,-14.89 -4.277,-0.52 -8.861,2.819 -11.566,7.445 -2.686,7.354 4.825,12.595 8.641,7.445 z"
       fill="#e9c6af" />
  </g>
  <path
     d="M 32.0876,87.82151 C 45.020839,88.933624 74.256557,62.72081 67.428523,44.039668 64.474156,35.956051 66.540294,31.492974 68.013365,28.470984 68.430066,27.616566 67.377349,27.204435 66.581416,26.597661 63.54846,24.285706 37.331991,14.831365 25.052131,25.117279 24.6665,25.439856 19.974968,30.356187 19.947554,30.027213 19.759308,27.76369 19.162586,24.736218 20.335012,23.521756 32.128722,11.30769 47.57861,10.778591 55.769144,10.965923 79.974304,11.519696 82.387692,24.353329 84.135822,24.271085 97.952721,35.535696 101.0003,47.460082 92.252337,60.106383 78.570682,82.678553 66.478154,87.954927 54.345418,95.251749 44.685469,99.137294 28.274246,98.27648 25.294292,82.587172 c 3.090526,2.80907 2.876693,4.485923 6.793308,5.234338 z"
     fill="#bae5e9"
     style="stroke-width:0.913816" />
  <path
     d="m 42.690608,93.488084 c 1.901652,-0.424925 2.463648,-0.357303 3.447828,-0.04935 4.21452,1.322292 5.121939,0.805986 6.721118,0.04112 7.64864,-4.271176 14.152269,-10.013596 20.196248,-16.348169 l 0.249472,-11.47022 c -0.06397,-0.792278 -0.0064,-1.532469 0.33994,-2.152036 L 83.099555,47.068055 C 84.630197,41.960737 86.92022,34.276458 86.518141,28.783509 86.350912,26.495314 85.145589,26.728337 84.135822,24.271999 97.952721,35.53661 101.0003,47.460996 92.252337,60.107296 78.570682,82.678553 66.478154,87.954927 54.345418,95.251749 c -9.659949,3.885545 -19.076824,1.297618 -22.316302,-1.092924 4.400938,0.381975 6.500888,0.413044 10.661492,-0.670741 z"
     fill="#22676d"
     style="stroke-width:0.913816" />
  <ellipse
     cx="55.058643"
     cy="75.862694"
     rx="6.6196847"
     ry="10.306013"
     transform="matrix(0.88495586,-0.46567492,0.4892522,0.87214235,0,0)"
     fill="#133a3e"
     style="stroke-width:0.913816" />
  <path
     d="m 39.944591,25.038691 c 8.022391,-2.353076 14.264669,-0.629619 19.904742,3.053059 l 1.343309,4.152381 C 52.818432,28.36224 45.360779,26.488003 37.13552,28.703093 Z"
     opacity="0.753"
     fill="#ffffff"
     style="stroke-width:0.913816" />
  <use
     xlink:href="#D"
     fill="url(#A)"
     stroke="#000000"
     stroke-width="0.812"
     style="fill:none"
     transform="matrix(0.91381607,0,0,0.91381607,5.2223218,3.9231426)" />
</svg>
