<?xml version="1.0" standalone="yes"?>
<svg width="193" height="193" viewBox="0 0 193 193" fill="none" xmlns="http://www.w3.org/2000/svg">
    <rect width="193" height="193" rx="25" fill="#191919"/>
    <path d="M151.069 54.9047L143.939 81.5477L136.222 110.452L129.091 137.095L122.187 162.879C115.643 164.914 108.738 166 101.518 166C98.1781 166 94.8837 165.774 91.6796 165.321L99.2161 137.095L106.346 110.452L114.063 81.5477L117.177 69.8772C121.149 55.0404 98.494 54.9047 98.494 54.9047H91.2283L84.0979 81.5477L76.3809 110.452L69.2506 137.095L64.3767 155.325C54.7643 149.263 46.6862 140.895 41 131.034L46.5057 110.452L54.2227 81.5477L61.3531 54.9047L66.588 35.3635C76.8773 29.4378 88.8364 26 101.563 26C110.769 26 119.569 27.7641 127.602 31.021L121.194 54.9047H151.069Z" fill="#189CD8"/>
</svg>
