<?xml version="1.0" encoding="UTF-8" standalone="no"?>
<svg
   enable-background="new 0 0 1024 1024"
   version="1.1"
   viewBox="0 0 1024 1024"
   xml:space="preserve"
   id="svg297"
   sodipodi:docname="noderunners.svg"
   inkscape:export-filename="noderunners-pool.light.svg"
   inkscape:export-xdpi="96"
   inkscape:export-ydpi="96"
   inkscape:version="1.4.3 (0d15f75, 2025-12-25)"
   xmlns:inkscape="http://www.inkscape.org/namespaces/inkscape"
   xmlns:sodipodi="http://sodipodi.sourceforge.net/DTD/sodipodi-0.dtd"
   xmlns="http://www.w3.org/2000/svg"
   xmlns:svg="http://www.w3.org/2000/svg"><defs
     id="defs297"><style
       id="style1">.cls-1{fill:#fff;}</style></defs><sodipodi:namedview
     id="namedview297"
     pagecolor="#ffffff"
     bordercolor="#000000"
     borderopacity="0.25"
     inkscape:showpageshadow="2"
     inkscape:pageopacity="0.0"
     inkscape:pagecheckerboard="0"
     inkscape:deskcolor="#d1d1d1"
     inkscape:zoom="0.72851562"
     inkscape:cx="512"
     inkscape:cy="512"
     inkscape:window-width="1920"
     inkscape:window-height="1027"
     inkscape:window-x="0"
     inkscape:window-y="25"
     inkscape:window-maximized="1"
     inkscape:current-layer="svg297" /><g
     id="g298"
     transform="matrix(12.564028,0,0,12.564028,-69.61519,-70.16255)"
     style="fill:#ffffff"><path
       class="cls-1"
       d="M 77.51,34.72 A 4.69,4.69 0 0 1 71.07,34 h -9.35 a 1.11,1.11 0 0 0 -1.1,1.11 V 61.66 A 2.43,2.43 0 0 1 58.2,64.08 H 54.75 L 41.21,44.41 a 51.78,51.78 0 0 1 -3,-5 h -0.1 c 0,0 0.35,3 0.35,5 v 16.26 a 3.41,3.41 0 0 1 -3.41,3.41 h -13 a 4.74,4.74 0 0 1 -2.81,1.67 33.29,33.29 0 0 0 58.23,-31 z"
       id="path1-3"
       style="fill:#ffffff" /><path
       class="cls-1"
       d="m 18.42,56.41 a 4.71,4.71 0 0 1 3.93,2.1 h 0.87 c 0.62,0 8.71,-0.49 8.71,-1.1 V 30.89 a 2.42,2.42 0 0 1 2.42,-2.42 h 3.5 l 13.49,19.71 c 1.4,2 3,5 3,5 h 0.1 c 0,0 -0.35,-3 -0.35,-5 v -16.3 c 0,-2.36 1,-3.41 3.41,-3.41 h 13.17 a 4.65,4.65 0 0 1 2.41,-1.93 33.3,33.3 0 0 0 -58,31.3 4.72,4.72 0 0 1 3.34,-1.43 z"
       id="path2-8"
       style="fill:#ffffff" /></g></svg>
