<svg width="40" height="41" viewBox="0 0 40 41" fill="none" xmlns="http://www.w3.org/2000/svg">
<g clip-path="url(#clip0_1015_292)">
<path d="M20.5658 35.1236L21.8734 23.8022C21.89 23.658 21.7782 23.5302 21.6293 23.5261C21.5217 23.5261 21.4306 23.592 21.3934 23.6909L17.2926 35.3214C16.9863 36.1865 16.0925 36.6974 15.1904 36.512C13.8249 36.236 12.3931 35.7581 10.9199 35.0041C11.9338 38.1888 14.9256 40.4959 18.4595 40.4959C21.9934 40.4959 24.9852 38.1888 25.9991 35.0041C25.9991 35.0041 24.4721 35.9023 22.0265 36.4379C21.2155 36.615 20.4706 35.9393 20.5658 35.1195V35.1236Z" fill="#72bbff"/>
<path d="M6.37269 31.5475C5.81405 30.9378 6.02923 29.9572 6.79064 29.6276L17.2931 25.0957C17.4296 25.0381 17.4834 24.8774 17.4089 24.7497C17.3551 24.659 17.2517 24.6096 17.1482 24.6302L4.9823 26.9085C4.0802 27.0774 3.18223 26.5583 2.89257 25.6931C2.45393 24.3789 2.15185 22.904 2.06909 21.2601C-0.194436 23.7279 -0.703419 27.4606 1.06354 30.5052C2.8305 33.5539 6.33131 34.9794 9.60867 34.2584C9.60867 34.2584 8.06516 33.3891 6.37269 31.5516V31.5475Z" fill="#72bbff"/>
<path d="M2.80567 15.6035C3.05395 14.8166 4.01399 14.5117 4.68022 15.002L13.875 21.7916C13.9909 21.8781 14.1605 21.8452 14.235 21.7216C14.2888 21.6309 14.2806 21.5156 14.2102 21.4373L6.14923 12.081C5.54921 11.3848 5.55335 10.3548 6.16165 9.67088C7.08444 8.63267 8.21827 7.63565 9.60866 6.74164C6.33131 6.02478 2.8305 7.45026 1.06354 10.4949C-0.703419 13.5436 -0.194436 17.2762 2.06909 19.7399C2.06909 19.7399 2.05254 17.9766 2.80567 15.5953V15.6035Z" fill="#72bbff"/>
<path d="M16.3493 5.87233L15.0417 17.1938C15.0251 17.338 15.1369 17.4657 15.2858 17.4657C15.3934 17.4657 15.4845 17.3998 15.5217 17.3009L19.6267 5.67046C19.9329 4.80528 20.8267 4.29442 21.7288 4.47981C23.0944 4.75996 24.5261 5.23375 25.9993 5.98769C24.9813 2.80714 21.9895 0.5 18.4556 0.5C14.9217 0.5 11.9298 2.80714 10.916 5.99181C10.916 5.99181 12.443 5.09368 14.8886 4.55809C15.6996 4.38093 16.4445 5.0566 16.3493 5.87645V5.87233Z" fill="#72bbff"/>
<path d="M27.3076 6.74577C27.3076 6.74577 28.8511 7.61507 30.5435 9.45254C31.1022 10.0623 30.887 11.0428 30.1256 11.3683L19.6231 15.9002C19.4866 15.9578 19.4328 16.1185 19.5073 16.2462C19.5611 16.3369 19.6645 16.3863 19.768 16.3657L31.9339 14.0874C32.836 13.9185 33.7298 14.4376 34.0237 15.3028C34.4623 16.617 34.7644 18.0961 34.8471 19.7358C37.1107 17.268 37.6196 13.5353 35.8527 10.4907C34.0857 7.44203 30.5849 6.01655 27.3076 6.73753V6.74577Z" fill="#72bbff"/>
<path d="M34.1098 25.3964C33.8616 26.1833 32.9015 26.4882 32.2353 25.9979L23.0405 19.2084C22.9246 19.1218 22.755 19.1548 22.6805 19.2784C22.6267 19.369 22.635 19.4844 22.7053 19.5627L30.7704 28.9148C31.3704 29.6111 31.3663 30.6411 30.7539 31.325C29.8311 32.3632 28.6972 33.3602 27.3068 34.2542C30.5842 34.9711 34.085 33.5456 35.852 30.501C37.6189 27.4564 37.1099 23.7196 34.8464 21.256C34.8464 21.256 34.863 23.0193 34.1098 25.4006V25.3964Z" fill="#72bbff"/>
</g>
<defs>
<clipPath id="clip0_1015_292">
<rect width="40" height="40" fill="#72bbff" transform="translate(0 0.5)"/>
</clipPath>
</defs>
</svg>
