<?xml version="1.0" encoding="UTF-8"?>
<svg width="80px" height="80px" viewBox="0 0 80 80" version="1.1" xmlns="http://www.w3.org/2000/svg" xmlns:xlink="http://www.w3.org/1999/xlink">
    <title>Okex</title>
    <g id="页面-1" stroke="none" stroke-width="1" fill="none" fill-rule="evenodd">
        <g id="画板" transform="translate(-185.000000, -2466.000000)" fill-rule="nonzero">
            <g id="Okex" transform="translate(185.000000, 2466.000000)">
                <g id="OKEx" transform="translate(-0.000000, 0.000000)">
                    <path d="M34.445784,34.6732959 C36.1824298,35.2766107 38.0039335,35.6000553 39.8421221,35.6315241 C41.5627548,35.5756809 43.2642161,35.2524032 44.8854286,34.6732959 C46.5782145,29.1336884 50.9024218,24.7905981 56.4346007,23.0736907 C56.9702206,21.4447329 57.2592043,19.7448284 57.2919629,18.0303841 C57.4423505,11.018882 53.4276728,4.5834119 47.0642277,1.63547284 C40.7007826,-1.31246622 33.1957524,-0.213633102 27.9445205,4.43484431 C22.6932886,9.08332173 20.6920442,16.3996004 22.8461788,23.0736907 C28.3836623,24.799604 32.7198707,29.1358124 34.445784,34.6732959 Z" id="路径" fill="#88BDF3"></path>
                    <path d="M45.188027,45.3651059 C43.465067,44.7825419 41.6608075,44.4761582 39.8421221,44.4573107 C37.9687656,44.4640997 36.1100859,44.7880897 34.3449179,45.4155389 C32.5899368,50.7059946 28.4392329,54.8566985 23.1487772,56.6116795 C20.6396948,63.9128513 23.1664928,71.9974696 29.3867357,76.5703441 C35.6069786,81.1432186 44.0772655,81.1432186 50.2975084,76.5703441 C56.5177513,71.9974696 59.0445493,63.9128513 56.5354669,56.6116795 C51.1714337,54.8943005 46.9532298,50.7135918 45.188027,45.3651059 L45.188027,45.3651059 Z" id="路径" fill="#2378F7"></path>
                    <path d="M34.3449179,45.4155389 C34.9648619,43.5788137 35.2883226,41.6550736 35.3031461,39.7166025 C35.2609397,38.0030597 34.9721888,36.3045249 34.445784,34.6732959 C29.0090425,32.9115411 24.7616977,28.6266091 23.0479111,23.1745569 C21.3086895,22.5875632 19.487124,22.2811316 17.6515731,22.2667617 C7.90287845,22.2667617 0,30.1696401 0,39.9183347 C0,49.6670294 7.90287845,57.5699078 17.6515731,57.5699078 C19.5227153,57.5389425 21.377513,57.2156292 23.1487772,56.6116795 C24.9037583,51.3212239 29.0544622,47.17052 34.3449179,45.4155389 L34.3449179,45.4155389 Z" id="路径" fill="#205FEC"></path>
                    <path d="M34.445784,34.6732959 C32.7319974,29.2212436 28.4846526,24.9363117 23.0479111,23.1745569 C24.7616977,28.6266091 29.0090425,32.9115411 34.445784,34.6732959 L34.445784,34.6732959 Z" id="路径" fill="#003AF2"></path>
                    <path d="M34.445784,34.6732959 C32.7319974,29.2212436 28.4846526,24.9363117 23.0479111,23.1745569 C24.7616977,28.6266091 29.0090425,32.9115411 34.445784,34.6732959 L34.445784,34.6732959 Z" id="路径" fill="#114FF2"></path>
                    <path d="M34.3449179,45.4155389 C29.0544622,47.17052 24.9037583,51.3212239 23.1487772,56.6116795 C28.4392329,54.8566985 32.5899368,50.7059946 34.3449179,45.4155389 L34.3449179,45.4155389 Z" id="路径" fill="#003AF2"></path>
                    <path d="M34.3449179,45.4155389 C29.0544622,47.17052 24.9037583,51.3212239 23.1487772,56.6116795 C28.4392329,54.8566985 32.5899368,50.7059946 34.3449179,45.4155389 L34.3449179,45.4155389 Z" id="路径" fill="#082EED"></path>
                    <path d="M61.8813718,22.2667617 C60.1681646,22.3124157 58.4701169,22.6010838 56.8380653,23.1241238 C55.0527918,28.7409333 50.5602072,33.0818694 44.8854286,34.6732959 C44.3583393,36.3043571 44.0695714,38.0029919 44.0280665,39.7166025 C44.0593037,41.5712629 44.3826812,43.409409 44.9862948,45.1633736 C50.3707156,46.8763496 54.5967916,51.0836431 56.3337346,56.4603804 C58.0626797,57.0188762 59.8632495,57.3246333 61.6796396,57.3681755 C71.4283342,57.3681755 79.3312126,49.4652971 79.3312126,39.7166025 C79.3312126,29.9679079 71.4283342,22.0650294 61.6796396,22.0650294 L61.8813718,22.2667617 Z" id="路径" fill="#5895F0"></path>
                    <path d="M44.8854286,34.6732959 C50.4176076,32.9563885 54.7418149,28.6132982 56.4346007,23.0736907 C50.9024218,24.7905981 46.5782145,29.1336884 44.8854286,34.6732959 Z" id="路径" fill="#003AF2"></path>
                    <path d="M44.8854286,34.6732959 C50.4176076,32.9563885 54.7418149,28.6132982 56.4346007,23.0736907 C50.9024218,24.7905981 46.5782145,29.1336884 44.8854286,34.6732959 Z" id="路径" fill="#3375F9"></path>
                    <path d="M45.188027,45.3651059 C46.9395566,50.7328843 51.1599398,54.9345102 56.5354669,56.6621126 C54.7985239,51.2853753 50.5724479,47.0780819 45.188027,45.3651059 L45.188027,45.3651059 Z" id="路径" fill="#003AF2"></path>
                    <path d="M45.188027,45.3651059 C46.9395566,50.7328843 51.1599398,54.9345102 56.5354669,56.6621126 C54.7985239,51.2853753 50.5724479,47.0780819 45.188027,45.3651059 L45.188027,45.3651059 Z" id="路径" fill="#104FF9"></path>
                </g>
            </g>
        </g>
    </g>
</svg>