<?xml version="1.0" encoding="UTF-8"?>
<svg width="80px" height="80px" viewBox="0 0 80 80" version="1.1" xmlns="http://www.w3.org/2000/svg" xmlns:xlink="http://www.w3.org/1999/xlink">
    <title>okkong icon</title>
    <defs>
        <polygon id="path-1" points="0 0 79.9982857 0 79.9982857 36.6628571 0 36.6628571"></polygon>
        <polygon id="path-3" points="0 0 80 0 80 16.6685714 0 16.6685714"></polygon>
        <polygon id="path-5" points="0 0 80 0 80 16.6685714 0 16.6685714"></polygon>
        <polygon id="path-7" points="0 1.01506105e-14 79.9977143 1.01506105e-14 79.9977143 35.36 0 35.36"></polygon>
    </defs>
    <g id="页面-1" stroke="none" stroke-width="1" fill="none" fill-rule="evenodd">
        <g id="画板" transform="translate(-186.000000, -1108.000000)">
            <g id="okkong-icon" transform="translate(186.000000, 1108.000000)">
                <g id="编组" transform="translate(0.000000, 0.000000)">
                    <path d="M61.6685714,46.6685714 C69.9485714,46.6685714 76.6685714,53.3885714 76.6685714,61.6685714 C76.6685714,69.9485714 69.9485714,76.6685714 61.6685714,76.6685714 L18.3371429,76.6685714 C10.0514286,76.6685714 3.33714286,69.9542857 3.33714286,61.6685714 C3.33714286,53.3828571 10.0514286,46.6685714 18.3371429,46.6685714 L61.6685714,46.6685714 Z" id="Fill-1" fill="#FFFFFF"></path>
                    <path d="M71.6685714,36.6685714 C74.4228571,36.6685714 76.6685714,38.9085714 76.6685714,41.6685714 C76.6685714,44.4285714 74.4228571,46.6685714 71.6685714,46.6685714 L8.33714286,46.6685714 C5.57142857,46.6685714 3.33714286,44.4285714 3.33714286,41.6685714 C3.33714286,38.9085714 5.57142857,36.6685714 8.33714286,36.6685714 L71.6685714,36.6685714 Z" id="Fill-3" fill="#FFFFFF"></path>
                    <path d="M46.6657143,36.6657143 C55.8485714,36.6657143 63.3342857,29.18 63.3342857,19.9971429 C63.3342857,10.82 55.8485714,3.33428571 46.6657143,3.33428571 C37.4885714,3.33428571 29.9971429,10.82 29.9971429,19.9971429 C29.9971429,29.18 37.4885714,36.6657143 46.6657143,36.6657143" id="Fill-5" fill="#FFFFFF"></path>
                    <path d="M71.2948571,39.0457143 C71.2948571,21.7657143 57.2834286,7.75428571 39.9977143,7.75428571 C22.7234286,7.75428571 8.70628571,21.7657143 8.70628571,39.0457143 L71.2948571,39.0457143 Z" id="Fill-7" fill="#FFFFFF"></path>
                    <g transform="translate(0.001714, 43.335429)">
                        <mask id="mask-2" fill="white">
                            <use xlink:href="#path-1"></use>
                        </mask>
                        <g id="Clip-10"></g>
                        <path d="M69.92,10.08 C67.8057143,7.97142857 64.8857143,6.66285714 61.6685714,6.66285714 L18.3314286,6.66285714 C15.1142857,6.66285714 12.1885714,7.97142857 10.08,10.08 C7.97142857,12.1828571 6.66857143,15.1085714 6.66857143,18.3314286 C6.66857143,21.5542857 7.97142857,24.48 10.08,26.5828571 C12.1828571,28.6971429 15.1085714,30 18.3314286,30 L61.6685714,30 C64.8857143,30 67.8057143,28.6914286 69.9142857,26.5828571 C72.0228571,24.48 73.3314286,21.56 73.3314286,18.3314286 C73.3314286,15.1085714 72.0228571,12.1828571 69.92,10.08 L69.92,10.08 Z M61.6685714,0 C66.7257143,0 71.3085714,2.05142857 74.6285714,5.37142857 C77.9428571,8.70285714 80,13.2857143 80,18.3314286 C80,23.3828571 77.9428571,27.9657143 74.6285714,31.28 C71.3085714,34.6114286 66.7257143,36.6628571 61.6685714,36.6628571 L18.3314286,36.6628571 C13.28,36.6628571 8.70285714,34.6114286 5.38285714,31.2971429 C2.05142857,27.9828571 0,23.3942857 0,18.3314286 C0,13.28 2.05142857,8.70285714 5.37142857,5.38285714 C8.68571429,2.05142857 13.2742857,0 18.3314286,0 L61.6685714,0 Z" id="Fill-9" fill="#FFFFFF" mask="url(#mask-2)"></path>
                    </g>
                    <g transform="translate(0.000000, 33.333714)">
                        <mask id="mask-4" fill="white">
                            <use xlink:href="#path-3"></use>
                        </mask>
                        <g id="Clip-12"></g>
                        <path d="M72.8457143,7.15428571 C72.5428571,6.85714286 72.1257143,6.66857143 71.6685714,6.66857143 L8.33142857,6.66857143 C7.87428571,6.66857143 7.45714286,6.85714286 7.15428571,7.15428571 C6.85142857,7.45714286 6.66857143,7.87428571 6.66857143,8.33714286 C6.66857143,8.79428571 6.85142857,9.21142857 7.15428571,9.51428571 C7.45714286,9.81142857 7.87428571,10 8.33142857,10 L71.6685714,10 C72.1257143,10 72.5428571,9.81142857 72.8457143,9.51428571 C73.1485714,9.21142857 73.3314286,8.79428571 73.3314286,8.33714286 C73.3314286,7.87428571 73.1485714,7.45714286 72.8457143,7.15428571 L72.8457143,7.15428571 Z M71.6685714,0 C73.9657143,0 76.0514286,0.931428571 77.56,2.44 C79.0685714,3.94857143 80,6.03428571 80,8.33714286 C80,10.6342857 79.0685714,12.72 77.56,14.2285714 C76.0514286,15.7314286 73.9657143,16.6685714 71.6685714,16.6685714 L8.33142857,16.6685714 C6.03428571,16.6685714 3.94857143,15.7314286 2.44,14.2285714 C0.931428571,12.72 0,10.6342857 0,8.33714286 C0,6.03428571 0.931428571,3.94857143 2.44,2.44 C3.94857143,0.931428571 6.03428571,0 8.33142857,0 L71.6685714,0 Z" id="Fill-11" fill="#FFFFFF" mask="url(#mask-4)"></path>
                    </g>
                    <path d="M46.6685714,40 C57.6857143,40 66.6685714,31.0171429 66.6685714,20 C66.6685714,8.98285714 57.6857143,0 46.6685714,0 C35.6514286,0 26.6685714,8.98285714 26.6685714,20 C26.6685714,31.0171429 35.6514286,40 46.6685714,40" id="Fill-13" fill="#FFFFFF"></path>
                    <path d="M74.2857143,39.0457143 C74.2857143,30.7771429 71.36,23.1942857 66.4857143,17.2685714 C65.1485714,7.51428571 56.7885714,0 46.6685714,0 C41.3257143,0 36.4742857,2.09142857 32.8914286,5.50285714 C17.3714286,8.77714286 5.71428571,22.5542857 5.71428571,39.0457143 L74.2857143,39.0457143 Z" id="Fill-15" fill="#000000"></path>
                    <path d="M46.6657143,33.3314286 C54.0142857,33.3314286 59.9971429,27.3428571 59.9971429,20 C59.9971429,12.6571429 54.0142857,6.66285714 46.6657143,6.66285714 C39.3228571,6.66285714 33.3342857,12.6571429 33.3342857,20 C33.3342857,27.3428571 39.3228571,33.3314286 46.6657143,33.3314286" id="Fill-17" fill="#F9C300"></path>
                    <path d="M27.86,13.1834286 C19.8142857,16.9662857 13.82,24.3891429 12.0085714,33.332 L20.9285714,33.332 C19.4657143,31.9777143 18.2428571,30.3777143 17.3228571,28.5891429 C19.3171429,23.2977143 22.78,18.7205714 27.2085714,15.3605714 C27.3857143,14.6177143 27.6028571,13.892 27.86,13.1834286" id="Fill-19" fill="#FFFFFF"></path>
                    <path d="M30.5188571,63.4428571 C33.1702857,63.4428571 35.3302857,61.2885714 35.3302857,58.6371429 L35.3302857,46.4485714 L25.7074286,46.4485714 L25.7074286,58.6371429 C25.7074286,61.2885714 27.8617143,63.4428571 30.5188571,63.4428571" id="Fill-21" fill="#000000"></path>
                    <path d="M59.1965714,63.4428571 C61.8537143,63.4428571 64.0022857,61.2885714 64.0022857,58.6371429 L64.0022857,46.4485714 L54.3851429,46.4485714 L54.3851429,58.6371429 C54.3851429,61.2885714 56.5394286,63.4428571 59.1965714,63.4428571" id="Fill-23" fill="#000000"></path>
                    <g transform="translate(0.000000, 33.333714)">
                        <mask id="mask-6" fill="white">
                            <use xlink:href="#path-5"></use>
                        </mask>
                        <g id="Clip-26"></g>
                        <path d="M72.8457143,7.15428571 C72.5428571,6.85714286 72.1257143,6.66857143 71.6685714,6.66857143 L8.33142857,6.66857143 C7.87428571,6.66857143 7.45714286,6.85714286 7.15428571,7.15428571 C6.85142857,7.45714286 6.66857143,7.87428571 6.66857143,8.33714286 C6.66857143,8.79428571 6.85142857,9.21142857 7.15428571,9.51428571 C7.45714286,9.81142857 7.87428571,10 8.33142857,10 L71.6685714,10 C72.1257143,10 72.5428571,9.81142857 72.8457143,9.51428571 C73.1485714,9.21142857 73.3314286,8.79428571 73.3314286,8.33714286 C73.3314286,7.87428571 73.1485714,7.45714286 72.8457143,7.15428571 L72.8457143,7.15428571 Z M71.6685714,0 C73.9657143,0 76.0514286,0.931428571 77.56,2.44 C79.0685714,3.94857143 80,6.03428571 80,8.33714286 C80,10.6342857 79.0685714,12.72 77.56,14.2285714 C76.0514286,15.7314286 73.9657143,16.6685714 71.6685714,16.6685714 L8.33142857,16.6685714 C6.03428571,16.6685714 3.94857143,15.7314286 2.44,14.2285714 C0.931428571,12.72 0,10.6342857 0,8.33714286 C0,6.03428571 0.931428571,3.94857143 2.44,2.44 C3.94857143,0.931428571 6.03428571,0 8.33142857,0 L10.68,0 L10.68,2.42857143 L24.8685714,2.42857143 L24.8685714,0 L33.76,0 L33.76,2.42857143 L59.5771429,2.42857143 L59.5771429,0 L71.6685714,0 Z" id="Fill-25" fill="#000000" mask="url(#mask-6)"></path>
                    </g>
                    <g transform="translate(0.002286, 44.637143)">
                        <mask id="mask-8" fill="white">
                            <use xlink:href="#path-7"></use>
                        </mask>
                        <g id="Clip-28"></g>
                        <path d="M68.4685714,1.01506105e-14 C70.7942857,0.931428571 72.8857143,2.32571429 74.6285714,4.06857143 C77.9428571,7.4 80,11.9828571 80,17.0285714 C80,22.08 77.9428571,26.6628571 74.6285714,29.9771429 C71.3085714,33.3085714 66.7257143,35.36 61.6685714,35.36 L18.3314286,35.36 C13.28,35.36 8.70285714,33.3085714 5.38285714,29.9942857 C2.05142857,26.68 0,22.0914286 0,17.0285714 C0,11.9771429 2.05142857,7.4 5.37142857,4.08 C7.10857143,2.33142857 9.20571429,0.931428571 11.5371429,1.01506105e-14 L18.3314286,1.01506105e-14 L18.3314286,5.36 C15.1142857,5.36 12.1885714,6.66857143 10.08,8.77714286 C7.97142857,10.88 6.66857143,13.8057143 6.66857143,17.0285714 C6.66857143,20.2514286 7.97142857,23.1771429 10.08,25.28 C12.1828571,27.3942857 15.1085714,28.6971429 18.3314286,28.6971429 L61.6685714,28.6971429 C64.8857143,28.6971429 67.8057143,27.3885714 69.9142857,25.28 C72.0228571,23.1771429 73.3314286,20.2571429 73.3314286,17.0285714 C73.3314286,13.8057143 72.0228571,10.88 69.92,8.77714286 C67.8057143,6.66857143 64.8857143,5.36 61.6685714,5.36 L61.6685714,1.01506105e-14 L68.4685714,1.01506105e-14 Z" id="Fill-27" fill="#000000" mask="url(#mask-8)"></path>
                    </g>
                    <path d="M46.6685714,26.6657143 C50.3428571,26.6657143 53.3371429,23.6714286 53.3371429,19.9971429 C53.3371429,16.3285714 50.3428571,13.3342857 46.6685714,13.3342857 C42.9942857,13.3342857 40,16.3285714 40,19.9971429 C40,23.6714286 42.9942857,26.6657143 46.6685714,26.6657143" id="Fill-29" fill="#000000"></path>
                </g>
            </g>
        </g>
    </g>
</svg>