<?xml version="1.0" encoding="UTF-8" standalone="no"?>
<!-- Created with Inkscape (http://www.inkscape.org/) -->

<svg
   version="1.1"
   id="svg2"
   width="109.74478"
   height="116.7427"
   viewBox="0 0 109.74478 116.7427"
   sodipodi:docname="Bug.ai"
   xmlns:inkscape="http://www.inkscape.org/namespaces/inkscape"
   xmlns:sodipodi="http://sodipodi.sourceforge.net/DTD/sodipodi-0.dtd"
   xmlns="http://www.w3.org/2000/svg"
   xmlns:svg="http://www.w3.org/2000/svg">
  <defs
     id="defs6">
    <clipPath
       clipPathUnits="userSpaceOnUse"
       id="clipPath20">
      <path
         d="M 0,89 H 165 V 0 H 0 Z"
         id="path18" />
    </clipPath>
  </defs>
  <sodipodi:namedview
     id="namedview4"
     pagecolor="#ffffff"
     bordercolor="#000000"
     borderopacity="0.25"
     inkscape:showpageshadow="2"
     inkscape:pageopacity="0.0"
     inkscape:pagecheckerboard="0"
     inkscape:deskcolor="#d1d1d1"
     showgrid="false"
     inkscape:zoom="3.9775279"
     inkscape:cx="73.663846"
     inkscape:cy="46.008477"
     inkscape:window-width="1704"
     inkscape:window-height="996"
     inkscape:window-x="0"
     inkscape:window-y="32"
     inkscape:window-maximized="1"
     inkscape:current-layer="g10" />
  <g
     id="g10"
     inkscape:groupmode="layer"
     inkscape:label="Page 1"
     transform="matrix(1.3333333,0,0,-1.3333333,114.12769,150.07887)">
    <g
       id="g16"
       clip-path="url(#clipPath20)"
       transform="translate(-126.94128,24.28083)">
      <g
         id="g22"
         transform="translate(121.6635,53.6853)">
        <path
           d="m 0,0 c -1.706,-3.601 -4.296,-6.49 -7.442,-9.119 8.114,-7.355 9.246,-16.717 7.763,-27.087 -2.31,1.967 -1.654,4.906 -2.928,7.125 0.65,-4.55 -0.807,-8.654 -2.266,-12.758 -0.13,-0.016 -0.259,-0.031 -0.389,-0.047 -0.191,0.678 -0.495,1.347 -0.554,2.036 -0.277,3.238 -0.416,6.489 -0.744,9.72 -0.259,2.554 -1.37,4.756 -2.993,6.782 -1.381,1.724 -2.392,3.741 -3.732,5.503 -0.809,1.063 -1.933,1.886 -2.782,2.691 -3.079,-1.631 -5.984,-3.213 -8.929,-4.716 -3.17,-1.618 -6.404,-3.115 -9.547,-4.782 -0.499,-0.265 -0.963,-1.154 -0.944,-1.738 0.075,-2.325 0.356,-4.643 0.536,-6.966 0.023,-0.299 -0.099,-0.609 -0.154,-0.914 -0.331,0.104 -0.822,0.106 -0.967,0.331 -0.979,1.525 -1.982,3.05 -2.78,4.672 -0.512,1.041 -0.686,2.248 -1.035,3.463 -0.992,-0.169 -1.933,-0.283 -2.85,-0.496 -1.561,-0.361 -2.186,-1.118 -2.241,-3.09 -0.102,-3.639 -0.382,-7.291 0.597,-10.883 0.811,-2.972 0.012,-5.721 -1.378,-8.349 -0.333,-0.629 -0.705,-1.238 -1.253,-2.195 -0.404,2.439 -0.495,4.477 -1.107,6.343 -1.018,3.106 -2.387,6.097 -3.574,9.149 -0.339,0.872 -0.699,1.772 -0.809,2.688 -0.252,2.104 -0.356,4.226 -0.528,6.448 -1.711,-0.181 -2.407,-1.444 -3.133,-2.536 -1.365,-2.055 -2.791,-4.105 -3.843,-6.322 -1.074,-2.265 -1.614,-4.74 -1.284,-7.323 0.117,-0.916 0.056,-1.853 0.115,-2.778 0.148,-2.324 0.317,-4.646 0.484,-7.056 -1.08,0 -2.422,-0.05 -3.759,0.015 -1.357,0.065 -1.779,1.06 -1.994,2.218 -0.534,2.865 -0.353,5.726 -0.085,8.603 0.276,2.972 0.421,5.956 0.617,8.935 0.023,0.349 0.003,0.701 0.003,1.31 -0.812,-0.661 -1.436,-1.17 -2.241,-1.826 -0.605,0.954 -1.174,1.853 -1.744,2.751 -0.083,-0.018 -0.166,-0.036 -0.249,-0.053 0.234,-1.21 0.469,-2.419 0.7,-3.629 0.239,-1.255 0.615,-2.503 0.683,-3.768 0.183,-3.371 0.309,-6.75 0.302,-10.126 -0.004,-1.799 -0.362,-3.666 -2.225,-4.522 -0.982,-0.452 -2.174,-0.449 -3.357,-0.668 0.365,3.96 0.867,7.674 0.993,11.401 0.077,2.258 -0.438,4.535 -0.671,6.805 -0.187,1.823 -0.372,3.646 -0.515,5.472 -0.13,1.661 -0.274,3.326 -0.275,4.989 -0.001,1.361 0.199,2.722 0.046,4.185 -0.334,-1.301 -0.77,-2.585 -0.977,-3.906 -0.342,-2.174 -0.661,-4.366 -0.746,-6.561 -0.056,-1.446 0.191,-2.938 0.525,-4.357 0.581,-2.465 0.323,-4.89 0.025,-7.344 -0.239,-1.964 -0.363,-3.941 -0.538,-5.912 -0.158,-0.026 -0.316,-0.052 -0.474,-0.078 -0.222,0.95 -0.462,1.896 -0.662,2.85 -0.517,2.467 -0.859,4.983 -1.552,7.398 -1.909,6.649 -2.127,13.179 0.462,19.741 1.209,3.065 2.805,5.796 5.262,7.955 1.334,1.172 1.836,2.611 1.913,4.251 0.201,4.246 1.688,8.111 3.378,11.931 2.37,5.357 5.904,9.874 10.306,13.637 4.657,3.982 9.381,7.908 14.909,10.724 3.018,1.538 5.975,3.22 9.34,3.83 1.884,0.342 3.828,0.39 5.749,0.489 4.676,0.239 9.267,-0.222 13.499,-2.366 2.106,-1.068 4.25,-2.114 5.88,-3.996 1.583,-1.827 3.623,-3.279 5.079,-5.189 0,0 8.944,-10.611 3.084,-22.985"
           style="fill:#231f20;fill-opacity:1;fill-rule:nonzero;stroke:none"
           id="path24" />
      </g>
      <g
         id="g26"
         transform="translate(74.6364,78.8385)">
        <path
           d="m 0,0 c 0,0 -21.828,-10.319 -23.168,-34.526 0,0 -14.265,-10.126 -6.797,-31.536 l 0.67,0.965 c 0,0 -6.51,17.745 6.989,29.8 0,0 4.116,22.663 22.306,35.297"
           style="fill:#ffffff;fill-opacity:1;fill-rule:nonzero;stroke:none"
           id="path28" />
      </g>
      <g
         id="g30"
         transform="translate(54.149,39.4908)">
        <path
           d="m 0,0 c 0,0 -2.681,-3.183 -3.542,-6.751 l -1.053,-0.578 c 0,0 -2.106,-5.69 0.574,-16.685 0,0 1.628,-8.294 -0.574,-13.598 0,0 5.84,0.082 1.244,16.781 0,0 -2.776,10.126 3.351,20.831"
           style="fill:#ffffff;fill-opacity:1;fill-rule:nonzero;stroke:none"
           id="path32" />
      </g>
      <g
         id="g34"
         transform="translate(64.0098,34.3927)">
        <path
           d="m 0,0 c 0,0 -1.436,-4.257 -4.595,-7.728 0,0 -4.213,-3.279 -2.489,-24.014 l 1.206,1.821 c 0,0 0.517,5.412 1.187,9.173 l -1.628,-5.593 c 0,0 -0.095,12.826 3.255,18.516 0,0 3.064,5.041 3.064,7.825"
           style="fill:#ffffff;fill-opacity:1;fill-rule:nonzero;stroke:none"
           id="path36" />
      </g>
      <g
         id="g38"
         transform="translate(76.1682,7.9548)">
        <path
           d="m 0,0 c 0,0 1.34,1.543 -0.862,5.401 0,0 -2.872,4.05 -2.776,8.197 0,0 0.192,8.39 -1.149,10.994 0,0 -1.723,-12.633 2.489,-19.095 0,0 1.689,-2.749 1.235,-6.666 z"
           style="fill:#ffffff;fill-opacity:1;fill-rule:nonzero;stroke:none"
           id="path40" />
      </g>
      <g
         id="g42"
         transform="translate(110.5372,41.5161)">
        <path
           d="m 0,0 c 0,0 8.425,-8.583 6.51,-25.267 0,0 4.691,18.034 -6.51,25.267"
           style="fill:#ffffff;fill-opacity:1;fill-rule:nonzero;stroke:none"
           id="path44" />
      </g>
      <g
         id="g46"
         transform="translate(120.015,30.9076)">
        <path
           d="m 0,0 c 0,0 -0.574,-4.918 1.245,-10.223 0,0 1.148,3.569 -1.245,10.223"
           style="fill:#ffffff;fill-opacity:1;fill-rule:nonzero;stroke:none"
           id="path48" />
      </g>
      <g
         id="g50"
         transform="translate(53.1917,32.5471)">
        <path
           d="m 0,0 c 0,0 0.287,-2.122 0.957,-2.797 0,0 0.862,3.016 6.702,4.643 0,0 2.202,-3.003 -6.127,-10.911 0,0 -0.575,-0.965 -1.532,0.385 0,0 -0.8,2.271 -1.734,3.762 0,0 0.585,-0.483 1.734,0.289 0,0 -1.184,0.52 -1.734,3.182 0,0 0.106,0.772 1.734,1.447"
           style="fill:#ffffff;fill-opacity:1;fill-rule:nonzero;stroke:none"
           id="path52" />
      </g>
      <g
         id="g54"
         transform="translate(59.1273,31.9685)">
        <path
           d="m 0,0 -4.978,-4.34 c 0,0 1.053,-0.771 2.489,0 0,0 3.159,2.025 2.489,4.34"
           style="fill:#231f20;fill-opacity:1;fill-rule:nonzero;stroke:none"
           id="path56" />
      </g>
    </g>
  </g>
</svg>
