<?xml version="1.0" encoding="utf-8"?>
<!-- Generator: Adobe Illustrator 27.0.0, SVG Export Plug-In . SVG Version: 6.00 Build 0)  -->
<svg version="1.1" id="Layer_1" xmlns="http://www.w3.org/2000/svg" xmlns:xlink="http://www.w3.org/1999/xlink" x="0px" y="0px"
	 viewBox="0 0 35.6 35.6" style="enable-background:new 0 0 35.6 35.6;" xml:space="preserve">
<style type="text/css">
	.st0{fill-rule:evenodd;clip-rule:evenodd;fill:#0FCB97;}
</style>
<path class="st0" d="M17.8,35.6c9.8,0,17.8-8,17.8-17.8C35.6,8,27.6,0,17.8,0C8,0,0,8,0,17.8c0,7.9,5.1,14.6,12.3,16.9V22.1h8.9
	c0.8,0,1.5-0.1,2-0.4c0.5-0.3,0.9-0.6,1.2-1c0.3-0.4,0.5-0.9,0.6-1.3c0.1-0.5,0.2-0.9,0.2-1.2c0-0.3,0-0.6-0.1-1.1
	c-0.1-0.4-0.3-0.9-0.5-1.4c-0.3-0.5-0.7-0.8-1.2-1.2c-0.5-0.3-1.3-0.5-2.2-0.5H10.9c-1.4,0-2.7-0.7-3.5-1.8L5.1,9h9v-4h3.5v4h2.7
	c0.1,0,0.2,0,0.3,0v-4h3.5v4.4c0.6,0.2,1.2,0.4,1.7,0.6c1.5,0.7,2.7,1.8,3.5,3.1c0.8,1.3,1.2,2.9,1.2,4.8c0,1.1-0.2,2.2-0.5,3.3
	c-0.3,1.1-0.8,2.1-1.6,3c-0.7,0.9-1.7,1.6-2.9,2.1c-1.2,0.5-2.7,0.8-4.4,0.8h-3.8v8.4C17.6,35.6,17.7,35.6,17.8,35.6z"/>
</svg>
