<svg width="64" height="64" viewBox="0 0 64 64" fill="none" xmlns="http://www.w3.org/2000/svg">
<path d="M25.6102 26.5859C25.5695 26.554 25.5369 26.5221 25.4961 26.4902C25.5287 26.5301 25.5695 26.562 25.6102 26.5859Z" fill="#CA5001"/>
<path d="M25.0816 27.1443C25.3337 27.1443 25.5381 26.9443 25.5381 26.6976C25.5381 26.4509 25.3337 26.251 25.0816 26.251C24.8294 26.251 24.625 26.4509 24.625 26.6976C24.625 26.9443 24.8294 27.1443 25.0816 27.1443Z" fill="#C57D0A"/>
<path d="M23.4409 26.4265C23.1882 26.4265 22.9844 26.2271 22.9844 25.9799C22.9844 25.7326 23.1882 25.5332 23.4409 25.5332C23.6937 25.5332 23.8975 25.7326 23.8975 25.9799C23.8975 26.2271 23.6937 26.4265 23.4409 26.4265Z" fill="#C57D0A"/>
<path d="M21.8042 25.7165C22.0564 25.7165 22.2608 25.5166 22.2608 25.2699C22.2608 25.0232 22.0564 24.8232 21.8042 24.8232C21.5521 24.8232 21.3477 25.0232 21.3477 25.2699C21.3477 25.5166 21.5521 25.7165 21.8042 25.7165Z" fill="#C57D0A"/>
<path d="M20.1558 24.9988C19.903 24.9988 19.6992 24.7994 19.6992 24.5521C19.6992 24.3049 19.903 24.1055 20.1558 24.1055C20.4085 24.1055 20.6123 24.3049 20.6123 24.5521C20.6123 24.7994 20.4085 24.9988 20.1558 24.9988Z" fill="#C57D0A"/>
<path d="M18.5191 24.2888C18.7712 24.2888 18.9756 24.0888 18.9756 23.8422C18.9756 23.5955 18.7712 23.3955 18.5191 23.3955C18.2669 23.3955 18.0625 23.5955 18.0625 23.8422C18.0625 24.0888 18.2669 24.2888 18.5191 24.2888Z" fill="#C57D0A"/>
<path d="M16.8784 23.571C16.6257 23.571 16.4219 23.3716 16.4219 23.1244C16.4219 22.8771 16.6257 22.6777 16.8784 22.6777C17.1312 22.6777 17.335 22.8771 17.335 23.1244C17.335 23.3716 17.1312 23.571 16.8784 23.571Z" fill="#C57D0A"/>
<path d="M15.2417 22.8533C15.4939 22.8533 15.6983 22.6533 15.6983 22.4066C15.6983 22.1599 15.4939 21.96 15.2417 21.96C14.9896 21.96 14.7852 22.1599 14.7852 22.4066C14.7852 22.6533 14.9896 22.8533 15.2417 22.8533Z" fill="#C57D0A"/>
<path d="M13.6011 22.1355C13.3484 22.1355 13.1445 21.9361 13.1445 21.6888C13.1445 21.4416 13.3484 21.2422 13.6011 21.2422C13.8538 21.2422 14.0576 21.4416 14.0576 21.6888C14.0576 21.9361 13.8457 22.1355 13.6011 22.1355Z" fill="#C57D0A"/>
<path d="M25.4156 29.6883C25.3422 29.6883 25.2852 29.6325 25.2852 29.5607C25.2852 29.4889 25.3422 29.4331 25.4156 29.4331C25.489 29.4331 25.546 29.4889 25.546 29.5607C25.546 29.6325 25.489 29.6883 25.4156 29.6883Z" fill="#CA5001"/>
<path d="M26.3856 31.6903C26.5251 31.6903 26.6383 31.5796 26.6383 31.4431C26.6383 31.3065 26.5251 31.1958 26.3856 31.1958C26.246 31.1958 26.1328 31.3065 26.1328 31.4431C26.1328 31.5796 26.246 31.6903 26.3856 31.6903Z" fill="#CA5001"/>
<path d="M27.3637 33.6843C27.5753 33.6843 27.7468 33.5165 27.7468 33.3094C27.7468 33.1024 27.5753 32.9346 27.3637 32.9346C27.152 32.9346 26.9805 33.1024 26.9805 33.3094C26.9805 33.5165 27.152 33.6843 27.3637 33.6843Z" fill="#CA5001"/>
<path d="M28.3261 35.6866C28.0408 35.6866 27.8125 35.4633 27.8125 35.1841C27.8125 34.905 28.0408 34.6816 28.3261 34.6816C28.6115 34.6816 28.8398 34.905 28.8398 35.1841C28.8398 35.4633 28.6033 35.6866 28.3261 35.6866Z" fill="#CA5001"/>
<path d="M23.0914 28.7157C23.018 28.7157 22.9609 28.6598 22.9609 28.5881C22.9609 28.5163 23.018 28.4604 23.0914 28.4604C23.1648 28.4604 23.2218 28.5163 23.2218 28.5881C23.2218 28.6598 23.1566 28.7157 23.0914 28.7157Z" fill="#CA5001"/>
<path d="M24.0613 30.7176C24.2009 30.7176 24.3141 30.6069 24.3141 30.4704C24.3141 30.3338 24.2009 30.2231 24.0613 30.2231C23.9217 30.2231 23.8086 30.3338 23.8086 30.4704C23.8086 30.6069 23.9217 30.7176 24.0613 30.7176Z" fill="#CA5001"/>
<path d="M25.0394 32.7112C25.2511 32.7112 25.4226 32.5433 25.4226 32.3363C25.4226 32.1293 25.2511 31.9614 25.0394 31.9614C24.8278 31.9614 24.6562 32.1293 24.6562 32.3363C24.6562 32.5433 24.8278 32.7112 25.0394 32.7112Z" fill="#CA5001"/>
<path d="M25.9941 34.7135C25.7087 34.7135 25.4805 34.4901 25.4805 34.211C25.4805 33.9318 25.7087 33.7085 25.9941 33.7085C26.2794 33.7085 26.5077 33.9318 26.5077 34.211C26.5077 34.4901 26.2794 34.7135 25.9941 34.7135Z" fill="#CA5001"/>
<path d="M20.7594 27.7425C20.686 27.7425 20.6289 27.6867 20.6289 27.6149C20.6289 27.5431 20.686 27.4873 20.7594 27.4873C20.8327 27.4873 20.8898 27.5431 20.8898 27.6149C20.8898 27.6867 20.8327 27.7425 20.7594 27.7425Z" fill="#CA5001"/>
<path d="M21.7293 29.7445C21.8689 29.7445 21.982 29.6338 21.982 29.4973C21.982 29.3607 21.8689 29.25 21.7293 29.25C21.5897 29.25 21.4766 29.3607 21.4766 29.4973C21.4766 29.6338 21.5897 29.7445 21.7293 29.7445Z" fill="#CA5001"/>
<path d="M22.7074 31.7385C22.919 31.7385 23.0906 31.5707 23.0906 31.3636C23.0906 31.1566 22.919 30.9888 22.7074 30.9888C22.4958 30.9888 22.3242 31.1566 22.3242 31.3636C22.3242 31.5707 22.4958 31.7385 22.7074 31.7385Z" fill="#CA5001"/>
<path d="M23.6621 33.7403C23.3767 33.7403 23.1484 33.517 23.1484 33.2378C23.1484 32.9587 23.3767 32.7354 23.6621 32.7354C23.9474 32.7354 24.1757 32.9587 24.1757 33.2378C24.1757 33.517 23.9474 33.7403 23.6621 33.7403Z" fill="#CA5001"/>
<path d="M18.4273 26.7694C18.3539 26.7694 18.2969 26.7136 18.2969 26.6418C18.2969 26.57 18.3539 26.5142 18.4273 26.5142C18.5007 26.5142 18.5578 26.57 18.5578 26.6418C18.5578 26.7136 18.5007 26.7694 18.4273 26.7694Z" fill="#CA5001"/>
<path d="M19.3973 28.7714C19.2587 28.7714 19.1445 28.6597 19.1445 28.5241C19.1445 28.3885 19.2587 28.2769 19.3973 28.2769C19.5359 28.2769 19.65 28.3885 19.65 28.5241C19.6582 28.6597 19.544 28.7714 19.3973 28.7714Z" fill="#CA5001"/>
<path d="M20.3754 30.7654C20.587 30.7654 20.7586 30.5975 20.7586 30.3905C20.7586 30.1835 20.587 30.0156 20.3754 30.0156C20.1637 30.0156 19.9922 30.1835 19.9922 30.3905C19.9922 30.5975 20.1637 30.7654 20.3754 30.7654Z" fill="#CA5001"/>
<path d="M21.3378 32.7672C21.0525 32.7672 20.8242 32.5438 20.8242 32.2647C20.8242 31.9855 21.0525 31.7622 21.3378 31.7622C21.6232 31.7622 21.8515 31.9855 21.8515 32.2647C21.8515 32.5438 21.615 32.7672 21.3378 32.7672Z" fill="#CA5001"/>
<path d="M16.1031 25.7962C16.0297 25.7962 15.9727 25.7404 15.9727 25.6686C15.9727 25.5968 16.0297 25.541 16.1031 25.541C16.1765 25.541 16.2335 25.5968 16.2335 25.6686C16.2254 25.7404 16.1683 25.7962 16.1031 25.7962Z" fill="#CA5001"/>
<path d="M17.073 27.7982C17.2126 27.7982 17.3258 27.6875 17.3258 27.551C17.3258 27.4144 17.2126 27.3037 17.073 27.3037C16.9335 27.3037 16.8203 27.4144 16.8203 27.551C16.8203 27.6875 16.9335 27.7982 17.073 27.7982Z" fill="#CA5001"/>
<path d="M18.0512 29.7922C18.2628 29.7922 18.4343 29.6244 18.4343 29.4173C18.4343 29.2103 18.2628 29.0425 18.0512 29.0425C17.8395 29.0425 17.668 29.2103 17.668 29.4173C17.668 29.6244 17.8395 29.7922 18.0512 29.7922Z" fill="#CA5001"/>
<path d="M19.0058 31.794C18.7205 31.794 18.4922 31.5707 18.4922 31.2915C18.4922 31.0124 18.7205 30.7891 19.0058 30.7891C19.2912 30.7891 19.5194 31.0124 19.5194 31.2915C19.5194 31.5707 19.2912 31.794 19.0058 31.794Z" fill="#CA5001"/>
<path d="M13.7711 24.8231C13.6977 24.8231 13.6406 24.7673 13.6406 24.6955C13.6406 24.6237 13.6977 24.5679 13.7711 24.5679C13.8444 24.5679 13.9015 24.6237 13.9015 24.6955C13.9015 24.7673 13.8444 24.8231 13.7711 24.8231Z" fill="#CA5001"/>
<path d="M14.741 26.8251C14.6024 26.8251 14.4883 26.7134 14.4883 26.5778C14.4883 26.4422 14.6024 26.3306 14.741 26.3306C14.8796 26.3306 14.9938 26.4422 14.9938 26.5778C14.9938 26.7134 14.8796 26.8251 14.741 26.8251Z" fill="#CA5001"/>
<path d="M15.723 28.8191C15.9347 28.8191 16.1062 28.6512 16.1062 28.4442C16.1062 28.2372 15.9347 28.0693 15.723 28.0693C15.5114 28.0693 15.3398 28.2372 15.3398 28.4442C15.3398 28.6512 15.5114 28.8191 15.723 28.8191Z" fill="#CA5001"/>
<path d="M16.6738 30.8209C16.3884 30.8209 16.1602 30.5976 16.1602 30.3184C16.1602 30.0392 16.3884 29.8159 16.6738 29.8159C16.9591 29.8159 17.1874 30.0392 17.1874 30.3184C17.1874 30.5976 16.9591 30.8209 16.6738 30.8209Z" fill="#CA5001"/>
<path d="M11.439 23.8583C11.3657 23.8583 11.3086 23.8024 11.3086 23.7306C11.3086 23.6589 11.3657 23.603 11.439 23.603C11.5124 23.603 11.5695 23.6589 11.5695 23.7306C11.5695 23.7944 11.5124 23.8583 11.439 23.8583Z" fill="#CA5001"/>
<path d="M12.4129 25.8519C12.2743 25.8519 12.1602 25.7403 12.1602 25.6047C12.1602 25.4691 12.2743 25.3574 12.4129 25.3574C12.5515 25.3574 12.6656 25.4691 12.6656 25.6047C12.6738 25.7403 12.5596 25.8519 12.4129 25.8519Z" fill="#CA5001"/>
<path d="M13.391 27.8459C13.6026 27.8459 13.7742 27.6781 13.7742 27.4711C13.7742 27.264 13.6026 27.0962 13.391 27.0962C13.1794 27.0962 13.0078 27.264 13.0078 27.4711C13.0078 27.6781 13.1794 27.8459 13.391 27.8459Z" fill="#CA5001"/>
<path d="M14.3535 29.8482C14.0681 29.8482 13.8398 29.6249 13.8398 29.3457C13.8398 29.0666 14.0681 28.8433 14.3535 28.8433C14.6388 28.8433 14.8671 29.0666 14.8671 29.3457C14.8671 29.6249 14.6307 29.8482 14.3535 29.8482Z" fill="#CA5001"/>
<path d="M22.4373 21.3298C22.3884 21.3298 22.3477 21.2899 22.3477 21.242C22.3477 21.1942 22.3884 21.1543 22.4373 21.1543C22.4863 21.1543 22.527 21.1942 22.527 21.242C22.527 21.2899 22.4944 21.3298 22.4373 21.3298Z" fill="#CA5001"/>
<path d="M23.1169 22.7733C23.019 22.7733 22.9375 22.6935 22.9375 22.5978C22.9375 22.5021 23.019 22.4224 23.1169 22.4224C23.2147 22.4224 23.2962 22.5021 23.2962 22.5978C23.2962 22.6935 23.2229 22.7733 23.1169 22.7733Z" fill="#CA5001"/>
<path d="M23.8003 24.2173C23.6535 24.2173 23.5312 24.0977 23.5312 23.9541C23.5312 23.8106 23.6535 23.6909 23.8003 23.6909C23.947 23.6909 24.0693 23.8106 24.0693 23.9541C24.0693 24.0977 23.947 24.2173 23.8003 24.2173Z" fill="#CA5001"/>
<path d="M24.4606 25.6685C24.6632 25.6685 24.8275 25.5078 24.8275 25.3096C24.8275 25.1114 24.6632 24.9507 24.4606 24.9507C24.258 24.9507 24.0938 25.1114 24.0938 25.3096C24.0938 25.5078 24.258 25.6685 24.4606 25.6685Z" fill="#CA5001"/>
<path d="M20.8006 20.612C20.8501 20.612 20.8903 20.5727 20.8903 20.5243C20.8903 20.4758 20.8501 20.4365 20.8006 20.4365C20.7511 20.4365 20.7109 20.4758 20.7109 20.5243C20.7109 20.5727 20.7511 20.612 20.8006 20.612Z" fill="#CA5001"/>
<path d="M21.4762 22.0555C21.3784 22.0555 21.2969 21.9758 21.2969 21.8801C21.2969 21.7843 21.3784 21.7046 21.4762 21.7046C21.5741 21.7046 21.6556 21.7843 21.6556 21.8801C21.6556 21.9758 21.5741 22.0555 21.4762 22.0555Z" fill="#CA5001"/>
<path d="M22.1519 23.5074C22.0051 23.5074 21.8828 23.3877 21.8828 23.2442C21.8828 23.1006 22.0051 22.981 22.1519 22.981C22.2986 22.981 22.4209 23.1006 22.4209 23.2442C22.4291 23.3877 22.3068 23.5074 22.1519 23.5074Z" fill="#CA5001"/>
<path d="M22.82 24.959C22.6162 24.959 22.4531 24.7995 22.4531 24.6001C22.4531 24.4007 22.6162 24.2412 22.82 24.2412C23.0238 24.2412 23.1869 24.4007 23.1869 24.6001C23.1869 24.7995 23.0238 24.959 22.82 24.959Z" fill="#CA5001"/>
<path d="M19.16 19.8942C19.1111 19.8942 19.0703 19.8543 19.0703 19.8065C19.0703 19.7586 19.1111 19.7188 19.16 19.7188C19.2089 19.7188 19.2497 19.7586 19.2497 19.8065C19.2497 19.8543 19.2089 19.8942 19.16 19.8942Z" fill="#CA5001"/>
<path d="M19.8395 21.3456C19.7417 21.3456 19.6602 21.2658 19.6602 21.1701C19.6602 21.0744 19.7417 20.9946 19.8395 20.9946C19.9374 20.9946 20.0189 21.0744 20.0189 21.1701C20.0189 21.2658 19.9374 21.3456 19.8395 21.3456Z" fill="#CA5001"/>
<path d="M20.5151 22.7896C20.3684 22.7896 20.2461 22.67 20.2461 22.5264C20.2461 22.3828 20.3684 22.2632 20.5151 22.2632C20.6619 22.2632 20.7842 22.3828 20.7842 22.5264C20.7923 22.67 20.67 22.7896 20.5151 22.7896Z" fill="#CA5001"/>
<path d="M21.1833 24.2408C20.9795 24.2408 20.8164 24.0813 20.8164 23.8819C20.8164 23.6825 20.9795 23.5229 21.1833 23.5229C21.3871 23.5229 21.5502 23.6825 21.5502 23.8819C21.5502 24.0813 21.3871 24.2408 21.1833 24.2408Z" fill="#CA5001"/>
<path d="M17.5233 19.1843C17.5728 19.1843 17.613 19.145 17.613 19.0965C17.613 19.0481 17.5728 19.0088 17.5233 19.0088C17.4737 19.0088 17.4336 19.0481 17.4336 19.0965C17.4336 19.145 17.4737 19.1843 17.5233 19.1843Z" fill="#CA5001"/>
<path d="M18.1911 20.6278C18.0932 20.6278 18.0117 20.548 18.0117 20.4523C18.0117 20.3566 18.0932 20.2769 18.1911 20.2769C18.2889 20.2769 18.3704 20.3566 18.3704 20.4523C18.3786 20.548 18.2971 20.6278 18.1911 20.6278Z" fill="#CA5001"/>
<path d="M18.8745 22.0713C18.7278 22.0713 18.6055 21.9517 18.6055 21.8081C18.6055 21.6646 18.7278 21.5449 18.8745 21.5449C19.0213 21.5449 19.1436 21.6646 19.1436 21.8081C19.1436 21.9517 19.0213 22.0713 18.8745 22.0713Z" fill="#CA5001"/>
<path d="M19.5427 23.523C19.3388 23.523 19.1758 23.3635 19.1758 23.1641C19.1758 22.9647 19.3388 22.8052 19.5427 22.8052C19.7465 22.8052 19.9095 22.9647 19.9095 23.1641C19.9095 23.3635 19.7383 23.523 19.5427 23.523Z" fill="#CA5001"/>
<path d="M15.8827 18.4665C15.8337 18.4665 15.793 18.4266 15.793 18.3788C15.793 18.3309 15.8337 18.291 15.8827 18.291C15.9316 18.291 15.9723 18.3309 15.9723 18.3788C15.9723 18.4266 15.9316 18.4665 15.8827 18.4665Z" fill="#CA5001"/>
<path d="M16.5505 19.9183C16.4526 19.9183 16.3711 19.8386 16.3711 19.7429C16.3711 19.6471 16.4526 19.5674 16.5505 19.5674C16.6483 19.5674 16.7298 19.6471 16.7298 19.7429C16.738 19.8386 16.6564 19.9183 16.5505 19.9183Z" fill="#CA5001"/>
<path d="M17.2378 21.3619C17.091 21.3619 16.9688 21.2422 16.9688 21.0987C16.9688 20.9551 17.091 20.8354 17.2378 20.8354C17.3845 20.8354 17.5068 20.9551 17.5068 21.0987C17.5068 21.2422 17.3845 21.3619 17.2378 21.3619Z" fill="#CA5001"/>
<path d="M17.8981 22.8135C17.6943 22.8135 17.5312 22.654 17.5312 22.4546C17.5312 22.2552 17.6943 22.0957 17.8981 22.0957C18.1019 22.0957 18.265 22.2552 18.265 22.4546C18.265 22.654 18.1019 22.8135 17.8981 22.8135Z" fill="#CA5001"/>
<path d="M14.2381 17.7565C14.1892 17.7565 14.1484 17.7166 14.1484 17.6688C14.1484 17.6209 14.1892 17.5811 14.2381 17.5811C14.287 17.5811 14.3278 17.6209 14.3278 17.6688C14.3278 17.7166 14.287 17.7565 14.2381 17.7565Z" fill="#CA5001"/>
<path d="M14.9137 19.2001C14.8159 19.2001 14.7344 19.1203 14.7344 19.0246C14.7344 18.9289 14.8159 18.8491 14.9137 18.8491C15.0116 18.8491 15.0931 18.9289 15.0931 19.0246C15.0931 19.1203 15.0116 19.2001 14.9137 19.2001Z" fill="#CA5001"/>
<path d="M15.5894 20.6441C15.4426 20.6441 15.3203 20.5244 15.3203 20.3809C15.3203 20.2373 15.4426 20.1177 15.5894 20.1177C15.7361 20.1177 15.8584 20.2373 15.8584 20.3809C15.8666 20.5244 15.7443 20.6441 15.5894 20.6441Z" fill="#CA5001"/>
<path d="M16.2575 22.0953C16.0537 22.0953 15.8906 21.9358 15.8906 21.7364C15.8906 21.537 16.0537 21.3774 16.2575 21.3774C16.4613 21.3774 16.6244 21.537 16.6244 21.7364C16.6244 21.9358 16.4613 22.0953 16.2575 22.0953Z" fill="#CA5001"/>
<path d="M12.5975 17.0388C12.5486 17.0388 12.5078 16.9989 12.5078 16.951C12.5078 16.9032 12.5486 16.8633 12.5975 16.8633C12.6464 16.8633 12.6872 16.9032 12.6872 16.951C12.6872 16.9989 12.6464 17.0388 12.5975 17.0388Z" fill="#CA5001"/>
<path d="M13.2731 18.4823C13.1753 18.4823 13.0938 18.4025 13.0938 18.3068C13.0938 18.2111 13.1753 18.1313 13.2731 18.1313C13.3709 18.1313 13.4525 18.2111 13.4525 18.3068C13.4525 18.4025 13.3709 18.4823 13.2731 18.4823Z" fill="#CA5001"/>
<path d="M13.9526 19.9258C13.8059 19.9258 13.6836 19.8062 13.6836 19.6626C13.6836 19.5191 13.8059 19.3994 13.9526 19.3994C14.0994 19.3994 14.2217 19.5191 14.2217 19.6626C14.2298 19.8062 14.1075 19.9258 13.9526 19.9258Z" fill="#CA5001"/>
<path d="M14.6208 21.3775C14.417 21.3775 14.2539 21.218 14.2539 21.0186C14.2539 20.8192 14.417 20.6597 14.6208 20.6597C14.8246 20.6597 14.9877 20.8192 14.9877 21.0186C14.9877 21.218 14.8246 21.3775 14.6208 21.3775Z" fill="#CA5001"/>
<path d="M10.9608 16.321C10.9119 16.321 10.8711 16.2811 10.8711 16.2332C10.8711 16.1854 10.9119 16.1455 10.9608 16.1455C11.0097 16.1455 11.0505 16.1854 11.0505 16.2332C11.0505 16.2811 11.0097 16.321 10.9608 16.321Z" fill="#CA5001"/>
<path d="M11.6364 17.7728C11.5386 17.7728 11.457 17.6931 11.457 17.5973C11.457 17.5016 11.5386 17.4219 11.6364 17.4219C11.7342 17.4219 11.8158 17.5016 11.8158 17.5973C11.8158 17.6931 11.7342 17.7728 11.6364 17.7728Z" fill="#CA5001"/>
<path d="M12.312 19.2163C12.1653 19.2163 12.043 19.0967 12.043 18.9531C12.043 18.8096 12.1653 18.6899 12.312 18.6899C12.4588 18.6899 12.5811 18.8096 12.5811 18.9531C12.5892 19.0967 12.4669 19.2163 12.312 19.2163Z" fill="#CA5001"/>
<path d="M12.9802 20.668C12.7763 20.668 12.6133 20.5085 12.6133 20.3091C12.6133 20.1097 12.7763 19.9502 12.9802 19.9502C13.184 19.9502 13.347 20.1097 13.347 20.3091C13.347 20.5085 13.1758 20.668 12.9802 20.668Z" fill="#CA5001"/>
<path d="M9.32015 15.611C9.27123 15.611 9.23047 15.5711 9.23047 15.5233C9.23047 15.4754 9.27123 15.4355 9.32015 15.4355C9.36907 15.4355 9.40983 15.4754 9.40983 15.5233C9.40983 15.5711 9.36907 15.611 9.32015 15.611Z" fill="#CA5001"/>
<path d="M9.98796 17.0546C9.89012 17.0546 9.80859 16.9748 9.80859 16.8791C9.80859 16.7834 9.89012 16.7036 9.98796 16.7036C10.0858 16.7036 10.1673 16.7834 10.1673 16.8791C10.1755 16.9748 10.0939 17.0546 9.98796 17.0546Z" fill="#CA5001"/>
<path d="M10.6753 18.4986C10.5285 18.4986 10.4062 18.3789 10.4062 18.2354C10.4062 18.0918 10.5285 17.9722 10.6753 17.9722C10.822 17.9722 10.9443 18.0918 10.9443 18.2354C10.9443 18.3789 10.822 18.4986 10.6753 18.4986Z" fill="#CA5001"/>
<path d="M11.3434 19.9498C11.1396 19.9498 10.9766 19.7902 10.9766 19.5908C10.9766 19.3915 11.1396 19.2319 11.3434 19.2319C11.5473 19.2319 11.7103 19.3915 11.7103 19.5908C11.7103 19.7902 11.5391 19.9498 11.3434 19.9498Z" fill="#CA5001"/>
<path d="M7.67562 14.8932C7.6267 14.8932 7.58594 14.8534 7.58594 14.8055C7.58594 14.7577 7.6267 14.7178 7.67562 14.7178C7.72454 14.7178 7.7653 14.7577 7.7653 14.8055C7.7653 14.8534 7.72454 14.8932 7.67562 14.8932Z" fill="#CA5001"/>
<path d="M8.35124 16.3451C8.2534 16.3451 8.17188 16.2653 8.17188 16.1696C8.17188 16.0739 8.2534 15.9941 8.35124 15.9941C8.44907 15.9941 8.5306 16.0739 8.5306 16.1696C8.5306 16.2653 8.44907 16.3451 8.35124 16.3451Z" fill="#CA5001"/>
<path d="M9.03467 17.7886C8.88792 17.7886 8.76562 17.669 8.76562 17.5254C8.76562 17.3818 8.88792 17.2622 9.03467 17.2622C9.18142 17.2622 9.30371 17.3818 9.30371 17.5254C9.30371 17.669 9.18142 17.7886 9.03467 17.7886Z" fill="#CA5001"/>
<path d="M9.695 19.2403C9.49118 19.2403 9.32812 19.0808 9.32812 18.8814C9.32812 18.682 9.49118 18.5225 9.695 18.5225C9.89882 18.5225 10.0619 18.682 10.0619 18.8814C10.0619 19.0808 9.89882 19.2403 9.695 19.2403Z" fill="#CA5001"/>
<path d="M6.03499 14.1755C5.98608 14.1755 5.94531 14.1356 5.94531 14.0877C5.94531 14.0399 5.98608 14 6.03499 14C6.08391 14 6.12467 14.0399 6.12467 14.0877C6.12467 14.1356 6.08391 14.1755 6.03499 14.1755Z" fill="#CA5001"/>
<path d="M6.71061 15.6273C6.80967 15.6273 6.88997 15.5487 6.88997 15.4518C6.88997 15.3549 6.80967 15.2764 6.71061 15.2764C6.61155 15.2764 6.53125 15.3549 6.53125 15.4518C6.53125 15.5487 6.61155 15.6273 6.71061 15.6273Z" fill="#CA5001"/>
<path d="M7.39014 17.0708C7.24339 17.0708 7.12109 16.9512 7.12109 16.8076C7.12109 16.6641 7.24339 16.5444 7.39014 16.5444C7.53689 16.5444 7.65918 16.6641 7.65918 16.8076C7.66733 16.9512 7.54504 17.0708 7.39014 17.0708Z" fill="#CA5001"/>
<path d="M8.05828 18.5225C7.85446 18.5225 7.69141 18.363 7.69141 18.1636C7.69141 17.9642 7.85446 17.8047 8.05828 17.8047C8.2621 17.8047 8.42516 17.9642 8.42516 18.1636C8.42516 18.363 8.2621 18.5225 8.05828 18.5225Z" fill="#CA5001"/>
<path d="M9.11873 22.8851C9.04535 22.8851 8.98828 22.8293 8.98828 22.7575C8.98828 22.6857 9.04535 22.6299 9.11873 22.6299C9.1921 22.6299 9.24917 22.6857 9.24917 22.7575C9.24102 22.8213 9.18395 22.8851 9.11873 22.8851Z" fill="#CA5001"/>
<path d="M10.0887 24.8793C9.95008 24.8793 9.83594 24.7676 9.83594 24.632C9.83594 24.4964 9.95008 24.3848 10.0887 24.3848C10.2273 24.3848 10.3414 24.4964 10.3414 24.632C10.3414 24.7676 10.2273 24.8793 10.0887 24.8793Z" fill="#CA5001"/>
<path d="M11.0668 26.8733C11.2784 26.8733 11.45 26.7054 11.45 26.4984C11.45 26.2914 11.2784 26.1235 11.0668 26.1235C10.8552 26.1235 10.6836 26.2914 10.6836 26.4984C10.6836 26.7054 10.8552 26.8733 11.0668 26.8733Z" fill="#CA5001"/>
<path d="M12.0214 28.8751C11.7361 28.8751 11.5078 28.6518 11.5078 28.3726C11.5078 28.0934 11.7361 27.8701 12.0214 27.8701C12.3068 27.8701 12.5351 28.0934 12.5351 28.3726C12.5351 28.6518 12.3068 28.8751 12.0214 28.8751Z" fill="#CA5001"/>
<path d="M6.7867 21.912C6.71332 21.912 6.65625 21.8561 6.65625 21.7844C6.65625 21.7126 6.71332 21.6567 6.7867 21.6567C6.86007 21.6567 6.91714 21.7126 6.91714 21.7844C6.91714 21.8561 6.86007 21.912 6.7867 21.912Z" fill="#CA5001"/>
<path d="M7.75664 23.9061C7.61805 23.9061 7.50391 23.7945 7.50391 23.6589C7.50391 23.5233 7.61805 23.4116 7.75664 23.4116C7.89524 23.4116 8.00938 23.5233 8.00938 23.6589C8.00938 23.7945 7.89524 23.9061 7.75664 23.9061Z" fill="#CA5001"/>
<path d="M8.73475 25.9001C8.94637 25.9001 9.11793 25.7323 9.11793 25.5253C9.11793 25.3182 8.94637 25.1504 8.73475 25.1504C8.52312 25.1504 8.35156 25.3182 8.35156 25.5253C8.35156 25.7323 8.52312 25.9001 8.73475 25.9001Z" fill="#CA5001"/>
<path d="M9.68941 27.9019C9.40406 27.9019 9.17578 27.6786 9.17578 27.3995C9.17578 27.1203 9.40406 26.897 9.68941 26.897C9.97476 26.897 10.203 27.1203 10.203 27.3995C10.203 27.6786 9.97476 27.9019 9.68941 27.9019Z" fill="#CA5001"/>
<path d="M4.45466 20.9388C4.38129 20.9388 4.32422 20.883 4.32422 20.8112C4.32422 20.7394 4.38129 20.6836 4.45466 20.6836C4.52804 20.6836 4.58511 20.7394 4.58511 20.8112C4.58511 20.883 4.52804 20.9388 4.45466 20.9388Z" fill="#CA5001"/>
<path d="M5.42461 22.933C5.28601 22.933 5.17188 22.8213 5.17188 22.6857C5.17188 22.5501 5.28601 22.4385 5.42461 22.4385C5.56321 22.4385 5.67735 22.5501 5.67735 22.6857C5.6855 22.8213 5.57136 22.933 5.42461 22.933Z" fill="#CA5001"/>
<path d="M6.40271 24.927C6.61434 24.927 6.7859 24.7591 6.7859 24.5521C6.7859 24.3451 6.61434 24.1772 6.40271 24.1772C6.19109 24.1772 6.01953 24.3451 6.01953 24.5521C6.01953 24.7591 6.19109 24.927 6.40271 24.927Z" fill="#CA5001"/>
<path d="M7.36519 26.9288C7.07984 26.9288 6.85156 26.7055 6.85156 26.4263C6.85156 26.1472 7.07984 25.9238 7.36519 25.9238C7.65054 25.9238 7.87882 26.1472 7.87882 26.4263C7.87882 26.7055 7.64239 26.9288 7.36519 26.9288Z" fill="#CA5001"/>
<path d="M2.13045 19.9662C2.05707 19.9662 2 19.9103 2 19.8386C2 19.7668 2.05707 19.7109 2.13045 19.7109C2.20382 19.7109 2.26089 19.7668 2.26089 19.8386C2.25274 19.9024 2.19567 19.9662 2.13045 19.9662Z" fill="#CA5001"/>
<path d="M61.3101 19.9662C61.2368 19.9662 61.1797 19.9103 61.1797 19.8386C61.1797 19.7668 61.2368 19.7109 61.3101 19.7109C61.3835 19.7109 61.4406 19.7668 61.4406 19.8386C61.4324 19.9024 61.3754 19.9662 61.3101 19.9662Z" fill="#CA5001"/>
<path d="M3.10039 21.9598C2.9618 21.9598 2.84766 21.8482 2.84766 21.7126C2.84766 21.577 2.9618 21.4653 3.10039 21.4653C3.23899 21.4653 3.35313 21.577 3.35313 21.7126C3.35313 21.8482 3.23899 21.9598 3.10039 21.9598Z" fill="#CA5001"/>
<path d="M4.0785 23.9538C4.29012 23.9538 4.46168 23.786 4.46168 23.579C4.46168 23.3719 4.29012 23.2041 4.0785 23.2041C3.86687 23.2041 3.69531 23.3719 3.69531 23.579C3.69531 23.786 3.86687 23.9538 4.0785 23.9538Z" fill="#CA5001"/>
<path d="M5.03316 25.9556C4.74781 25.9556 4.51953 25.7323 4.51953 25.4532C4.51953 25.174 4.74781 24.9507 5.03316 24.9507C5.31851 24.9507 5.54679 25.174 5.54679 25.4532C5.54679 25.7323 5.31851 25.9556 5.03316 25.9556Z" fill="#CA5001"/>
<path d="M38.3062 29.6883C38.2328 29.6883 38.1758 29.6325 38.1758 29.5607C38.1758 29.4889 38.2328 29.4331 38.3062 29.4331C38.3796 29.4331 38.4367 29.4889 38.4367 29.5607C38.4367 29.6325 38.3796 29.6883 38.3062 29.6883Z" fill="#CA5001"/>
<path d="M37.3348 31.6903C37.1962 31.6903 37.082 31.5786 37.082 31.4431C37.082 31.3075 37.1962 31.1958 37.3348 31.1958C37.4734 31.1958 37.5875 31.3075 37.5875 31.4431C37.5875 31.5786 37.4734 31.6903 37.3348 31.6903Z" fill="#CA5001"/>
<path d="M36.3558 33.6843C36.5675 33.6843 36.739 33.5165 36.739 33.3094C36.739 33.1024 36.5675 32.9346 36.3558 32.9346C36.1442 32.9346 35.9727 33.1024 35.9727 33.3094C35.9727 33.5165 36.1442 33.6843 36.3558 33.6843Z" fill="#CA5001"/>
<path d="M35.4003 35.6866C35.115 35.6866 34.8867 35.4633 34.8867 35.1841C34.8867 34.905 35.115 34.6816 35.4003 34.6816C35.6857 34.6816 35.914 34.905 35.914 35.1841C35.914 35.4633 35.6775 35.6866 35.4003 35.6866Z" fill="#CA5001"/>
<path d="M40.6344 28.7157C40.561 28.7157 40.5039 28.6598 40.5039 28.5881C40.5039 28.5163 40.561 28.4604 40.6344 28.4604C40.7077 28.4604 40.7648 28.5163 40.7648 28.5881C40.7566 28.6598 40.6996 28.7157 40.6344 28.7157Z" fill="#CA5001"/>
<path d="M39.6668 30.7176C39.5282 30.7176 39.4141 30.606 39.4141 30.4704C39.4141 30.3348 39.5282 30.2231 39.6668 30.2231C39.8054 30.2231 39.9195 30.3348 39.9195 30.4704C39.9195 30.606 39.8054 30.7176 39.6668 30.7176Z" fill="#CA5001"/>
<path d="M38.6879 32.7112C38.8995 32.7112 39.0711 32.5433 39.0711 32.3363C39.0711 32.1293 38.8995 31.9614 38.6879 31.9614C38.4762 31.9614 38.3047 32.1293 38.3047 32.3363C38.3047 32.5433 38.4762 32.7112 38.6879 32.7112Z" fill="#CA5001"/>
<path d="M37.7246 34.7135C37.4392 34.7135 37.2109 34.4901 37.2109 34.211C37.2109 33.9318 37.4392 33.7085 37.7246 33.7085C38.0099 33.7085 38.2382 33.9318 38.2382 34.211C38.2382 34.4901 38.0099 34.7135 37.7246 34.7135Z" fill="#CA5001"/>
<path d="M42.9586 27.7425C42.8852 27.7425 42.8281 27.6867 42.8281 27.6149C42.8281 27.5431 42.8852 27.4873 42.9586 27.4873C43.0319 27.4873 43.089 27.5431 43.089 27.6149C43.089 27.6867 43.0319 27.7425 42.9586 27.7425Z" fill="#CA5001"/>
<path d="M41.991 29.7445C41.8524 29.7445 41.7383 29.6328 41.7383 29.4973C41.7383 29.3617 41.8524 29.25 41.991 29.25C42.1296 29.25 42.2438 29.3617 42.2438 29.4973C42.2438 29.6328 42.1378 29.7445 41.991 29.7445Z" fill="#CA5001"/>
<path d="M41.0121 31.7385C41.2237 31.7385 41.3953 31.5707 41.3953 31.3636C41.3953 31.1566 41.2237 30.9888 41.0121 30.9888C40.8005 30.9888 40.6289 31.1566 40.6289 31.3636C40.6289 31.5707 40.8005 31.7385 41.0121 31.7385Z" fill="#CA5001"/>
<path d="M40.0566 33.7403C39.7712 33.7403 39.543 33.517 39.543 33.2378C39.543 32.9587 39.7712 32.7354 40.0566 32.7354C40.3419 32.7354 40.5702 32.9587 40.5702 33.2378C40.5702 33.517 40.3419 33.7403 40.0566 33.7403Z" fill="#CA5001"/>
<path d="M45.2906 26.7694C45.2172 26.7694 45.1602 26.7136 45.1602 26.6418C45.1602 26.57 45.2172 26.5142 45.2906 26.5142C45.364 26.5142 45.421 26.57 45.421 26.6418C45.421 26.7136 45.364 26.7694 45.2906 26.7694Z" fill="#CA5001"/>
<path d="M44.323 28.7714C44.1845 28.7714 44.0703 28.6597 44.0703 28.5241C44.0703 28.3885 44.1845 28.2769 44.323 28.2769C44.4616 28.2769 44.5758 28.3885 44.5758 28.5241C44.5758 28.6597 44.4616 28.7714 44.323 28.7714Z" fill="#CA5001"/>
<path d="M43.3441 30.7654C43.5557 30.7654 43.7273 30.5975 43.7273 30.3905C43.7273 30.1835 43.5557 30.0156 43.3441 30.0156C43.1325 30.0156 42.9609 30.1835 42.9609 30.3905C42.9609 30.5975 43.1325 30.7654 43.3441 30.7654Z" fill="#CA5001"/>
<path d="M42.3886 32.7672C42.1033 32.7672 41.875 32.5438 41.875 32.2647C41.875 31.9855 42.1033 31.7622 42.3886 31.7622C42.674 31.7622 42.9023 31.9855 42.9023 32.2647C42.9023 32.5438 42.6658 32.7672 42.3886 32.7672Z" fill="#CA5001"/>
<path d="M47.6226 25.7962C47.5493 25.7962 47.4922 25.7404 47.4922 25.6686C47.4922 25.5968 47.5493 25.541 47.6226 25.541C47.696 25.541 47.7531 25.5968 47.7531 25.6686C47.7449 25.7404 47.6879 25.7962 47.6226 25.7962Z" fill="#CA5001"/>
<path d="M46.6512 27.7982C46.5126 27.7982 46.3984 27.6866 46.3984 27.551C46.3984 27.4154 46.5126 27.3037 46.6512 27.3037C46.7898 27.3037 46.9039 27.4154 46.9039 27.551C46.9039 27.6866 46.7898 27.7982 46.6512 27.7982Z" fill="#CA5001"/>
<path d="M45.6762 29.7922C45.8878 29.7922 46.0593 29.6244 46.0593 29.4173C46.0593 29.2103 45.8878 29.0425 45.6762 29.0425C45.4645 29.0425 45.293 29.2103 45.293 29.4173C45.293 29.6244 45.4645 29.7922 45.6762 29.7922Z" fill="#CA5001"/>
<path d="M44.7128 31.794C44.4275 31.794 44.1992 31.5707 44.1992 31.2915C44.1992 31.0124 44.4275 30.7891 44.7128 30.7891C44.9982 30.7891 45.2265 31.0124 45.2265 31.2915C45.2265 31.5707 44.9982 31.794 44.7128 31.794Z" fill="#CA5001"/>
<path d="M49.9469 24.8231C49.8735 24.8231 49.8164 24.7673 49.8164 24.6955C49.8164 24.6237 49.8735 24.5679 49.9469 24.5679C50.0202 24.5679 50.0773 24.6237 50.0773 24.6955C50.0773 24.7673 50.0202 24.8231 49.9469 24.8231Z" fill="#CA5001"/>
<path d="M48.9754 26.8251C48.8368 26.8251 48.7227 26.7134 48.7227 26.5778C48.7227 26.4422 48.8368 26.3306 48.9754 26.3306C49.114 26.3306 49.2281 26.4422 49.2281 26.5778C49.2363 26.7134 49.1221 26.8251 48.9754 26.8251Z" fill="#CA5001"/>
<path d="M47.9965 28.8191C48.2081 28.8191 48.3797 28.6512 48.3797 28.4442C48.3797 28.2372 48.2081 28.0693 47.9965 28.0693C47.7848 28.0693 47.6133 28.2372 47.6133 28.4442C47.6133 28.6512 47.7848 28.8191 47.9965 28.8191Z" fill="#CA5001"/>
<path d="M47.0449 30.8209C46.7595 30.8209 46.5312 30.5976 46.5312 30.3184C46.5312 30.0392 46.7595 29.8159 47.0449 29.8159C47.3302 29.8159 47.5585 30.0392 47.5585 30.3184C47.5585 30.5976 47.3302 30.8209 47.0449 30.8209Z" fill="#CA5001"/>
<path d="M52.2789 23.8583C52.2055 23.8583 52.1484 23.8024 52.1484 23.7306C52.1484 23.6589 52.2055 23.603 52.2789 23.603C52.3523 23.603 52.4093 23.6589 52.4093 23.7306C52.4093 23.7944 52.3523 23.8583 52.2789 23.8583Z" fill="#CA5001"/>
<path d="M51.3074 25.8519C51.1688 25.8519 51.0547 25.7403 51.0547 25.6047C51.0547 25.4691 51.1688 25.3574 51.3074 25.3574C51.446 25.3574 51.5602 25.4691 51.5602 25.6047C51.5602 25.7403 51.446 25.8519 51.3074 25.8519Z" fill="#CA5001"/>
<path d="M50.3285 27.8459C50.5401 27.8459 50.7117 27.6781 50.7117 27.4711C50.7117 27.264 50.5401 27.0962 50.3285 27.0962C50.1169 27.0962 49.9453 27.264 49.9453 27.4711C49.9453 27.6781 50.1169 27.8459 50.3285 27.8459Z" fill="#CA5001"/>
<path d="M49.3769 29.8482C49.0916 29.8482 48.8633 29.6249 48.8633 29.3457C48.8633 29.0666 49.0916 28.8433 49.3769 28.8433C49.6623 28.8433 49.8905 29.0666 49.8905 29.3457C49.8905 29.6249 49.6541 29.8482 49.3769 29.8482Z" fill="#CA5001"/>
<path d="M54.6109 22.8851C54.5375 22.8851 54.4805 22.8293 54.4805 22.7575C54.4805 22.6857 54.5375 22.6299 54.6109 22.6299C54.6843 22.6299 54.7414 22.6857 54.7414 22.7575C54.7332 22.8213 54.6761 22.8851 54.6109 22.8851Z" fill="#CA5001"/>
<path d="M53.6395 24.8793C53.5009 24.8793 53.3867 24.7676 53.3867 24.632C53.3867 24.4964 53.5009 24.3848 53.6395 24.3848C53.7781 24.3848 53.8922 24.4964 53.8922 24.632C53.8922 24.7676 53.7781 24.8793 53.6395 24.8793Z" fill="#CA5001"/>
<path d="M52.6605 26.8733C52.8722 26.8733 53.0437 26.7054 53.0437 26.4984C53.0437 26.2914 52.8722 26.1235 52.6605 26.1235C52.4489 26.1235 52.2773 26.2914 52.2773 26.4984C52.2773 26.7054 52.4489 26.8733 52.6605 26.8733Z" fill="#CA5001"/>
<path d="M51.7011 28.8751C51.4158 28.8751 51.1875 28.6518 51.1875 28.3726C51.1875 28.0934 51.4158 27.8701 51.7011 27.8701C51.9865 27.8701 52.2148 28.0934 52.2148 28.3726C52.2148 28.6518 51.9865 28.8751 51.7011 28.8751Z" fill="#CA5001"/>
<path d="M56.9351 21.912C56.8618 21.912 56.8047 21.8561 56.8047 21.7844C56.8047 21.7126 56.8618 21.6567 56.9351 21.6567C57.0085 21.6567 57.0656 21.7126 57.0656 21.7844C57.0656 21.8561 57.0085 21.912 56.9351 21.912Z" fill="#CA5001"/>
<path d="M55.9637 23.9061C55.8251 23.9061 55.7109 23.7945 55.7109 23.6589C55.7109 23.5233 55.8251 23.4116 55.9637 23.4116C56.1023 23.4116 56.2164 23.5233 56.2164 23.6589C56.2164 23.7945 56.1104 23.9061 55.9637 23.9061Z" fill="#CA5001"/>
<path d="M54.9847 25.9001C55.1964 25.9001 55.3679 25.7323 55.3679 25.5253C55.3679 25.3182 55.1964 25.1504 54.9847 25.1504C54.7731 25.1504 54.6016 25.3182 54.6016 25.5253C54.6016 25.7323 54.7731 25.9001 54.9847 25.9001Z" fill="#CA5001"/>
<path d="M54.0332 27.9019C53.7478 27.9019 53.5195 27.6786 53.5195 27.3995C53.5195 27.1203 53.7478 26.897 54.0332 26.897C54.3185 26.897 54.5468 27.1203 54.5468 27.3995C54.5468 27.6786 54.3185 27.9019 54.0332 27.9019Z" fill="#CA5001"/>
<path d="M59.2672 20.9388C59.1938 20.9388 59.1367 20.883 59.1367 20.8112C59.1367 20.7394 59.1938 20.6836 59.2672 20.6836C59.3405 20.6836 59.3976 20.7394 59.3976 20.8112C59.3976 20.883 59.3405 20.9388 59.2672 20.9388Z" fill="#CA5001"/>
<path d="M58.2957 22.933C58.1571 22.933 58.043 22.8213 58.043 22.6857C58.043 22.5501 58.1571 22.4385 58.2957 22.4385C58.4343 22.4385 58.5484 22.5501 58.5484 22.6857C58.5484 22.8213 58.4343 22.933 58.2957 22.933Z" fill="#CA5001"/>
<path d="M57.3168 24.927C57.5284 24.927 57.7 24.7591 57.7 24.5521C57.7 24.3451 57.5284 24.1772 57.3168 24.1772C57.1052 24.1772 56.9336 24.3451 56.9336 24.5521C56.9336 24.7591 57.1052 24.927 57.3168 24.927Z" fill="#CA5001"/>
<path d="M56.3613 26.9288C56.0759 26.9288 55.8477 26.7055 55.8477 26.4263C55.8477 26.1472 56.0759 25.9238 56.3613 25.9238C56.6466 25.9238 56.8749 26.1472 56.8749 26.4263C56.8749 26.7055 56.6385 26.9288 56.3613 26.9288Z" fill="#CA5001"/>
<path d="M60.6277 21.9598C60.4891 21.9598 60.375 21.8482 60.375 21.7126C60.375 21.577 60.4891 21.4653 60.6277 21.4653C60.7663 21.4653 60.8805 21.577 60.8805 21.7126C60.8805 21.8482 60.7663 21.9598 60.6277 21.9598Z" fill="#CA5001"/>
<path d="M59.6488 23.9538C59.8604 23.9538 60.032 23.786 60.032 23.579C60.032 23.3719 59.8604 23.2041 59.6488 23.2041C59.4372 23.2041 59.2656 23.3719 59.2656 23.579C59.2656 23.786 59.4372 23.9538 59.6488 23.9538Z" fill="#CA5001"/>
<path d="M58.6855 25.9556C58.4002 25.9556 58.1719 25.7323 58.1719 25.4532C58.1719 25.174 58.4002 24.9507 58.6855 24.9507C58.9709 24.9507 59.1991 25.174 59.1991 25.4532C59.1991 25.7323 58.9709 25.9556 58.6855 25.9556Z" fill="#CA5001"/>
<path d="M29.2066 37.728C29.5623 37.728 29.8506 37.4459 29.8506 37.0979C29.8506 36.7499 29.5623 36.4678 29.2066 36.4678C28.8509 36.4678 28.5625 36.7499 28.5625 37.0979C28.5625 37.4459 28.8509 37.728 29.2066 37.728Z" fill="#C57D0A"/>
<path d="M26.8824 36.7548C27.2381 36.7548 27.5264 36.4727 27.5264 36.1247C27.5264 35.7767 27.2381 35.4946 26.8824 35.4946C26.5266 35.4946 26.2383 35.7767 26.2383 36.1247C26.2383 36.4727 26.5266 36.7548 26.8824 36.7548Z" fill="#C57D0A"/>
<path d="M24.5503 35.7822C24.906 35.7822 25.1944 35.5001 25.1944 35.1521C25.1944 34.8041 24.906 34.522 24.5503 34.522C24.1946 34.522 23.9062 34.8041 23.9062 35.1521C23.9062 35.5001 24.1946 35.7822 24.5503 35.7822Z" fill="#C57D0A"/>
<path d="M22.2183 34.809C22.574 34.809 22.8624 34.5269 22.8624 34.1789C22.8624 33.8309 22.574 33.5488 22.2183 33.5488C21.8626 33.5488 21.5742 33.8309 21.5742 34.1789C21.5742 34.5269 21.8626 34.809 22.2183 34.809Z" fill="#C57D0A"/>
<path d="M19.8941 33.8359C20.2498 33.8359 20.5381 33.5538 20.5381 33.2058C20.5381 32.8578 20.2498 32.5757 19.8941 32.5757C19.5384 32.5757 19.25 32.8578 19.25 33.2058C19.25 33.5538 19.5384 33.8359 19.8941 33.8359Z" fill="#C57D0A"/>
<path d="M17.562 32.8627C17.9178 32.8627 18.2061 32.5806 18.2061 32.2326C18.2061 31.8846 17.9178 31.6025 17.562 31.6025C17.2063 31.6025 16.918 31.8846 16.918 32.2326C16.918 32.5806 17.2063 32.8627 17.562 32.8627Z" fill="#C57D0A"/>
<path d="M15.2339 31.8896C15.5896 31.8896 15.878 31.6075 15.878 31.2595C15.878 30.9115 15.5896 30.6294 15.2339 30.6294C14.8782 30.6294 14.5898 30.9115 14.5898 31.2595C14.5898 31.6075 14.8782 31.8896 15.2339 31.8896Z" fill="#C57D0A"/>
<path d="M12.9097 30.9164C13.2654 30.9164 13.5538 30.6343 13.5538 30.2863C13.5538 29.9384 13.2654 29.6562 12.9097 29.6562C12.554 29.6562 12.2656 29.9384 12.2656 30.2863C12.2656 30.6343 12.554 30.9164 12.9097 30.9164Z" fill="#C57D0A"/>
<path d="M10.5777 29.9438C10.9334 29.9438 11.2217 29.6617 11.2217 29.3137C11.2217 28.9657 10.9334 28.6836 10.5777 28.6836C10.222 28.6836 9.93359 28.9657 9.93359 29.3137C9.93359 29.6617 10.222 29.9438 10.5777 29.9438Z" fill="#C57D0A"/>
<path d="M8.24564 28.9706C8.60135 28.9706 8.88971 28.6885 8.88971 28.3405C8.88971 27.9926 8.60135 27.7104 8.24564 27.7104C7.88992 27.7104 7.60156 27.9926 7.60156 28.3405C7.60156 28.6885 7.88992 28.9706 8.24564 28.9706Z" fill="#C57D0A"/>
<path d="M5.92142 27.9975C6.27713 27.9975 6.56549 27.7154 6.56549 27.3674C6.56549 27.0194 6.27713 26.7373 5.92142 26.7373C5.56571 26.7373 5.27734 27.0194 5.27734 27.3674C5.27734 27.7154 5.56571 27.9975 5.92142 27.9975Z" fill="#C57D0A"/>
<path d="M34.5152 37.728C34.8709 37.728 35.1592 37.4459 35.1592 37.0979C35.1592 36.7499 34.8709 36.4678 34.5152 36.4678C34.1595 36.4678 33.8711 36.7499 33.8711 37.0979C33.8711 37.4459 34.1595 37.728 34.5152 37.728Z" fill="#C57D0A"/>
<path d="M36.8433 36.7548C37.199 36.7548 37.4874 36.4727 37.4874 36.1247C37.4874 35.7767 37.199 35.4946 36.8433 35.4946C36.4876 35.4946 36.1992 35.7767 36.1992 36.1247C36.1992 36.4727 36.4876 36.7548 36.8433 36.7548Z" fill="#C57D0A"/>
<path d="M39.1675 35.7822C39.5232 35.7822 39.8116 35.5001 39.8116 35.1521C39.8116 34.8041 39.5232 34.522 39.1675 34.522C38.8118 34.522 38.5234 34.8041 38.5234 35.1521C38.5234 35.5001 38.8118 35.7822 39.1675 35.7822Z" fill="#C57D0A"/>
<path d="M41.4995 34.809C41.8553 34.809 42.1436 34.5269 42.1436 34.1789C42.1436 33.8309 41.8553 33.5488 41.4995 33.5488C41.1438 33.5488 40.8555 33.8309 40.8555 34.1789C40.8555 34.5269 41.1438 34.809 41.4995 34.809Z" fill="#C57D0A"/>
<path d="M43.8316 33.8359C44.1873 33.8359 44.4756 33.5538 44.4756 33.2058C44.4756 32.8578 44.1873 32.5757 43.8316 32.5757C43.4759 32.5757 43.1875 32.8578 43.1875 33.2058C43.1875 33.5538 43.4759 33.8359 43.8316 33.8359Z" fill="#C57D0A"/>
<path d="M46.1558 32.8627C46.5115 32.8627 46.7999 32.5806 46.7999 32.2326C46.7999 31.8846 46.5115 31.6025 46.1558 31.6025C45.8001 31.6025 45.5117 31.8846 45.5117 32.2326C45.5117 32.5806 45.8001 32.8627 46.1558 32.8627Z" fill="#C57D0A"/>
<path d="M48.4878 31.8896C48.8435 31.8896 49.1319 31.6075 49.1319 31.2595C49.1319 30.9115 48.8435 30.6294 48.4878 30.6294C48.1321 30.6294 47.8438 30.9115 47.8438 31.2595C47.8438 31.6075 48.1321 31.8896 48.4878 31.8896Z" fill="#C57D0A"/>
<path d="M50.8199 30.9164C51.1756 30.9164 51.4639 30.6343 51.4639 30.2863C51.4639 29.9384 51.1756 29.6562 50.8199 29.6562C50.4641 29.6562 50.1758 29.9384 50.1758 30.2863C50.1758 30.6343 50.4641 30.9164 50.8199 30.9164Z" fill="#C57D0A"/>
<path d="M53.1441 29.9438C53.4998 29.9438 53.7881 29.6617 53.7881 29.3137C53.7881 28.9657 53.4998 28.6836 53.1441 28.6836C52.7884 28.6836 52.5 28.9657 52.5 29.3137C52.5 29.6617 52.7884 29.9438 53.1441 29.9438Z" fill="#C57D0A"/>
<path d="M55.4761 28.9706C55.8318 28.9706 56.1202 28.6885 56.1202 28.3405C56.1202 27.9926 55.8318 27.7104 55.4761 27.7104C55.1204 27.7104 54.832 27.9926 54.832 28.3405C54.832 28.6885 55.1204 28.9706 55.4761 28.9706Z" fill="#C57D0A"/>
<path d="M57.8042 27.9975C58.1599 27.9975 58.4483 27.7154 58.4483 27.3674C58.4483 27.0194 58.1599 26.7373 57.8042 26.7373C57.4485 26.7373 57.1602 27.0194 57.1602 27.3674C57.1602 27.7154 57.4485 27.9975 57.8042 27.9975Z" fill="#C57D0A"/>
<path d="M40.9881 21.3298C40.9392 21.3298 40.8984 21.2899 40.8984 21.242C40.8984 21.1942 40.9392 21.1543 40.9881 21.1543C41.037 21.1543 41.0778 21.1942 41.0778 21.242C41.0778 21.2899 41.037 21.3298 40.9881 21.3298Z" fill="#CA5001"/>
<path d="M40.3083 22.7733C40.2104 22.7733 40.1289 22.6935 40.1289 22.5978C40.1289 22.5021 40.2104 22.4224 40.3083 22.4224C40.4061 22.4224 40.4876 22.5021 40.4876 22.5978C40.4876 22.6935 40.4061 22.7733 40.3083 22.7733Z" fill="#CA5001"/>
<path d="M39.6245 24.2173C39.4778 24.2173 39.3555 24.0977 39.3555 23.9541C39.3555 23.8106 39.4778 23.6909 39.6245 23.6909C39.7713 23.6909 39.8936 23.8106 39.8936 23.9541C39.9017 24.0977 39.7794 24.2173 39.6245 24.2173Z" fill="#CA5001"/>
<path d="M38.9645 25.6685C38.7607 25.6685 38.5977 25.509 38.5977 25.3096C38.5977 25.1102 38.7607 24.9507 38.9645 24.9507C39.1684 24.9507 39.3314 25.1102 39.3314 25.3096C39.3314 25.509 39.1602 25.6685 38.9645 25.6685Z" fill="#CA5001"/>
<path d="M42.6248 20.612C42.5759 20.612 42.5352 20.5721 42.5352 20.5243C42.5352 20.4764 42.5759 20.4365 42.6248 20.4365C42.6738 20.4365 42.7145 20.4764 42.7145 20.5243C42.7145 20.5721 42.6738 20.612 42.6248 20.612Z" fill="#CA5001"/>
<path d="M41.9489 22.0555C41.8511 22.0555 41.7695 21.9758 41.7695 21.8801C41.7695 21.7843 41.8511 21.7046 41.9489 21.7046C42.0467 21.7046 42.1283 21.7843 42.1283 21.8801C42.1283 21.9758 42.0467 22.0555 41.9489 22.0555Z" fill="#CA5001"/>
<path d="M41.273 23.5074C41.1262 23.5074 41.0039 23.3877 41.0039 23.2442C41.0039 23.1006 41.1262 22.981 41.273 22.981C41.4197 22.981 41.542 23.1006 41.542 23.2442C41.542 23.3877 41.4197 23.5074 41.273 23.5074Z" fill="#CA5001"/>
<path d="M40.6052 24.959C40.8078 24.959 40.972 24.7983 40.972 24.6001C40.972 24.4019 40.8078 24.2412 40.6052 24.2412C40.4025 24.2412 40.2383 24.4019 40.2383 24.6001C40.2383 24.7983 40.4025 24.959 40.6052 24.959Z" fill="#CA5001"/>
<path d="M44.2655 19.8942C44.315 19.8942 44.3551 19.8549 44.3551 19.8065C44.3551 19.758 44.315 19.7188 44.2655 19.7188C44.2159 19.7188 44.1758 19.758 44.1758 19.8065C44.1758 19.8549 44.2159 19.8942 44.2655 19.8942Z" fill="#CA5001"/>
<path d="M43.5895 21.3456C43.4917 21.3456 43.4102 21.2658 43.4102 21.1701C43.4102 21.0744 43.4917 20.9946 43.5895 20.9946C43.6874 20.9946 43.7689 21.0744 43.7689 21.1701C43.777 21.2658 43.6955 21.3456 43.5895 21.3456Z" fill="#CA5001"/>
<path d="M42.9097 22.7896C42.7629 22.7896 42.6406 22.67 42.6406 22.5264C42.6406 22.3828 42.7629 22.2632 42.9097 22.2632C43.0564 22.2632 43.1787 22.3828 43.1787 22.5264C43.1787 22.67 43.0564 22.7896 42.9097 22.7896Z" fill="#CA5001"/>
<path d="M42.2419 24.2408C42.0381 24.2408 41.875 24.0813 41.875 23.8819C41.875 23.6825 42.0381 23.5229 42.2419 23.5229C42.4457 23.5229 42.6088 23.6825 42.6088 23.8819C42.6088 24.0813 42.4457 24.2408 42.2419 24.2408Z" fill="#CA5001"/>
<path d="M45.9022 19.1843C45.8533 19.1843 45.8125 19.1444 45.8125 19.0965C45.8125 19.0487 45.8533 19.0088 45.9022 19.0088C45.9511 19.0088 45.9919 19.0487 45.9919 19.0965C45.9919 19.1444 45.9511 19.1843 45.9022 19.1843Z" fill="#CA5001"/>
<path d="M45.2341 20.6278C45.1362 20.6278 45.0547 20.548 45.0547 20.4523C45.0547 20.3566 45.1362 20.2769 45.2341 20.2769C45.3319 20.2769 45.4134 20.3566 45.4134 20.4523C45.4134 20.548 45.3319 20.6278 45.2341 20.6278Z" fill="#CA5001"/>
<path d="M44.5503 22.0713C44.4035 22.0713 44.2812 21.9517 44.2812 21.8081C44.2812 21.6646 44.4035 21.5449 44.5503 21.5449C44.6971 21.5449 44.8193 21.6646 44.8193 21.8081C44.8275 21.9517 44.7052 22.0713 44.5503 22.0713Z" fill="#CA5001"/>
<path d="M43.8825 23.5313C44.0851 23.5313 44.2494 23.3706 44.2494 23.1724C44.2494 22.9742 44.0851 22.8135 43.8825 22.8135C43.6799 22.8135 43.5156 22.9742 43.5156 23.1724C43.5156 23.3706 43.6799 23.5313 43.8825 23.5313Z" fill="#CA5001"/>
<path d="M47.5506 18.4665C47.6002 18.4665 47.6403 18.4272 47.6403 18.3788C47.6403 18.3303 47.6002 18.291 47.5506 18.291C47.5011 18.291 47.4609 18.3303 47.4609 18.3788C47.4609 18.4272 47.5011 18.4665 47.5506 18.4665Z" fill="#CA5001"/>
<path d="M46.8747 19.9183C46.7768 19.9183 46.6953 19.8386 46.6953 19.7429C46.6953 19.6471 46.7768 19.5674 46.8747 19.5674C46.9725 19.5674 47.054 19.6471 47.054 19.7429C47.054 19.8386 46.9725 19.9183 46.8747 19.9183Z" fill="#CA5001"/>
<path d="M46.187 21.3619C46.0403 21.3619 45.918 21.2422 45.918 21.0987C45.918 20.9551 46.0403 20.8354 46.187 20.8354C46.3338 20.8354 46.4561 20.9551 46.4561 21.0987C46.4642 21.2422 46.3419 21.3619 46.187 21.3619Z" fill="#CA5001"/>
<path d="M45.527 22.8135C45.3232 22.8135 45.1602 22.654 45.1602 22.4546C45.1602 22.2552 45.3232 22.0957 45.527 22.0957C45.7309 22.0957 45.8939 22.2552 45.8939 22.4546C45.8939 22.654 45.7227 22.8135 45.527 22.8135Z" fill="#CA5001"/>
<path d="M49.1873 17.7565C49.1384 17.7565 49.0977 17.7166 49.0977 17.6688C49.0977 17.6209 49.1384 17.5811 49.1873 17.5811C49.2363 17.5811 49.277 17.6209 49.277 17.6688C49.277 17.7166 49.2363 17.7565 49.1873 17.7565Z" fill="#CA5001"/>
<path d="M48.5114 19.2001C48.4136 19.2001 48.332 19.1203 48.332 19.0246C48.332 18.9289 48.4136 18.8491 48.5114 18.8491C48.6092 18.8491 48.6908 18.9289 48.6908 19.0246C48.6908 19.1203 48.6092 19.2001 48.5114 19.2001Z" fill="#CA5001"/>
<path d="M47.8354 20.6441C47.6887 20.6441 47.5664 20.5244 47.5664 20.3809C47.5664 20.2373 47.6887 20.1177 47.8354 20.1177C47.9822 20.1177 48.1045 20.2373 48.1045 20.3809C48.1045 20.5244 47.9822 20.6441 47.8354 20.6441Z" fill="#CA5001"/>
<path d="M47.1677 22.0953C46.9638 22.0953 46.8008 21.9358 46.8008 21.7364C46.8008 21.537 46.9638 21.3774 47.1677 21.3774C47.3715 21.3774 47.5345 21.537 47.5345 21.7364C47.5345 21.9358 47.3633 22.0953 47.1677 22.0953Z" fill="#CA5001"/>
<path d="M50.828 17.0388C50.779 17.0388 50.7383 16.9989 50.7383 16.951C50.7383 16.9032 50.779 16.8633 50.828 16.8633C50.8769 16.8633 50.9176 16.9032 50.9176 16.951C50.9176 16.9989 50.8769 17.0388 50.828 17.0388Z" fill="#CA5001"/>
<path d="M50.152 18.4823C50.0542 18.4823 49.9727 18.4025 49.9727 18.3068C49.9727 18.2111 50.0542 18.1313 50.152 18.1313C50.2498 18.1313 50.3314 18.2111 50.3314 18.3068C50.3395 18.4025 50.258 18.4823 50.152 18.4823Z" fill="#CA5001"/>
<path d="M49.4722 19.9258C49.3254 19.9258 49.2031 19.8062 49.2031 19.6626C49.2031 19.5191 49.3254 19.3994 49.4722 19.3994C49.6189 19.3994 49.7412 19.5191 49.7412 19.6626C49.7412 19.8062 49.6189 19.9258 49.4722 19.9258Z" fill="#CA5001"/>
<path d="M48.8044 21.3775C48.6006 21.3775 48.4375 21.218 48.4375 21.0186C48.4375 20.8192 48.6006 20.6597 48.8044 20.6597C49.0082 20.6597 49.1712 20.8192 49.1712 21.0186C49.1712 21.218 49.0082 21.3775 48.8044 21.3775Z" fill="#CA5001"/>
<path d="M52.4647 16.321C52.4158 16.321 52.375 16.2811 52.375 16.2332C52.375 16.1854 52.4158 16.1455 52.4647 16.1455C52.5136 16.1455 52.5544 16.1854 52.5544 16.2332C52.5544 16.2811 52.5136 16.321 52.4647 16.321Z" fill="#CA5001"/>
<path d="M51.7966 17.7728C51.6987 17.7728 51.6172 17.6931 51.6172 17.5973C51.6172 17.5016 51.6987 17.4219 51.7966 17.4219C51.8944 17.4219 51.9759 17.5016 51.9759 17.5973C51.9759 17.6931 51.8944 17.7728 51.7966 17.7728Z" fill="#CA5001"/>
<path d="M51.1128 19.2163C50.966 19.2163 50.8438 19.0967 50.8438 18.9531C50.8438 18.8096 50.966 18.6899 51.1128 18.6899C51.2595 18.6899 51.3818 18.8096 51.3818 18.9531C51.39 19.0967 51.2677 19.2163 51.1128 19.2163Z" fill="#CA5001"/>
<path d="M50.445 20.668C50.2412 20.668 50.0781 20.5085 50.0781 20.3091C50.0781 20.1097 50.2412 19.9502 50.445 19.9502C50.6488 19.9502 50.8119 20.1097 50.8119 20.3091C50.8119 20.5085 50.6488 20.668 50.445 20.668Z" fill="#CA5001"/>
<path d="M54.1053 15.611C54.0564 15.611 54.0156 15.5711 54.0156 15.5233C54.0156 15.4754 54.0564 15.4355 54.1053 15.4355C54.1542 15.4355 54.195 15.4754 54.195 15.5233C54.2031 15.5711 54.1624 15.611 54.1053 15.611Z" fill="#CA5001"/>
<path d="M53.4372 17.0546C53.3393 17.0546 53.2578 16.9748 53.2578 16.8791C53.2578 16.7834 53.3393 16.7036 53.4372 16.7036C53.535 16.7036 53.6165 16.7834 53.6165 16.8791C53.6165 16.9748 53.535 17.0546 53.4372 17.0546Z" fill="#CA5001"/>
<path d="M52.7495 18.4986C52.6028 18.4986 52.4805 18.3789 52.4805 18.2354C52.4805 18.0918 52.6028 17.9722 52.7495 17.9722C52.8963 17.9722 53.0186 18.0918 53.0186 18.2354C53.0267 18.3789 52.9044 18.4986 52.7495 18.4986Z" fill="#CA5001"/>
<path d="M52.0895 19.9498C51.8857 19.9498 51.7227 19.7902 51.7227 19.5908C51.7227 19.3915 51.8857 19.2319 52.0895 19.2319C52.2934 19.2319 52.4564 19.3915 52.4564 19.5908C52.4564 19.7902 52.2852 19.9498 52.0895 19.9498Z" fill="#CA5001"/>
<path d="M55.7498 14.8932C55.7009 14.8932 55.6602 14.8534 55.6602 14.8055C55.6602 14.7577 55.7009 14.7178 55.7498 14.7178C55.7988 14.7178 55.8395 14.7577 55.8395 14.8055C55.8395 14.8534 55.7988 14.8932 55.7498 14.8932Z" fill="#CA5001"/>
<path d="M55.0739 16.3451C54.9761 16.3451 54.8945 16.2653 54.8945 16.1696C54.8945 16.0739 54.9761 15.9941 55.0739 15.9941C55.1717 15.9941 55.2533 16.0739 55.2533 16.1696C55.2533 16.2653 55.1717 16.3451 55.0739 16.3451Z" fill="#CA5001"/>
<path d="M54.3979 17.7886C54.2512 17.7886 54.1289 17.669 54.1289 17.5254C54.1289 17.3818 54.2512 17.2622 54.3979 17.2622C54.5447 17.2622 54.667 17.3818 54.667 17.5254C54.667 17.669 54.5447 17.7886 54.3979 17.7886Z" fill="#CA5001"/>
<path d="M53.7302 19.2403C53.5263 19.2403 53.3633 19.0808 53.3633 18.8814C53.3633 18.682 53.5263 18.5225 53.7302 18.5225C53.934 18.5225 54.097 18.682 54.097 18.8814C54.097 19.0808 53.9258 19.2403 53.7302 19.2403Z" fill="#CA5001"/>
<path d="M57.3905 14.1755C57.3415 14.1755 57.3008 14.1356 57.3008 14.0877C57.3008 14.0399 57.3415 14 57.3905 14C57.4394 14 57.4801 14.0399 57.4801 14.0877C57.4801 14.1356 57.4394 14.1755 57.3905 14.1755Z" fill="#CA5001"/>
<path d="M56.7145 15.6273C56.6167 15.6273 56.5352 15.5475 56.5352 15.4518C56.5352 15.3561 56.6167 15.2764 56.7145 15.2764C56.8123 15.2764 56.8939 15.3561 56.8939 15.4518C56.902 15.5475 56.8205 15.6273 56.7145 15.6273Z" fill="#CA5001"/>
<path d="M56.0386 17.0708C55.8918 17.0708 55.7695 16.9512 55.7695 16.8076C55.7695 16.6641 55.8918 16.5444 56.0386 16.5444C56.1853 16.5444 56.3076 16.6641 56.3076 16.8076C56.3076 16.9512 56.1853 17.0708 56.0386 17.0708Z" fill="#CA5001"/>
<path d="M55.3669 18.5225C55.1631 18.5225 55 18.363 55 18.1636C55 17.9642 55.1631 17.8047 55.3669 17.8047C55.5707 17.8047 55.7338 17.9642 55.7338 18.1636C55.7338 18.363 55.5707 18.5225 55.3669 18.5225Z" fill="#CA5001"/>
<path d="M38.3472 27.1443C38.0944 27.1443 37.8906 26.9449 37.8906 26.6976C37.8906 26.4504 38.0944 26.251 38.3472 26.251C38.5999 26.251 38.8037 26.4504 38.8037 26.6976C38.8037 26.9449 38.5999 27.1443 38.3472 27.1443Z" fill="#C57D0A"/>
<path d="M39.9878 26.4265C40.24 26.4265 40.4444 26.2265 40.4444 25.9799C40.4444 25.7332 40.24 25.5332 39.9878 25.5332C39.7357 25.5332 39.5312 25.7332 39.5312 25.9799C39.5312 26.2265 39.7357 26.4265 39.9878 26.4265Z" fill="#C57D0A"/>
<path d="M41.6245 25.7165C41.3718 25.7165 41.168 25.5171 41.168 25.2699C41.168 25.0226 41.3718 24.8232 41.6245 24.8232C41.8773 24.8232 42.0811 25.0226 42.0811 25.2699C42.0811 25.5171 41.8773 25.7165 41.6245 25.7165Z" fill="#C57D0A"/>
<path d="M43.273 24.9988C43.5251 24.9988 43.7295 24.7988 43.7295 24.5521C43.7295 24.3054 43.5251 24.1055 43.273 24.1055C43.0208 24.1055 42.8164 24.3054 42.8164 24.5521C42.8164 24.7988 43.0208 24.9988 43.273 24.9988Z" fill="#C57D0A"/>
<path d="M44.9097 24.281C44.6569 24.281 44.4531 24.0816 44.4531 23.8343C44.4531 23.5871 44.6569 23.3877 44.9097 23.3877C45.1624 23.3877 45.3662 23.5871 45.3662 23.8343C45.3662 24.0816 45.1624 24.281 44.9097 24.281Z" fill="#C57D0A"/>
<path d="M46.5503 23.571C46.8025 23.571 47.0069 23.3711 47.0069 23.1244C47.0069 22.8777 46.8025 22.6777 46.5503 22.6777C46.2982 22.6777 46.0938 22.8777 46.0938 23.1244C46.0938 23.3711 46.2982 23.571 46.5503 23.571Z" fill="#C57D0A"/>
<path d="M48.187 22.8533C47.9343 22.8533 47.7305 22.6539 47.7305 22.4066C47.7305 22.1594 47.9343 21.96 48.187 21.96C48.4398 21.96 48.6436 22.1594 48.6436 22.4066C48.6436 22.6539 48.4398 22.8533 48.187 22.8533Z" fill="#C57D0A"/>
<path d="M49.8355 22.1433C50.0876 22.1433 50.292 21.9433 50.292 21.6966C50.292 21.45 50.0876 21.25 49.8355 21.25C49.5833 21.25 49.3789 21.45 49.3789 21.6966C49.3789 21.9433 49.5833 22.1433 49.8355 22.1433Z" fill="#C57D0A"/>
<path d="M25.6172 39.5947C25.9433 39.7064 26.196 39.7782 26.4325 39.8739C28.1935 40.5997 29.9545 41.3335 31.7237 42.0513C31.8541 42.1071 32.0579 42.0912 32.1884 42.0353C34.088 41.2617 35.9794 40.4721 37.879 39.6984C37.9606 39.6665 38.0747 39.6825 38.1725 39.6745C38.1399 39.7702 38.1318 39.8739 38.0829 39.9536C36.5175 42.5139 34.9359 45.0662 33.3705 47.6264C32.9547 48.3123 32.5389 48.9983 32.1231 49.6842C31.9764 49.9235 31.9112 49.9235 31.7481 49.6682C30.6556 47.8896 29.5632 46.111 28.4707 44.3244C27.5576 42.8409 26.6444 41.3654 25.7313 39.8819C25.6987 39.826 25.6824 39.7622 25.6172 39.5947Z" fill="#CA5001"/>
</svg>
