<?xml version="1.0" encoding="UTF-8"?>
<svg width="80px" height="80px" viewBox="0 0 80 80" version="1.1" xmlns="http://www.w3.org/2000/svg" xmlns:xlink="http://www.w3.org/1999/xlink">
    <title>rawpool</title>
    <defs>
        <linearGradient x1="0%" y1="49.9988425%" x2="100.004743%" y2="49.9988425%" id="linearGradient-1">
            <stop stop-color="#004BF2" offset="0%"></stop>
            <stop stop-color="#0040AB" offset="100%"></stop>
        </linearGradient>
    </defs>
    <g id="页面-1" stroke="none" stroke-width="1" fill="none" fill-rule="evenodd">
        <g id="画板" transform="translate(-186.000000, -1410.000000)" fill-rule="nonzero">
            <g id="rawpool" transform="translate(186.000000, 1410.000000)">
                <g id="编组-16" transform="translate(0.000000, -0.000000)" fill="url(#linearGradient-1)">
                    <path d="M59.8783344,80 L20.1216618,80 C9.05711346,80 0,70.9428828 0,59.8783344 L0,20.1216618 C0,9.05035442 9.05711346,-1.0658141e-13 20.1216618,-1.0658141e-13 L59.8783344,-1.0658141e-13 C70.9496418,-1.0658141e-13 80,9.05711346 80,20.1216618 L80,59.8783344 C80.0067553,70.9428828 70.9496418,80 59.8783344,80 Z" id="路径"></path>
                </g>
                <g id="Group-Copy-5" transform="translate(19.668806, 17.249070)" fill="#FFFFFF">
                    <g id="Mask">
                        <path d="M0,30.152077 L0,20.1486979 L28.4487989,20.1486979 L28.4487989,20.1486979 C28.4961122,20.1486979 28.5434255,20.1486979 28.5907388,20.1486979 C31.3957403,20.1486979 33.6735368,17.8776605 33.6735368,15.072659 C33.6735368,12.2676574 31.3957403,10.003379 28.5907388,10.003379 C28.5434255,10.003379 28.4961122,10.003379 28.4487989,10.003379 L28.4487989,10.003379 L0,10.003379 L0,0 L28.4487989,0 C28.4961122,0 28.5434255,0 28.5907388,0 C36.924635,0 43.6836749,6.75228086 43.6836749,15.079418 C43.6836749,23.4065552 36.931394,30.152077 28.5907388,30.152077 C28.5434255,30.152077 28.4961122,30.152077 28.4487989,30.152077 L10.0168971,30.152077 L10.0168971,48.1311231 L0,48.1311231 L0,30.152077 Z" id="path-2_1_"></path>
                    </g>
                    <g id="Mask_1_" transform="translate(25.584864, 33.553614)">
                        <polygon id="path-5_1_" points="0 0.270361596 10.9834398 -3.84206936e-15 16.6610333 14.57249 5.35991864 14.57249"></polygon>
                    </g>
                </g>
            </g>
        </g>
    </g>
</svg>