<?xml version="1.0" encoding="UTF-8"?>
<svg width="80px" height="80px" viewBox="0 0 80 80" version="1.1" xmlns="http://www.w3.org/2000/svg" xmlns:xlink="http://www.w3.org/1999/xlink">
    <title>SBI Crypto</title>
    <g id="页面-1" stroke="none" stroke-width="1" fill="none" fill-rule="evenodd">
        <g id="画板" transform="translate(-185.000000, -2617.000000)" fill="#0065F5">
            <g id="SBI-Crypto" transform="translate(185.000000, 2617.000000)">
                <g id="cryptobanner-white-c1efcdf19e35d05d7ae177e4a728bf43" transform="translate(10.000000, 0.000000)">
                    <path d="M14.0780185,20.9295115 C20.7141314,23.7494904 31.48235,28.3283032 49.0638383,35.7497975 C49.9773802,36.1351057 51.0118772,36.1365232 51.9254191,35.7483801 L58.8508085,32.8123835 C59.8706586,32.3802997 60.5895383,31.3670643 60.5895383,30.1856257 L60.5895383,2.50386518 C60.5895383,0.98650681 59.357308,-0.0961778308 57.8439516,0.00782396506 C56.4853326,0.0984930575 61.2521929,-1.68420352 14.0846805,18.2361339 C12.8953278,18.7388064 12.8886658,20.4241695 14.0780185,20.9295115 Z" id="路径"></path>
                    <path d="M56.3728822,79.7146215 L1.74002918,56.5729775 C0.718678946,56.1394763 0,55.130257 0,53.951417 L0,26.6202846 C0,25.046923 1.27735458,23.7735869 2.85470622,23.7735869 C3.94540484,23.7735869 0.225340335,22.4989751 58.7116628,47.1486365 C59.8982987,47.568672 60.6863969,48.844843 60.5796162,49.9074527 L60.5836323,49.9100513 L60.511579,77.1533023 C60.511579,78.7266639 59.2342268,80 57.6568491,80 C56.8996984,80 56.495491,79.727851 56.3289415,79.6746969" id="路径"></path>
                </g>
            </g>
        </g>
    </g>
</svg>