<?xml version="1.0" encoding="UTF-8"?>
<!DOCTYPE svg PUBLIC "-//W3C//DTD SVG 1.1//EN" "http://www.w3.org/Graphics/SVG/1.1/DTD/svg11.dtd">
<svg xmlns="http://www.w3.org/2000/svg" version="1.1" width="248px" height="248px" style="shape-rendering:geometricPrecision; text-rendering:geometricPrecision; image-rendering:optimizeQuality; fill-rule:evenodd; clip-rule:evenodd" xmlns:xlink="http://www.w3.org/1999/xlink">
<g><path style="opacity:1" fill="#714bf7" d="M -0.5,-0.5 C 82.1667,-0.5 164.833,-0.5 247.5,-0.5C 247.5,82.1667 247.5,164.833 247.5,247.5C 164.833,247.5 82.1667,247.5 -0.5,247.5C -0.5,164.833 -0.5,82.1667 -0.5,-0.5 Z"/></g>
<g><path style="opacity:1" fill="#fcfbfe" d="M 121.5,19.5 C 125.998,20.4105 130.332,21.9105 134.5,24C 155.71,34.7719 177.044,45.2719 198.5,55.5C 199.521,56.0016 199.688,56.6683 199,57.5C 195.288,61.5481 191.288,65.2148 187,68.5C 165.877,58.0705 144.71,47.7371 123.5,37.5C 100.623,49.1052 77.6231,60.4385 54.5,71.5C 54.1667,75.8333 53.8333,80.1667 53.5,84.5C 54.6664,104.158 55.1664,123.825 55,143.5C 50.2367,147.424 45.0701,150.758 39.5,153.5C 38.1019,123.662 36.7685,93.829 35.5,64C 35.8333,63.1667 36.1667,62.3333 36.5,61.5C 65.0483,47.7254 93.3816,33.7254 121.5,19.5 Z"/></g>
<g><path style="opacity:1" fill="#fcfbfe" d="M 209.5,69.5 C 210.748,70.3339 211.415,71.6672 211.5,73.5C 210.245,103.86 208.745,134.193 207,164.5C 179.548,184.95 152.382,205.784 125.5,227C 123.711,227.52 122.044,227.187 120.5,226C 96.1186,206.617 71.4519,187.617 46.5,169C 51.5,165.833 56.5,162.667 61.5,159.5C 82.1667,175.167 102.833,190.833 123.5,206.5C 146.142,189.692 168.642,172.692 191,155.5C 191.707,132.154 192.707,108.82 194,85.5C 199.37,80.298 204.536,74.9647 209.5,69.5 Z"/></g>
<g><path style="opacity:1" fill="#fcfbfe" d="M 124.5,71.5 C 139.381,77.6056 154.048,84.2723 168.5,91.5C 165.984,96.5311 163.484,101.531 161,106.5C 149.91,101.038 138.743,95.705 127.5,90.5C 121.366,94.136 115.366,97.9694 109.5,102C 114.298,104.635 118.965,107.468 123.5,110.5C 121.324,115.528 118.657,120.194 115.5,124.5C 102.674,117.921 90.0073,111.088 77.5,104C 93.0701,92.9136 108.737,82.0802 124.5,71.5 Z"/></g>
<g><path style="opacity:1" fill="#fcfbfe" d="M 128.5,112.5 C 142.207,118.52 155.54,125.354 168.5,133C 153.007,143.914 137.34,154.581 121.5,165C 118.581,165.552 115.914,164.885 113.5,163C 101.5,155.333 89.5,147.667 77.5,140C 80.624,135.586 83.624,131.086 86.5,126.5C 97.5842,132.79 108.418,139.457 119,146.5C 124.413,142.543 129.913,138.71 135.5,135C 131.828,132.162 127.828,129.829 123.5,128C 122.978,127.439 122.645,126.772 122.5,126C 124.649,121.537 126.649,117.037 128.5,112.5 Z"/></g>
</svg>
