<?xml version="1.0" encoding="UTF-8"?>
<svg version="1.1" xmlns="http://www.w3.org/2000/svg" width="72" height="72">
<path d="M0 0 C8.13615901 6.47194466 13.73561981 13.68830628 15.75 24.1875 C16.82634396 36.06257352 13.88273347 45.69006485 6.328125 54.92578125 C0.40269827 61.51429145 -8.03488332 65.62416847 -16.87890625 66.42578125 C-28.75354029 66.72620475 -37.98362623 63.06531474 -46.8125 55.125 C-54.19219506 47.56531237 -56.62266125 37.66386629 -56.53515625 27.42578125 C-55.64702582 17.3400261 -50.51880584 8.82936998 -43.3828125 1.86328125 C-30.17525068 -8.51408875 -14.13382893 -7.88232767 0 0 Z " fill="#734EF7" transform="translate(56.25,5.8125)"/>
<path d="M0 0 C0.04429663 3.18443532 0.0569846 6.36218597 0.015625 9.546875 C-0.05529464 12.84803725 -0.05529464 12.84803725 0.234375 15.515625 C0.3298791 18.17063895 0.17094715 19.58947877 -1 22 C-5.03664786 25.81584945 -9.42785698 28.86342321 -14 32 C-15.67907665 33.31767111 -17.3507126 34.6452282 -19 36 C-22.97799395 34.25716602 -26.31642937 31.6772961 -29.75 29.0625 C-30.35199219 28.61970703 -30.95398438 28.17691406 -31.57421875 27.72070312 C-33.1081107 26.55376265 -34.56145217 25.28263586 -36 24 C-36 23.01 -36 22.02 -36 21 C-31.49656089 21.5112012 -29.12474574 23.17521358 -25.6875 26.0625 C-24.80449219 26.79597656 -23.92148437 27.52945313 -23.01171875 28.28515625 C-22.34785156 28.85105469 -21.68398438 29.41695312 -21 30 C-14.94691167 27.09803513 -9.41839309 24.09917269 -5 19 C-3.72315454 14.87672343 -3.91922447 10.74359079 -4.08984375 6.4765625 C-4 3 -4 3 -2.56640625 1.0234375 C-1 0 -1 0 0 0 Z " fill="#F6F4FE" transform="translate(56,24)"/>
<path d="M0 0 C0.9178125 0.495 1.835625 0.99 2.78125 1.5 C3.84085938 1.99757813 4.90046875 2.49515625 5.9921875 3.0078125 C7.03632812 3.54148437 8.08046875 4.07515625 9.15625 4.625 C10.21585938 5.16382813 11.27546875 5.70265625 12.3671875 6.2578125 C13.16382813 6.66773438 13.96046875 7.07765625 14.78125 7.5 C14.45125 8.49 14.12125 9.48 13.78125 10.5 C10.26461492 10.04624064 7.54736886 8.93213585 4.40625 7.375 C0.0384765 5.41058128 -2.50662485 5.09462934 -7.21875 6.5 C-10.64030683 8.03970057 -13.90453343 9.72939115 -17.21875 11.5 C-17.54875 17.11 -17.87875 22.72 -18.21875 28.5 C-20.19875 29.49 -20.19875 29.49 -22.21875 30.5 C-22.21875 23.57 -22.21875 16.64 -22.21875 9.5 C-19.2075 7.80875 -16.19625 6.1175 -13.09375 4.375 C-11.68778564 3.56458252 -11.68778564 3.56458252 -10.25341797 2.73779297 C-4.05525366 -0.62994232 -4.05525366 -0.62994232 0 0 Z " fill="#F4F2FE" transform="translate(38.21875,12.5)"/>
<path d="M0 0 C2.499536 1.03909282 4.80044655 2.16429861 7.109375 3.57421875 C6.779375 4.89421875 6.449375 6.21421875 6.109375 7.57421875 C5.243125 7.24421875 4.376875 6.91421875 3.484375 6.57421875 C0.15219225 5.58690534 -2.44222038 5.41000901 -5.890625 5.57421875 C-5.890625 6.23421875 -5.890625 6.89421875 -5.890625 7.57421875 C-4.900625 7.90421875 -3.910625 8.23421875 -2.890625 8.57421875 C-3.220625 9.56421875 -3.550625 10.55421875 -3.890625 11.57421875 C-7.75911114 10.45665609 -10.17985257 9.54548583 -12.890625 6.57421875 C-4.88165639 -0.71905479 -4.88165639 -0.71905479 0 0 Z " fill="#F4F1FE" transform="translate(38.890625,24.42578125)"/>
<path d="M0 0 C3.86848614 1.11756266 6.28922757 2.02873292 9 5 C1.20411664 10.97684391 1.20411664 10.97684391 -3.25 11.0625 C-6.0738697 9.97145943 -8.49397795 8.69525021 -11 7 C-10.67 5.68 -10.34 4.36 -10 3 C-8.88625 3.4640625 -8.88625 3.4640625 -7.75 3.9375 C-5.47701257 4.81569969 -3.3967483 5.58676753 -1 6 C-0.34 5.67 0.32 5.34 1 5 C0.34 3.68 -0.32 2.36 -1 1 C-0.67 0.67 -0.34 0.34 0 0 Z " fill="#F7F4FE" transform="translate(37,34)"/>
</svg>
