<?xml version="1.0" encoding="UTF-8"?>
<svg width="80px" height="80px" viewBox="0 0 80 80" version="1.1" xmlns="http://www.w3.org/2000/svg" xmlns:xlink="http://www.w3.org/1999/xlink">
    <title>SigmaPool</title>
    <g id="页面-1" stroke="none" stroke-width="1" fill="none" fill-rule="evenodd">
        <g id="画板" transform="translate(-186.000000, -3235.000000)" fill="#5743A5">
            <g id="SigmaPool" transform="translate(186.000000, 3235.000000)">
                <path d="M36.0602062,12.4630177 C36.3184472,13.1068015 36.7010803,13.7287622 36.813106,14.3965515 C37.4023319,17.900627 38.0010145,21.4076122 38.4054708,24.9349657 C38.4891263,25.6624051 37.9420919,26.6539049 37.3841459,27.2314918 C34.286709,30.4365896 31.0968874,33.5529399 27.6386406,36.9980928 C32.7467199,38.0303292 37.3834184,39.0720224 42.061581,39.8620216 C43.9943874,40.1886418 44.7698378,41.0572044 45.0899111,42.9281785 C45.8791828,47.5394167 46.861226,52.1171926 47.8345399,57.056506 C48.5270622,56.4192691 49.0071721,56.0104481 49.4509102,55.5652552 C55.6450564,49.3660169 61.8246538,43.1522298 68.0384409,36.9733598 C68.5541955,36.4612425 69.2969111,36.1760863 69.9341479,35.7854513 C70.2564036,36.4619699 70.7045062,37.1064812 70.8790917,37.8200993 C71.6538146,40.9779136 72.411079,44.1437297 73.0257653,47.3350062 C73.1574318,48.0180718 72.9064652,49.0561278 72.4336296,49.5340554 C62.6139256,59.4585108 52.7418459,69.329863 42.8654015,79.1968506 C41.5523735,80.5076964 40.9726043,80.2414536 40.4764906,78.1951666 L37.3868738,65.4630681 C36.3588201,61.2185503 35.3356766,56.9728504 34.3267182,52.7238771 C34.0430169,51.5294216 33.543266,50.912553 32.2731569,50.6135755 C23.8334053,48.6298483 15.4118397,46.5639205 6.99609363,44.4805341 C6.28902256,44.3059487 5.66342471,43.8025606 5,43.4526623 C5.39281726,42.8161528 5.68015581,42.0748921 6.19445545,41.5584102 C15.4911306,32.2231807 24.8089015,22.9083196 34.1506779,13.6167365 C34.6627952,13.107529 35.4178773,12.8420136 36.0602062,12.4630177 Z M49.066022,1.40026523 C49.6661595,5.26515061 50.2073744,9.13949269 50.6998508,13.0189269 C50.7573185,13.472849 50.4838013,14.1028115 50.1528164,14.4498001 C48.2389234,16.4604425 46.2719274,18.4216191 44.2991118,20.3755212 C43.4225474,21.2440838 42.5859921,21.1800691 42.3728523,19.8764978 C41.723249,15.8981319 41.1842164,11.90158 40.5557088,7.59222915 C40.7186552,7.32962354 40.9470712,6.76440315 41.3398884,6.3606743 C43.1912216,4.45551059 45.064378,2.57144262 46.9760887,0.727383814 C48.1647246,-0.418333194 48.8136005,-0.222652003 49.066022,1.40026523 Z" id="形状结合"></path>
            </g>
        </g>
    </g>
</svg>