<?xml version="1.0" encoding="UTF-8" standalone="no"?>
<svg
   version="1.0"
   width="342px"
   height="342px"
   viewBox="0 0 342 342"
   preserveAspectRatio="xMidYMid meet"
   id="svg8"
   xmlns:xlink="http://www.w3.org/1999/xlink"
   xmlns="http://www.w3.org/2000/svg"
   xmlns:svg="http://www.w3.org/2000/svg">
  <defs
     id="defs8">
    <linearGradient
       id="linearGradient8">
      <stop
         style="stop-color:#fce003;stop-opacity:1;"
         offset="0"
         id="stop8" />
      <stop
         style="stop-color:#fa7902;stop-opacity:1;"
         offset="1"
         id="stop9" />
    </linearGradient>
    <linearGradient
       xlink:href="#linearGradient8"
       id="linearGradient9"
       x1="177.41998"
       y1="82.230019"
       x2="177.41998"
       y2="242.07001"
       gradientUnits="userSpaceOnUse" />
  </defs>
  <g
     fill="#08a1f8"
     id="g7">
    <path
       d="M160.65 318.25 c-14.13 -8.18 -31.03 -17.93 -57.11 -32.96 -32.80 -18.87 -47.76 -27.52 -58.38 -33.73 l-7.08 -4.14 0 -33.06 0 -33.03 -1.90 0.20 c-11.26 1.24 -21.88 3.41 -31.33 6.38 -2 0.63 -3.94 1.24 -4.24 1.34 -0.57 0.17 -0.60 -0.23 -0.60 -5.28 l0 -5.44 2.94 -1.90 c12.29 -7.98 25.55 -13.79 39.44 -17.30 14.56 -3.67 33.26 -5.21 48.03 -3.97 8.08 0.67 25.45 3.47 26.22 4.24 0.13 0.13 0.27 10.82 0.27 23.78 0.03 22.11 0 23.55 -0.53 23.95 -0.77 0.57 -1.07 0.57 -11.09 0.60 -6.68 0 -8.48 0.10 -8.72 0.43 -0.17 0.27 -0.53 1.97 -0.87 3.84 -0.30 1.87 -1.77 9.99 -3.21 18 -1.44 8.05 -2.64 14.86 -2.64 15.13 0 0.43 2.64 0.50 21.14 0.57 l21.11 0.10 0.17 16.37 0.17 16.37 16.97 0.10 16.93 0.07 0 -16.20 0 -16.20 1.84 0 1.84 0 0.07 16.13 0.10 16.10 16.63 0.10 16.60 0.07 0 -16.27 c0 -8.98 0.13 -16.47 0.27 -16.67 0.13 -0.20 2.40 -0.60 5.08 -0.94 30.99 -3.67 48.49 -17 53.91 -40.91 0.43 -2.07 0.87 -3.84 0.94 -3.87 0.07 -0.07 2.97 0 6.45 0.17 6.51 0.30 18.20 -0.03 24.55 -0.67 9.02 -0.94 20.81 -3.04 29.02 -5.21 4.21 -1.14 16.53 -5.18 17.83 -5.84 0.53 -0.30 0.57 0.10 0.57 6.31 l0 6.68 -0.90 0.17 c-0.53 0.10 -2.07 0.94 -3.47 1.84 -7.78 5.11 -17.67 10.19 -26.02 13.43 -2.84 1.14 -5.84 2.30 -6.68 2.61 l-1.50 0.60 -0.10 13.69 -0.07 13.69 -2.94 1.70 c-1.60 0.90 -7.95 4.58 -14.09 8.12 -6.15 3.54 -20.04 11.59 -30.89 17.87 -10.82 6.25 -23.85 13.76 -28.89 16.70 -5.04 2.91 -12.26 7.08 -16.03 9.28 -3.77 2.20 -7.88 4.61 -9.18 5.34 -1.27 0.73 -5.48 3.17 -9.35 5.41 -18.17 10.52 -20.51 11.86 -20.94 11.86 -0.23 0 -4.88 -2.57 -10.29 -5.71z"
       id="path5" />
    <path
       d="M166.32 192.11 c0 -9.45 0.13 -16.47 0.30 -16.57 0.17 -0.13 1.57 0.33 3.11 1 10.22 4.41 28.42 11.19 35.84 13.36 2.40 0.67 4.51 1.40 4.71 1.60 0.27 0.27 0.33 0.94 0.13 2.27 -0.83 5.78 -5.31 10.09 -13.03 12.42 -5.58 1.70 -7.75 1.94 -19.77 2.10 l-11.29 0.17 0 -16.37z"
       id="path6" />
    <path
       d="M269.59 190.37 c-2.81 -0.13 -5.18 -0.33 -5.28 -0.43 -0.10 -0.10 -0.33 -1.74 -0.50 -3.64 -0.80 -8.55 -3.81 -16.87 -8.22 -22.81 -3.31 -4.44 -8.68 -9.05 -12.86 -11.05 -0.70 -0.33 -1.27 -0.70 -1.27 -0.83 0 -0.17 1.07 -1.57 2.34 -3.17 9.28 -11.59 11.05 -28.99 4.38 -42.78 -6.28 -12.96 -18.04 -20.94 -36.17 -24.61 -2.27 -0.43 -5.08 -0.94 -6.28 -1.07 -1.20 -0.10 -2.37 -0.37 -2.57 -0.57 -0.33 -0.23 -0.43 -4.07 -0.43 -17.13 l0 -16.83 -16.27 0.07 -16.30 0.10 -0.10 16.43 -0.07 16.47 -1.84 0 -1.84 0 -0.07 -16.43 -0.10 -16.47 -16.03 -0.10 c-8.82 -0.03 -16.37 0 -16.77 0.10 l-0.77 0.17 -0.07 16.63 -0.10 16.60 -19.94 0.17 c-13.39 0.10 -20.04 0.27 -20.31 0.53 -0.23 0.23 -0.30 5.51 -0.27 16.70 l0.10 16.33 11.76 0.17 c13.09 0.20 12.56 0.07 13.13 2.54 0.30 1.24 0.47 33.87 0.20 33.87 -0.07 0 -1.57 -0.30 -3.34 -0.67 -17.47 -3.57 -33.93 -4.44 -51.83 -2.64 -7.72 0.77 -18.47 2.71 -23.25 4.17 -0.57 0.17 -0.60 -1.30 -0.60 -27.89 l0 -28.09 1.30 -0.80 c0.73 -0.47 6.41 -3.77 12.62 -7.31 12.46 -7.18 15.23 -8.75 30.36 -17.50 5.71 -3.34 11.22 -6.48 12.19 -7.05 1 -0.53 9.18 -5.24 18.17 -10.42 9.02 -5.18 19 -10.95 22.21 -12.79 3.21 -1.84 9.02 -5.18 12.86 -7.41 3.87 -2.24 10.59 -6.11 14.93 -8.65 l7.95 -4.58 1.07 0.57 c0.60 0.30 4.04 2.24 7.61 4.31 3.57 2.07 9.52 5.48 13.19 7.58 3.67 2.10 8.12 4.68 9.85 5.68 3.11 1.80 8.35 4.81 24.55 14.13 4.41 2.54 9.45 5.44 11.19 6.45 4.68 2.71 17.03 9.82 23.55 13.59 21.21 12.19 40.55 23.48 41.18 23.95 0.30 0.27 0.40 10.15 0.40 47.39 l0 47.03 -1.74 0.33 c-2.97 0.57 -9.89 1.37 -14.96 1.70 -5.28 0.37 -9.12 0.37 -16.97 0z"
       id="path7" />
  </g>
  <g
     fill="#fdb50d"
     id="g8"
     style="fill:url(#linearGradient9)">
    <path
       d="M138.84 272.30 c-0.13 -0.10 -0.23 -7.55 -0.23 -16.53 l0 -16.30 -20.54 0 -20.57 0 0.20 -1.07 c1.97 -11.46 4.24 -23.15 4.51 -23.48 0.27 -0.33 2.17 -0.47 7.78 -0.60 8.38 -0.13 9.38 -0.37 11.32 -2.37 2.40 -2.44 2.27 0.60 2.27 -51.13 0 -41.21 -0.07 -46.66 -0.53 -48.23 -0.70 -2.40 -2.64 -4.48 -5.08 -5.44 -1.77 -0.67 -2.57 -0.73 -10.69 -0.87 l-8.75 -0.13 0.07 -10.05 0.10 -10.09 19.71 -0.17 c10.85 -0.10 19.91 -0.30 20.14 -0.43 0.30 -0.20 0.40 -3.94 0.40 -16.77 0 -14.70 0.07 -16.50 0.53 -16.67 0.30 -0.10 4.94 -0.20 10.35 -0.20 l9.82 0 0 16.50 0 16.47 2.27 0.20 c1.24 0.13 4.88 0.23 8.12 0.23 4.54 0 5.98 -0.10 6.28 -0.43 0.23 -0.33 0.40 -5.38 0.43 -16.63 l0.10 -16.16 9.79 -0.10 9.75 -0.07 0 16.83 0 16.83 2.27 0.20 c21.17 1.90 34.63 8.08 41.75 19.20 3.97 6.18 5.94 15 5.11 22.54 -1 8.95 -4.28 15.26 -11.59 22.44 l-4.11 4.04 2.24 0.77 c13.86 4.78 21.84 13.83 24.68 27.95 0.80 4.07 0.80 13.79 0 17.87 -1.37 6.81 -3.64 12.59 -6.81 17.40 -2.07 3.14 -7.58 8.78 -10.59 10.85 -2.81 1.94 -6.68 3.94 -10.39 5.34 -6.18 2.37 -16.33 4.51 -24.71 5.28 -3.31 0.27 -6.25 0.63 -6.51 0.77 -0.43 0.23 -0.53 2.50 -0.67 16.27 l-0.17 16 -10.05 0.10 -10.09 0.07 -0.23 -7.25 c-0.13 -4.01 -0.13 -9.75 -0.03 -12.79 0.13 -3.07 0.13 -7.01 0 -8.78 l-0.23 -3.24 -7.95 0 c-5.58 0 -8.02 0.10 -8.18 0.37 -0.23 0.40 -0.40 8.98 -0.43 23.11 l-0.03 8.58 -10.29 0 c-5.68 0 -10.42 -0.10 -10.52 -0.23z m54.57 -58.48 c5.84 -1.14 7.65 -1.70 11.32 -3.47 3.04 -1.47 3.87 -2.07 6.38 -4.58 4.44 -4.48 6.25 -9.05 5.88 -15.10 -0.60 -9.75 -7.18 -16.13 -19.84 -19.30 -6.95 -1.74 -8.78 -1.87 -23.48 -1.87 l-13.86 0 -0.10 22.64 -0.07 22.68 15.10 -0.13 c13.73 -0.13 15.46 -0.23 18.67 -0.87z m-8.28 -65.66 c7.58 -0.97 14.29 -3.87 18.07 -7.88 3.51 -3.77 4.88 -7.18 4.88 -12.36 0 -10.09 -7.15 -16.50 -20.87 -18.87 -2.40 -0.40 -5.41 -0.50 -15.03 -0.43 l-12.02 0.10 -0.23 1.84 c-0.27 2.44 -0.33 37.57 -0.03 37.84 0.43 0.47 21.21 0.23 25.25 -0.23z"
       id="path8"
       style="fill:url(#linearGradient9)" />
  </g>
</svg>
