<?xml version="1.0" encoding="UTF-8"?>
<svg width="80px" height="80px" viewBox="0 0 80 80" version="1.1" xmlns="http://www.w3.org/2000/svg" xmlns:xlink="http://www.w3.org/1999/xlink">
    <title>Spiderpool</title>
    <defs>
        <path d="M15.1351588,0 C6.77602095,0 0,6.77645924 0,15.1351588 L0,15.1351588 L0,64.8648412 C0,73.223979 6.77602095,80 15.1351588,80 L15.1351588,80 L64.8648412,80 C73.2235408,80 80,73.223979 80,64.8648412 L80,64.8648412 L80,15.1351588 C80,6.77645924 73.2235408,0 64.8648412,0 L64.8648412,0 L15.1351588,0 Z" id="path-1"></path>
        <linearGradient x1="49.999971%" y1="4.96367641e-05%" x2="49.999971%" y2="99.9999917%" id="linearGradient-3">
            <stop stop-color="#504F4F" offset="0%"></stop>
            <stop stop-color="#272828" offset="100%"></stop>
        </linearGradient>
        <polygon id="path-4" points="0 0 53.1668797 0 53.1668797 71.3515444 0 71.3515444"></polygon>
    </defs>
    <g id="页面-1" stroke="none" stroke-width="1" fill="none" fill-rule="evenodd">
        <g id="画板" transform="translate(-186.000000, -1712.000000)">
            <g id="编组" transform="translate(186.000000, 1712.000000)">
                <g>
                    <mask id="mask-2" fill="white">
                        <use xlink:href="#path-1"></use>
                    </mask>
                    <g id="Clip-2"></g>
                    <path d="M15.1351588,0 C6.77602095,0 0,6.77645924 0,15.1351588 L0,15.1351588 L0,64.8648412 C0,73.223979 6.77602095,80 15.1351588,80 L15.1351588,80 L64.8648412,80 C73.2235408,80 80,73.223979 80,64.8648412 L80,64.8648412 L80,15.1351588 C80,6.77645924 73.2235408,0 64.8648412,0 L64.8648412,0 L15.1351588,0 Z" id="Fill-1" fill="url(#linearGradient-3)" mask="url(#mask-2)"></path>
                </g>
                <g transform="translate(26.833076, 8.648456)">
                    <mask id="mask-5" fill="white">
                        <use xlink:href="#path-4"></use>
                    </mask>
                    <g id="Clip-4"></g>
                    <path d="M53.1668797,56.2164294 L53.1668797,14.2892519 C52.7868791,14.2493672 52.4007423,14.2278908 52.0102226,14.2278908 C45.979301,14.2278908 41.0901345,19.116619 41.0901345,25.146664 C41.0901345,29.2552294 43.3596194,32.8338976 46.713443,34.6975225 C43.4003807,35.5543868 40.6391303,37.3277232 38.5826561,40.170058 L27.459638,30.837908 C24.0321811,27.9618246 22.0524084,23.7169499 22.0524084,19.2428476 L22.0524084,2.56489486 C22.0524084,1.14832955 20.9045171,0 19.4879518,0 C18.0770843,0 16.933576,1.14394662 16.933576,2.55481411 L16.933576,2.56489486 L17.0085242,21.7643514 C17.026056,26.2178539 19.0036373,30.4377459 22.4153156,33.2998039 L36.1834363,44.8514732 C35.9603448,45.4843694 35.7578531,46.1466312 35.5763995,46.8400118 L23.6000235,44.7291893 C19.1938567,43.9525328 15.3570335,41.2662306 13.1199823,37.3912758 L4.78100595,22.9477444 C4.0727233,21.7209603 2.50450836,21.3006366 1.27772423,22.0089193 C0.055761331,22.7141339 -0.362809174,24.276651 0.342843719,25.4986139 C0.3441586,25.501682 0.345911775,25.5043117 0.34766495,25.5073798 L10.0129181,42.0972355 C12.2543522,45.9450161 16.0767118,48.6102802 20.4627171,49.3834303 L34.696744,51.8931002 C34.549039,53.3683968 34.4727759,54.9462542 34.4718993,56.6284255 L16.550069,59.7876467 C12.1640637,60.5612351 8.34170416,63.2264992 6.09983176,67.0742798 L3.60813195,71.3515883 L9.47074878,71.3515883 C11.7380422,67.7098057 15.4468837,65.1900551 19.6873755,64.4427643 L34.854968,61.7691726 C34.9110696,62.1575008 34.9724307,62.5467057 35.039928,62.9359105 C34.4000191,62.8912045 33.7425786,63.0849304 33.2122431,63.5297985 L23.890174,71.3515883 L31.8693112,71.3515883 L36.1396069,67.7685371 C36.4775314,68.9751597 36.8584086,70.1725782 37.2743494,71.3515883 L38.0317209,71.3515883 C46.3908588,71.3515883 53.1668797,64.575129 53.1668797,56.2164294" id="Fill-3" fill="#F4B61A" mask="url(#mask-5)"></path>
                </g>
            </g>
        </g>
    </g>
</svg>