<?xml version="1.0" encoding="UTF-8" standalone="no"?><svg width="453.543" height="120mm" viewBox="0 0 120 120" xmlns="http://www.w3.org/2000/svg"><path style="fill:#f1f5ff;stroke:#f1f5ff;stroke-width:.236232" transform="translate(-37.298 -116.055)" d="M157.18 176.055a59.882 59.882 0 0 1-59.882 59.882 59.882 59.882 0 0 1-59.882-59.882 59.882 59.882 0 0 1 59.882-59.882 59.882 59.882 0 0 1 59.882 59.882z"/><g style="font-size:107.89px;font-family:serif;-inkscape-font-specification:serif;fill:#1652ee;stroke:#1652ee;stroke-width:.561929"><path d="M85.79 82.063q0 7.984-3.56 14.457-3.453 6.365-10.573 10.142-7.013 3.668-17.802 3.668-15.32 0-23.304-7.768-7.984-7.876-7.984-20.715v-49.63h16.291v47.148q0 9.495 3.884 13.379 3.884 3.884 11.544 3.884 7.984 0 11.545-4.208 3.668-4.208 3.668-13.162v-47.04H85.79z" style="font-weight:700;font-family:&quot;Noto Sans&quot;;-inkscape-font-specification:&quot;Noto Sans Bold&quot;" transform="scale(1.11745 .8949)" aria-label="U"/></g></svg>
