<?xml version="1.0" encoding="UTF-8"?>
<svg width="80px" height="80px" viewBox="0 0 80 80" version="1.1" xmlns="http://www.w3.org/2000/svg" xmlns:xlink="http://www.w3.org/1999/xlink">
    <title>ViaBTC</title>
    <g id="页面-1" stroke="none" stroke-width="1" fill="none" fill-rule="evenodd">
        <g id="画板" transform="translate(-186.000000, -1863.000000)" fill-rule="nonzero">
            <g id="ViaBTC" transform="translate(186.000000, 1863.000000)">
                <g id="B-Copy-13" transform="translate(1.000000, 0.000000)">
                    <path d="M62.0719424,17.8417266 L61.8129496,18.1582734 L61.5539568,17.8705036 C56.5467626,12.6330935 50.0431655,9.29496403 42.8489209,8.4028777 L42.5323741,8.37410072 L42.5323741,1.62939206e-15 L42.9064748,0.0287769784 C53.1510791,1.09352518 62.3884892,6.01438849 68.9496403,13.7553957 L69.381295,14.2733813 L68.7194245,14.3309353 C66.1007194,14.5323741 63.7122302,15.7985612 62.0719424,17.8417266 Z" id="Shape_4_" fill="#52CBCA"></path>
                    <path d="M76.5755396,30.0719424 L77.0071942,29.5827338 L77.1510791,30.2158273 C77.8129496,32.9784173 78.1582734,35.8848921 78.1582734,38.9640288 C78.1582734,45.0071942 76.7194245,50.9928058 74.0143885,56.3741007 L73.8417266,56.7194245 L66.9928058,51.9136691 L67.1079137,51.6546763 C68.9208633,47.7985612 69.8992806,43.4244604 69.8992806,38.9640288 C69.8992806,37.1798561 69.7553957,35.4532374 69.4388489,33.6978417 L69.381295,33.323741 L69.7841727,33.294964 C72.4604317,33.1510791 74.8776978,32 76.5755396,30.0719424 Z" id="Shape_5_" fill="#52CBCA"></path>
                    <path d="M8.28776978,38.9640288 C8.28776978,43.4244604 9.23741007,47.7985612 11.0791367,51.6546763 L11.1942446,51.9136691 L4.31654676,56.7194245 L4.14388489,56.3741007 C1.41007194,51.0791367 3.27475856e-15,45.1798561 3.27475856e-15,38.9640288 C3.27475856e-15,36.2877698 0.287769784,33.6115108 0.834532374,30.9064748 L0.949640288,30.3021583 L1.41007194,30.705036 C3.16546763,32.3165468 5.55395683,33.2661871 7.94244604,33.2661871 L8.8057554,33.2661871 L8.74820144,33.6690647 C8.43165468,35.4532374 8.28776978,37.1798561 8.28776978,38.9640288 Z" id="Shape_6_" fill="#52CBCA"></path>
                    <path d="M16.2589928,18.3021583 L15.971223,18.618705 L15.7122302,18.2733813 C14.2158273,16.2014388 11.942446,14.7338129 9.41007194,14.3021583 L8.8057554,14.2158273 L9.17985612,13.7553957 C15.6834532,5.98561151 25.0359712,1.00719424 35.2517986,0.0287769784 L35.6258993,4.15335232e-16 L35.6258993,8.37410072 L35.3093525,8.4028777 C27.971223,9.29496403 21.1510791,12.8633094 16.2589928,18.3021583 Z" id="Shape_7_" fill="#52CBCA"></path>
                    <path d="M14.7625899,57.8705036 L14.9640288,58.1294964 C18.9064748,63.0791367 24.2877698,66.705036 30.2733813,68.4892086 L30.647482,68.6043165 L30.4748201,68.9784173 C29.8705036,70.2733813 29.5251799,71.7410072 29.5251799,73.1510791 C29.5251799,74.2733813 29.7266187,75.3669065 30.1007194,76.4604317 L30.3309353,77.0647482 L29.6978417,76.9208633 C21.0647482,74.7913669 13.4676259,69.8129496 8.17266187,62.9064748 L7.94244604,62.618705 L14.7625899,57.8705036 Z" id="Shape_8_" fill="#52CBCA"></path>
                    <path d="M47.6546763,68.9784173 L47.4820144,68.6043165 L47.8561151,68.4892086 C53.8705036,66.705036 59.2230216,63.0791367 63.1654676,58.1294964 L63.3669065,57.8705036 L70.1582734,62.5899281 L69.9280576,62.8776978 C64.5755396,69.7841727 56.9496403,74.7913669 48.4028777,76.8920863 L47.7697842,77.0359712 L48,76.4316547 C48.3741007,75.3381295 48.5755396,74.2446043 48.5755396,73.1223022 C48.6043165,71.7410072 48.2589928,70.2733813 47.6546763,68.9784173 Z" id="Shape_9_" fill="#52CBCA"></path>
                    <path d="M69.4676259,30.618705 C65.6978417,30.618705 62.618705,27.5683453 62.618705,23.7697842 C62.618705,19.971223 65.6690647,16.9208633 69.4676259,16.9208633 C73.2374101,16.9208633 76.3165468,19.971223 76.3165468,23.7697842 C76.3165468,27.5683453 73.2374101,30.618705 69.4676259,30.618705 Z M7.94244604,30.618705 C4.17266187,30.618705 1.09352518,27.5683453 1.09352518,23.7697842 C1.09352518,19.971223 4.14388489,16.9208633 7.94244604,16.9208633 C11.7410072,16.9208633 14.7913669,19.971223 14.7913669,23.7697842 C14.7913669,27.5683453 11.7122302,30.618705 7.94244604,30.618705 Z M39.0791367,80 C35.3093525,80 32.2302158,76.9496403 32.2302158,73.1510791 C32.2302158,69.352518 35.3093525,66.3021583 39.0791367,66.3021583 C42.8489209,66.3021583 45.9280576,69.352518 45.9280576,73.1510791 C45.9280576,76.9496403 42.8489209,80 39.0791367,80 Z" id="Combined-Shape" fill="#52CBCA"></path>
                    <path d="M48.6618705,32.4316547 C47.4532374,37.381295 39.8561151,34.8489209 37.352518,34.2446043 L39.5683453,25.5827338 C41.9856115,26.1294964 49.8705036,27.3381295 48.6618705,32.4316547 L48.6618705,32.4316547 Z M47.2805755,46.5035971 C45.8992806,51.971223 36.8057554,49.0071942 33.8417266,48.2589928 L36.2589928,38.676259 C39.1654676,39.4244604 48.6618705,40.8633094 47.2805755,46.5035971 L47.2805755,46.5035971 Z M48.5179856,22.4748201 L50.2733813,15.3381295 L45.9568345,14.1870504 L44.2014388,21.1798561 C43.0503597,20.8633094 41.9280576,20.6618705 40.7194245,20.3453237 L42.4748201,13.352518 L38.1582734,12.2877698 L36.3453237,19.4244604 C35.4244604,19.1942446 34.4460432,18.9640288 33.5251799,18.8201439 L27.5107914,17.294964 L26.3597122,21.9280576 L29.5539568,22.676259 C31.3093525,23.1366906 31.5971223,24.2589928 31.5971223,25.1798561 L29.5539568,33.294964 C29.6978417,33.381295 29.8705036,33.381295 30.0143885,33.4388489 C29.8705036,33.352518 29.6978417,33.352518 29.5539568,33.294964 L26.705036,44.8057554 C26.4748201,45.323741 25.9568345,46.1870504 24.7194245,45.8705036 C24.8057554,45.9568345 21.5251799,45.1223022 21.5251799,45.1223022 L19.3093525,50.1294964 L24.9208633,51.5107914 C25.9856115,51.8273381 26.9640288,52.028777 28.028777,52.3453237 L26.2158273,59.5683453 L30.5323741,60.6330935 L32.3453237,53.4964029 C33.4964029,53.8129496 34.705036,54.1007194 35.8273381,54.4172662 L34.0143885,61.4676259 L38.3309353,62.5323741 L40.1438849,55.3093525 C47.5971223,56.6906475 53.1223022,56.1438849 55.4820144,49.4676259 C57.381295,44.0863309 55.3956835,40.8920863 51.4532374,38.9064748 C54.4172662,38.3021583 56.5467626,36.4028777 57.1510791,32.5179856 C57.9856115,27.1942446 53.9856115,24.3741007 48.5179856,22.4748201 Z" id="Shape_10_" fill="#FFB900"></path>
                </g>
            </g>
        </g>
    </g>
</svg>