<?xml version="1.0" encoding="UTF-8"?>
<svg width="80px" height="80px" viewBox="0 0 80 80" version="1.1" xmlns="http://www.w3.org/2000/svg" xmlns:xlink="http://www.w3.org/1999/xlink">
    <title>easy2mine</title>
    <g id="页面-1" stroke="none" stroke-width="1" fill="none" fill-rule="evenodd">
        <g id="画板" transform="translate(-186.000000, -505.000000)" fill="#0072EF">
            <g id="easy2mine" transform="translate(186.000000, 505.000000)">
                <path d="M38.3242367,41.375035 C38.3263757,39.925217 39.0991509,38.5858617 40.3532517,37.858395 L46.2582365,34.4495539 C46.5720418,34.267994 46.7652819,33.9329373 46.7652819,33.5703938 C46.7652819,33.2078504 46.5720418,32.8727937 46.2582365,32.6912338 L25.8315407,20.898033 C25.6432118,20.7893597 25.5271855,20.5884503 25.5271855,20.3710161 C25.5271855,20.1535819 25.6432118,19.9526725 25.8315407,19.8439992 L27.8270183,18.6917486 C28.2034048,18.4738697 28.6675617,18.4738697 29.0439482,18.6917486 L49.2670239,30.3675684 C50.5270299,31.0950332 52.0794212,31.0950332 53.3394272,30.3675684 L58.5784543,27.3420123 C58.8922596,27.1604524 59.0854996,26.8253958 59.0854996,26.4628523 C59.0854996,26.1003089 58.8922596,25.7652522 58.5784543,25.5836923 L38.1517584,13.7904914 C37.9634296,13.6818182 37.8474033,13.4809087 37.8474033,13.2634746 C37.8474033,13.0460404 37.9634296,12.8451309 38.1517584,12.7364577 L40.147236,11.5842071 C40.5236226,11.3663281 40.9877794,11.3663281 41.364166,11.5842071 L61.5872417,23.2600269 C62.8472476,23.9874917 64.399639,23.9874917 65.659645,23.2600269 L72.079669,19.5517444 C72.3934743,19.3701845 72.5867144,19.0351278 72.5867144,18.6725843 C72.5867144,18.3100409 72.3934743,17.9749842 72.079669,17.7934243 L42.2193707,0.545598588 C40.9593647,-0.181866196 39.4069733,-0.181866196 38.1469674,0.545598588 L7.03620165,18.5120837 C5.77901407,19.2367794 5.00446894,20.5776193 5.00479106,22.0287238 L5.00479106,29.5243414 C5.00742577,30.974652 5.78117904,32.3141211 7.03620165,33.0409814 L23.7665926,42.6997638 C24.1461774,42.9217358 24.3768431,43.3308927 24.3702665,43.7705664 L24.3702665,46.0750675 C24.3698001,46.2923444 24.2539555,46.4930202 24.0660341,46.6020844 C23.8766443,46.7097431 23.6445633,46.7097431 23.4551736,46.6020844 L8.04711588,37.705081 C7.4187396,37.3422876 6.64456888,37.3421987 6.01610923,37.7048476 C5.38764959,38.0674964 5,38.7378146 5,39.463401 L5,57.9712762 C5.0026347,59.4215868 5.77638797,60.7610559 7.03141059,61.4879163 L38.1421763,79.4544014 C39.4021823,80.1818662 40.9545736,80.1818662 42.2145796,79.4544014 L50.5294689,74.6633387 C51.7844915,73.9364784 52.5582448,72.5970093 52.5608795,71.1466987 L52.5608795,59.940403 C52.5752573,59.6392067 52.8080651,59.3939743 53.1081079,59.3639701 C53.4081507,59.3339658 53.6849093,59.5282415 53.7586452,59.8206264 C54.4892823,63.4857894 55.3588601,67.8600297 55.7948468,70.0471498 C55.8582893,70.368118 56.0728028,70.6387048 56.3708336,70.7736981 C56.6688645,70.9086913 57.0137369,70.8914787 57.296845,70.7274807 L60.1115943,69.1033104 C61.1691149,68.4905716 61.8955195,67.4352622 62.0903032,66.2286728 C62.5694095,63.222281 63.5443908,57.2382436 64.2917966,52.6268458 C64.3358859,52.3673235 64.5709702,52.1845095 64.8333566,52.2056998 C65.095743,52.2268902 65.2984438,52.4450598 65.3003153,52.7082938 L65.3003153,64.3433896 C65.2996251,64.7066107 65.4929448,65.0425545 65.8073315,65.2244639 C66.1217182,65.4063732 66.5093143,65.4065567 66.8238732,65.2249452 L73.3181587,61.4735431 C74.5731813,60.7466827 75.3469346,59.4072136 75.3495693,57.956903 L75.3495693,25.2339447 C75.3495693,24.5083583 74.9619197,23.8380402 74.3334601,23.4753913 C73.7050004,23.1127424 72.9308297,23.1128314 72.3024534,23.4756247 L62.9790454,28.8583837 C61.9206097,29.4705931 61.193268,30.5259861 60.9979409,31.7330213 C60.6122604,34.1764633 59.929534,38.4740465 59.4144947,41.7319692 C59.3545802,42.1202302 59.0253297,42.40993 58.6326005,42.4199396 C58.2398713,42.4299492 57.8962907,42.157398 57.8166753,41.7726932 C57.3926663,39.7580513 56.8991868,37.4200127 56.5254839,35.6497151 C56.3907377,35.0136042 55.9596258,34.4804363 55.3658139,34.2155194 C54.7720019,33.9506025 54.0872569,33.985954 53.5238831,34.310613 L43.965713,39.8203351 C42.7085254,40.5450308 41.9339803,41.8858707 41.9343024,43.3369752 L41.9343024,67.4863268 C41.9336438,67.8489044 41.7402054,68.1837717 41.4264498,68.3654868 L41.1868966,68.5020321 C40.5581124,68.8639233 39.7842703,68.8639233 39.1554861,68.5020321 L19.6678385,57.2430347 C19.2916363,57.025265 19.0598159,56.6236865 19.0593735,56.1890009 L19.0593735,53.8844997 C19.0583493,53.6668245 19.1745942,53.4654554 19.363606,53.3574828 C19.5521268,53.2497697 19.7835502,53.2497697 19.972071,53.3574828 L35.2795163,62.194598 C35.9078926,62.5573913 36.6820633,62.5574803 37.310523,62.1948314 C37.9389826,61.8321825 38.3262989,61.1618644 38.3266322,60.436278 L38.3242367,41.375035 Z" id="路径"></path>
            </g>
        </g>
    </g>
</svg>