<?xml version="1.0" standalone="yes"?>
<svg id="logo" version="1.0" xmlns="http://www.w3.org/2000/svg" viewBox="0 0 16000 7110" preserveAspectRatio="xMidYMid meet">
	<g id="layer101" fill="#000000" stroke="none">
	<path d="M0 3555 l0 -3555 8000 0 8000 0 0 3555 0 3555 -8000 0 -8000 0 0 -3555z"/>
	</g>
	<g id="layer102" fill="#630100" stroke="none">
		<path d="M1300 6418 c0 -222 8 -314 34 -389 12 -34 12 -44 1 -67 -18 -36 -35 -142 -35 -223 0 -220 96 -360 288 -419 l57 -18 0 -1453 0 -1454 -72 -275 c-69 -262 -74 -276 -105 -300 -99 -76 -157 -147 -212 -257 -58 -114 -72 -296 -36 -439 53 -207 240 -393 450 -449 72 -19 258 -19 330 0 195 51 365 210 439 409 28 75 38 223 22 326 -21 136 -116 296 -230 385 l-57 45 -67 262 c-37 145 -72 287 -77 317 -6 29 -10 238 -10 463 0 324 3 409 13 405 6 -3 53 -23 102 -45 176 -77 425 -149 695 -202 36 -7 75 -19 88 -27 24 -14 138 -240 267 -528 165 -368 674 -1411 810 -1660 211 -387 281 -495 322 -495 57 0 223 290 598 1045 134 270 279 569 323 665 110 241 362 777 414 880 51 99 41 94 268 142 246 51 572 166 742 261 169 95 307 246 308 340 0 38 -19 36 -207 -22 -270 -84 -531 -153 -733 -194 -127 -26 -137 -27 -150 -12 -9 10 0 19 42 42 98 52 138 143 138 311 0 157 -41 281 -119 367 -23 25 -42 59 -50 90 -34 133 -62 193 -109 237 l-47 43 -6 125 c-6 135 -24 198 -75 251 l-24 25 12 102 c9 77 9 119 0 174 -6 40 -8 76 -3 80 4 5 74 12 156 17 168 11 251 31 382 92 112 51 218 126 313 222 103 102 165 195 223 333 69 167 78 216 84 472 l6 222 -1107 0 c-608 0 -1106 -3 -1106 -7 0 -5 13 -28 30 -53 39 -58 45 -91 25 -129 l-16 -31 -32 24 c-80 60 -166 86 -283 86 -102 0 -189 -26 -263 -77 -94 -66 -101 -70 -126 -65 -21 4 -24 8 -19 31 11 47 53 127 89 171 19 23 35 44 35 46 0 2 -614 4 -1365 4 l-1365 0 0 -222z m1202 -1049 c115 -47 175 -60 321 -68 178 -10 172 -4 169 -159 -2 -64 1 -138 6 -164 9 -44 7 -49 -21 -83 -49 -60 -68 -126 -74 -257 l-6 -118 -35 -26 c-40 -31 -83 -116 -109 -219 -13 -53 -27 -81 -58 -116 -85 -97 -120 -207 -119 -379 0 -199 54 -289 192 -324 51 -13 73 -46 30 -46 -39 0 -175 27 -348 68 -91 22 -227 55 -304 74 l-139 33 7 215 c3 118 6 504 6 856 l0 641 48 18 c88 33 157 73 196 114 l40 41 63 -36 c35 -20 96 -49 135 -65z m1166 -1384 c91 -39 112 -85 112 -250 0 -148 -18 -194 -90 -232 -83 -44 -170 -23 -225 55 -28 41 -30 50 -33 155 -5 135 7 185 53 232 53 52 118 67 183 40z m1429 -4 c64 -29 92 -80 100 -178 12 -161 -10 -245 -80 -297 -43 -31 -141 -30 -189 4 -61 41 -72 70 -76 208 -5 143 9 196 62 237 64 49 116 56 183 26z"/>
	</g>
	<g id="layer103" fill="#3200d9" stroke="none">
		<path d="M1303 6378 c3 -212 8 -274 22 -318 21 -68 21 -68 0 -160 -21 -94 -21 -236 0 -315 34 -126 126 -217 262 -258 l73 -22 -2 -1450 -3 -1450 -58 -220 c-89 -333 -95 -351 -125 -371 -53 -35 -133 -118 -172 -180 -267 -423 36 -974 535 -974 432 0 738 424 601 834 -43 126 -138 255 -238 320 -31 20 -29 14 -119 361 l-63 240 -4 442 -3 442 87 -40 c175 -81 426 -157 689 -210 61 -12 120 -28 133 -36 24 -14 138 -241 267 -528 165 -368 674 -1411 810 -1660 211 -387 281 -495 322 -495 57 0 223 290 598 1045 134 270 279 569 323 665 110 241 362 777 414 880 51 99 41 94 268 142 246 51 572 166 742 261 169 95 307 246 308 340 0 38 -19 36 -207 -22 -315 -98 -646 -183 -840 -215 -42 -7 -67 19 -38 40 10 8 23 14 28 14 6 0 25 12 44 26 137 105 132 463 -10 632 -21 25 -43 67 -53 100 -46 159 -65 200 -112 244 l-47 43 -6 125 c-6 135 -24 198 -75 251 l-24 25 12 102 c9 77 9 119 0 174 -6 40 -8 76 -3 80 4 5 74 12 156 17 168 11 251 31 382 92 112 51 218 126 313 222 103 102 165 195 223 333 69 167 78 216 84 472 l6 222 -1107 0 c-608 0 -1106 -3 -1106 -7 0 -5 13 -28 30 -53 39 -58 45 -91 25 -129 l-16 -31 -32 24 c-80 60 -166 86 -283 86 -102 0 -189 -26 -263 -77 -94 -66 -101 -70 -126 -65 -21 4 -24 8 -19 31 11 47 53 127 89 171 19 23 35 44 35 46 0 2 -615 4 -1366 4 l-1366 0 5 -262z m1064 -944 c161 -90 274 -123 456 -133 178 -10 172 -4 169 -159 -2 -64 1 -138 6 -164 9 -44 7 -49 -21 -83 -49 -60 -68 -126 -74 -257 l-6 -118 -35 -26 c-40 -31 -82 -116 -109 -219 -12 -48 -30 -86 -56 -119 -73 -94 -98 -160 -117 -313 -7 -54 -6 -94 4 -153 24 -135 80 -204 189 -231 35 -8 47 -16 47 -30 0 -37 -55 -27 -672 123 l-138 33 3 859 2 860 88 34 c65 25 101 47 140 83 29 26 54 48 56 49 2 0 33 -16 68 -36z m1868 -683 c39 -4 110 -3 160 3 50 6 146 10 215 11 102 0 131 -3 158 -18 39 -21 65 -74 60 -121 l-3 -31 -125 -7 c-168 -10 -248 -23 -324 -55 l-64 -26 -64 26 c-89 37 -140 47 -299 54 -77 3 -142 10 -145 15 -4 5 -3 30 1 55 7 51 39 87 89 103 31 10 211 5 341 -9z m275 -569 c64 -32 88 -117 50 -180 -33 -53 -68 -62 -252 -62 -146 0 -166 2 -196 20 -41 25 -66 81 -57 126 7 38 48 92 79 104 12 5 93 9 181 9 133 1 166 -2 195 -17z m-796 -215 c61 -47 70 -74 70 -227 0 -107 -3 -141 -16 -165 -74 -136 -258 -136 -319 -1 -15 33 -19 66 -19 163 0 156 14 193 95 245 46 29 141 21 189 -15z m1401 10 c22 -13 49 -40 62 -62 20 -36 23 -53 23 -170 0 -105 -4 -138 -19 -171 -22 -49 -60 -80 -114 -95 -73 -19 -148 11 -194 80 -21 31 -23 45 -23 173 0 160 12 199 77 243 50 34 131 35 188 2z"/>
	</g>
	<g id="layer104" fill="#fe9a00" stroke="none">
		<path d="M1660 6485 l0 -155 -42 -26 c-109 -68 -188 -155 -247 -273 -84 -165 -84 -422 -1 -552 42 -64 128 -125 217 -152 l73 -22 -2 -1450 -3 -1450 -58 -220 c-89 -333 -95 -351 -125 -371 -53 -35 -133 -118 -172 -180 -267 -423 36 -974 535 -974 432 0 738 424 601 834 -43 126 -138 255 -238 320 -31 20 -30 16 -120 366 l-63 245 0 1439 0 1440 88 34 c71 27 101 46 148 91 82 77 109 155 109 310 0 238 -104 437 -289 551 l-63 38 1 156 2 156 -176 0 -175 0 0 -155z"/>
		<path d="M4167 6510 c-51 -16 -99 -43 -183 -105 -16 -12 -54 -16 -160 -18 -122 -2 -144 -5 -180 -24 -85 -45 -130 -125 -149 -264 l-7 -46 -70 -22 c-88 -27 -149 -70 -192 -135 -47 -73 -65 -125 -82 -238 -11 -78 -24 -118 -55 -179 -22 -44 -53 -120 -69 -168 -26 -76 -30 -104 -30 -192 1 -57 5 -123 9 -146 7 -38 5 -45 -22 -78 -49 -60 -68 -126 -74 -257 l-6 -118 -35 -26 c-40 -31 -82 -116 -109 -219 -12 -48 -30 -86 -56 -119 -73 -94 -98 -160 -117 -313 -7 -54 -6 -94 4 -153 24 -135 80 -204 188 -230 35 -9 48 -17 50 -33 4 -25 21 -30 188 -57 459 -74 758 -95 1320 -95 572 0 867 23 1330 101 243 41 237 39 219 60 -11 14 -10 18 6 30 10 8 23 14 28 14 6 0 25 12 44 26 137 105 132 463 -10 632 -21 25 -43 67 -53 100 -46 159 -65 200 -112 244 l-47 43 -6 125 c-6 135 -24 198 -75 251 -25 26 -25 27 -13 115 21 157 -1 260 -97 460 -31 65 -47 113 -55 170 -16 116 -35 175 -78 241 -48 75 -98 112 -191 143 l-75 26 -11 64 c-24 144 -61 202 -154 244 -61 28 -68 28 -184 24 l-121 -5 -55 42 c-66 52 -109 74 -175 91 -72 20 -208 17 -278 -6z m68 -1759 c39 -4 110 -3 160 3 50 6 146 10 215 11 102 0 131 -3 158 -18 39 -21 65 -74 60 -121 l-3 -31 -125 -7 c-168 -10 -248 -23 -324 -55 l-64 -26 -64 26 c-89 37 -140 47 -299 54 -77 3 -142 10 -145 15 -4 5 -3 30 1 55 7 51 39 87 89 103 31 10 211 5 341 -9z m275 -569 c64 -32 88 -117 50 -180 -33 -53 -68 -62 -252 -62 -146 0 -166 2 -196 20 -41 25 -66 81 -57 126 7 38 48 92 79 104 12 5 93 9 181 9 133 1 166 -2 195 -17z m-796 -215 c61 -47 70 -74 70 -227 0 -107 -3 -141 -16 -165 -74 -136 -258 -136 -319 -1 -15 33 -19 66 -19 163 0 156 14 193 95 245 46 29 141 21 189 -15z m1401 10 c22 -13 49 -40 62 -62 20 -36 23 -53 23 -170 0 -105 -4 -138 -19 -171 -22 -49 -60 -80 -114 -95 -73 -19 -148 11 -194 80 -21 31 -23 45 -23 173 0 160 12 199 77 243 50 34 131 35 188 2z"/>
	</g>
	<g id="layer105" fill="#f77d3c" stroke="none">
		<path d="M1660 6485 l0 -155 -42 -26 c-109 -68 -188 -155 -247 -273 -84 -165 -84 -422 -1 -552 42 -64 128 -125 217 -152 l73 -22 -2 -1450 -3 -1450 -58 -220 c-89 -333 -95 -351 -125 -371 -53 -35 -133 -118 -172 -180 -267 -423 36 -974 535 -974 432 0 738 424 601 834 -43 126 -138 255 -238 320 -31 20 -30 16 -120 366 l-63 245 0 1439 0 1440 88 34 c71 27 101 46 148 91 82 77 109 155 109 310 0 238 -104 437 -289 551 l-63 38 1 156 2 156 -176 0 -175 0 0 -155z m150 -4890 c0 -41 2 -45 25 -45 23 0 25 4 25 45 0 45 0 45 35 45 35 0 35 -1 35 -43 0 -42 1 -43 49 -60 68 -24 101 -65 101 -126 0 -55 -23 -92 -72 -117 l-31 -16 27 -17 c42 -28 55 -53 56 -103 0 -39 -5 -52 -30 -77 -17 -17 -46 -33 -65 -37 -34 -6 -35 -8 -35 -50 0 -44 0 -44 -35 -44 -34 0 -35 1 -35 40 0 36 -2 40 -25 40 -22 0 -25 -4 -25 -40 0 -39 -1 -40 -35 -40 -34 0 -35 1 -35 40 l0 39 -77 3 -78 3 -3 33 c-3 28 0 32 20 32 45 0 48 14 48 189 0 92 -4 171 -8 177 -4 7 -18 14 -32 15 -20 3 -26 11 -28 36 l-3 32 78 3 78 3 3 43 c3 41 4 42 38 42 34 0 34 0 34 -45z"/>
		<path d="M4167 6510 c-51 -16 -99 -43 -183 -105 -16 -12 -54 -16 -160 -18 -122 -2 -144 -5 -180 -24 -85 -45 -130 -125 -149 -264 l-7 -46 -70 -22 c-88 -27 -149 -70 -192 -135 -47 -73 -65 -125 -82 -238 -11 -78 -24 -118 -55 -179 -22 -44 -53 -120 -69 -168 -26 -76 -30 -104 -30 -192 1 -57 5 -123 9 -146 7 -38 5 -45 -22 -78 -49 -60 -68 -126 -74 -257 l-6 -118 -35 -26 c-40 -31 -82 -116 -109 -219 -12 -48 -30 -86 -56 -119 -73 -94 -98 -160 -117 -313 -11 -81 6 -207 33 -259 36 -69 103 -116 177 -127 16 -3 26 -12 30 -27 7 -28 21 -33 190 -60 459 -74 758 -95 1320 -95 572 0 867 23 1330 101 243 41 237 39 219 60 -11 14 -10 18 6 30 10 8 23 14 28 14 6 0 25 12 44 26 138 105 132 462 -11 633 -20 24 -42 67 -52 99 -46 159 -65 200 -112 244 l-47 43 -6 125 c-6 135 -24 198 -75 251 -25 26 -25 27 -13 115 21 157 -1 260 -97 460 -31 65 -47 113 -55 170 -16 116 -35 175 -78 241 -48 75 -98 112 -191 143 l-75 26 -11 64 c-24 144 -61 202 -154 244 -61 28 -68 28 -184 24 l-121 -5 -55 42 c-66 52 -109 74 -175 91 -72 20 -208 17 -278 -6z m-56 -1746 c136 -20 247 -20 392 1 108 16 162 15 227 -2 8 -2 21 -5 28 -5 6 -1 12 -5 12 -10 0 -4 7 -8 15 -8 15 0 34 -28 40 -58 2 -9 6 -29 10 -43 4 -16 1 -29 -7 -36 -7 -6 -74 -14 -148 -17 -164 -9 -215 -18 -302 -52 l-67 -27 -60 26 c-79 34 -150 47 -311 55 l-135 7 0 45 c-1 25 3 54 8 65 8 20 72 56 110 62 11 2 23 6 26 8 8 9 55 5 162 -11z m386 -574 c40 -12 72 -44 77 -76 1 -7 5 -17 9 -20 11 -11 8 -52 -3 -59 -6 -4 -8 -11 -5 -16 4 -5 2 -9 -3 -9 -5 0 -12 -9 -15 -20 -4 -17 -29 -33 -77 -48 -8 -2 -86 -4 -173 -4 -174 0 -215 10 -241 60 -12 24 -14 77 -4 124 5 23 48 61 83 73 41 14 301 11 352 -5z m-796 -215 c22 -14 48 -39 58 -56 23 -38 35 -164 25 -267 -6 -69 -10 -79 -45 -117 -38 -41 -90 -65 -140 -65 -41 1 -105 36 -134 74 -35 46 -51 172 -35 286 10 68 14 78 53 118 67 68 142 78 218 27z m1419 0 c23 -14 49 -43 62 -67 19 -38 22 -58 21 -165 0 -108 -3 -127 -24 -170 -44 -88 -136 -123 -223 -84 -93 41 -106 71 -106 246 0 116 3 142 20 175 20 38 57 72 101 89 37 15 105 4 149 -24z"/>
		<path d="M7620 6098 c0 -2 7 -39 15 -83 15 -79 52 -209 126 -440 62 -198 110 -363 119 -418 5 -29 23 -132 39 -230 33 -189 61 -542 61 -762 0 -160 -25 -509 -44 -615 -97 -544 -254 -927 -514 -1255 -208 -262 -494 -471 -833 -610 -117 -48 -348 -113 -441 -125 -43 -5 -137 -23 -210 -39 -73 -17 -154 -33 -180 -37 -27 -3 -48 -10 -48 -14 0 -11 285 -66 450 -87 205 -26 490 -23 665 5 173 29 319 71 458 134 280 126 522 350 694 643 43 74 125 243 147 304 59 161 79 222 111 336 19 72 40 155 45 185 5 30 20 111 34 180 27 134 37 209 61 445 38 376 45 488 35 595 -16 173 -23 344 -16 385 l8 39 32 -60 c40 -73 112 -190 138 -224 27 -34 218 -299 322 -445 165 -232 451 -614 575 -769 31 -38 107 -135 170 -215 63 -80 139 -176 170 -212 31 -36 92 -113 136 -169 124 -161 190 -236 307 -353 97 -96 224 -195 236 -183 6 6 -40 129 -88 236 -99 221 -120 274 -157 395 -69 219 -107 404 -135 655 -18 163 -22 254 -22 555 -1 320 1 370 18 453 11 50 23 92 27 92 5 0 20 -21 35 -47 218 -386 668 -998 1039 -1413 806 -904 1678 -1410 2495 -1447 131 -6 273 8 285 27 3 4 -59 20 -138 35 -553 106 -1122 400 -1645 850 -144 124 -443 422 -597 595 -127 142 -353 420 -468 574 -151 201 -175 234 -259 350 -48 67 -119 168 -159 226 -40 58 -102 146 -138 196 -36 51 -93 132 -126 180 -33 49 -129 190 -213 314 -84 124 -191 281 -238 350 -103 153 -198 288 -285 406 -36 49 -98 138 -138 197 -70 105 -234 288 -246 275 -4 -3 7 -41 24 -84 109 -289 253 -762 281 -928 5 -28 23 -116 39 -196 60 -288 94 -777 72 -1035 -15 -182 -34 -325 -41 -325 -13 0 -186 225 -290 377 -319 466 -485 689 -1106 1488 -85 110 -194 252 -242 315 -113 149 -269 311 -357 370 -80 53 -95 62 -95 58z"/>
		<path d="M13630 5994 c-101 -9 -325 -48 -480 -83 -91 -21 -217 -48 -280 -60 -268 -49 -313 -50 -600 -7 -85 13 -157 19 -158 14 -6 -13 35 -86 83 -148 74 -97 230 -254 513 -517 149 -140 272 -258 272 -262 0 -10 -86 -21 -171 -21 -36 0 -101 -9 -144 -20 -78 -20 -176 -67 -182 -87 -3 -7 72 -12 229 -16 383 -7 464 -32 633 -197 55 -53 177 -163 270 -244 159 -138 272 -249 295 -288 9 -16 2 -16 -92 -11 -110 5 -233 -9 -413 -47 -82 -18 -122 -21 -225 -17 -144 5 -233 29 -433 116 -119 52 -137 57 -137 43 0 -17 72 -126 114 -173 100 -111 241 -199 374 -233 73 -19 366 -22 523 -5 139 15 360 15 489 0 96 -12 291 -44 349 -58 22 -6 22 -3 -14 53 -43 67 -83 111 -276 303 -155 155 -692 719 -697 732 -2 5 32 9 75 9 96 0 187 14 273 41 69 22 150 64 150 78 0 4 -89 6 -197 4 -237 -5 -373 10 -461 53 -47 22 -113 83 -362 330 l-305 304 100 0 c202 1 428 37 589 94 372 133 569 120 744 -48 35 -33 88 -93 119 -133 31 -40 60 -73 66 -73 6 0 7 22 2 58 -24 203 -105 342 -255 437 -90 57 -249 90 -380 79z"/>
		<path d="M10813 5953 c-13 -2 -30 -14 -38 -26 -18 -26 -20 -110 -3 -158 18 -53 99 -187 165 -274 33 -44 107 -143 164 -219 57 -77 140 -187 184 -246 381 -511 500 -672 531 -725 72 -120 82 -194 35 -247 -29 -33 -30 -33 -118 -32 -63 1 -102 7 -138 21 -342 138 -375 149 -375 130 0 -15 177 -187 231 -224 231 -159 512 -265 658 -247 92 11 151 86 137 173 -10 65 -55 192 -93 260 -66 122 -234 376 -395 596 -32 44 -92 127 -133 185 -41 58 -89 123 -106 145 -17 22 -68 94 -114 160 -46 66 -97 138 -113 160 -49 66 -123 217 -129 263 l-6 44 44 -6 c24 -3 67 -8 95 -11 66 -7 228 -49 285 -74 55 -24 129 -37 129 -22 0 5 -33 27 -72 49 -40 21 -116 63 -168 92 -352 196 -527 258 -657 233z"/>
		<path d="M14455 1904 l-140 -144 -135 25 c-74 14 -163 32 -197 39 -35 7 -63 9 -63 5 0 -7 130 -117 281 -239 18 -15 18 -17 -1 -93 -11 -42 -31 -117 -46 -165 -35 -113 -53 -192 -45 -192 4 0 74 72 157 160 82 88 155 160 161 160 7 0 54 -13 105 -29 51 -16 127 -38 168 -49 41 -12 83 -24 93 -27 39 -16 10 16 -123 134 -77 68 -140 127 -140 132 0 4 15 79 34 166 38 176 51 264 39 262 -4 -1 -71 -66 -148 -145z"/>
	</g>
		<g id="layer106" fill="#f1ad1f" stroke="none">
		<path d="M4167 6510 c-51 -16 -99 -43 -183 -105 -16 -12 -54 -16 -160 -18 -122 -2 -144 -5 -180 -24 -85 -45 -130 -125 -149 -264 l-7 -46 -70 -22 c-88 -27 -149 -70 -192 -135 -47 -73 -65 -125 -82 -238 -11 -78 -24 -118 -55 -179 -22 -44 -53 -120 -69 -168 -26 -76 -30 -104 -30 -192 1 -57 5 -123 9 -146 7 -38 5 -45 -22 -78 -49 -60 -68 -126 -74 -257 l-6 -118 -34 -26 c-18 -14 -44 -46 -57 -72 -25 -50 -66 -178 -66 -207 0 -10 -15 -34 -34 -55 -83 -93 -126 -219 -126 -376 0 -200 63 -293 222 -328 21 -5 27 -12 25 -28 -3 -26 12 -31 183 -58 459 -74 758 -95 1320 -95 572 0 867 23 1330 101 235 39 238 40 222 56 -21 21 -13 33 34 52 92 38 134 135 135 306 0 152 -37 269 -110 352 -16 18 -36 60 -46 93 -47 162 -65 203 -113 247 l-47 43 -6 125 c-6 135 -24 198 -75 251 -25 26 -25 27 -13 115 21 157 -1 260 -97 460 -31 65 -47 113 -55 170 -16 116 -35 175 -78 241 -48 75 -98 112 -191 143 l-75 26 -11 64 c-24 144 -61 202 -154 244 -61 28 -68 28 -184 24 l-121 -5 -55 42 c-66 52 -109 74 -175 91 -72 20 -208 17 -278 -6z m35 -1752 c80 -9 126 -8 265 6 137 15 180 16 232 6 100 -18 126 -44 135 -136 l4 -41 -51 -7 c-29 -3 -85 -6 -125 -6 -108 0 -208 -18 -283 -51 l-67 -29 -66 30 c-75 34 -163 49 -286 50 -47 0 -102 3 -122 6 -37 6 -38 8 -38 50 0 55 15 86 50 107 64 38 131 41 352 15z m314 -570 c41 -22 79 -97 70 -138 -8 -42 -34 -78 -70 -98 -46 -25 -356 -24 -403 1 -70 37 -85 148 -27 208 41 43 71 48 244 46 124 -2 161 -6 186 -19z m-848 -193 c44 -19 78 -49 100 -90 13 -24 17 -60 17 -171 0 -136 -1 -142 -27 -181 -49 -74 -153 -104 -227 -65 -19 9 -48 34 -64 54 -25 31 -31 50 -38 125 -11 107 2 223 31 263 49 68 134 95 208 65z m1407 4 c61 -17 111 -75 125 -146 15 -71 7 -224 -14 -274 -57 -135 -251 -145 -318 -15 -19 36 -22 58 -22 178 -1 136 -1 136 29 179 31 44 102 89 139 89 12 0 39 -5 61 -11z"/>
		<path d="M1709 6341 c-45 -9 -161 -86 -216 -143 -53 -54 -138 -196 -159 -262 -8 -28 -18 -97 -21 -153 -10 -172 23 -280 110 -360 96 -88 200 -122 384 -124 121 -2 136 0 225 30 210 70 297 175 313 381 5 62 2 93 -19 174 -28 109 -70 206 -112 261 -27 36 -178 160 -224 185 -29 16 -224 23 -281 11z"/>
		<path d="M1698 1914 c-122 -26 -232 -89 -324 -186 -292 -305 -200 -815 181 -1004 369 -182 812 34 901 440 71 327 -145 671 -468 745 -103 24 -194 26 -290 5z m112 -319 c0 -41 2 -45 25 -45 23 0 25 4 25 45 0 45 0 45 35 45 35 0 35 -1 35 -43 0 -42 1 -43 49 -60 68 -24 101 -65 101 -126 0 -55 -23 -92 -72 -117 l-31 -16 27 -17 c42 -28 55 -53 56 -103 0 -39 -5 -52 -30 -77 -17 -17 -46 -33 -65 -37 -34 -6 -35 -8 -35 -50 0 -44 0 -44 -35 -44 -34 0 -35 1 -35 40 0 36 -2 40 -25 40 -22 0 -25 -4 -25 -40 0 -39 -1 -40 -35 -40 -34 0 -35 1 -35 40 l0 39 -77 3 -78 3 -3 33 c-3 28 0 32 20 32 45 0 48 14 48 189 0 92 -4 171 -8 177 -4 7 -18 14 -32 15 -20 3 -26 11 -28 36 l-3 32 78 3 78 3 3 43 c3 41 4 42 38 42 34 0 34 0 34 -45z"/>
	</g>
	<g id="layer107" fill="#f5c124" stroke="none">
		<path d="M4167 6510 c-51 -16 -99 -43 -183 -105 -16 -12 -54 -16 -160 -18 -122 -2 -144 -5 -180 -24 -85 -45 -130 -125 -149 -264 l-7 -46 -70 -22 c-88 -27 -149 -70 -192 -135 -47 -73 -65 -125 -82 -238 -11 -78 -24 -118 -55 -179 -22 -44 -53 -120 -69 -168 -26 -76 -30 -104 -30 -192 1 -57 5 -123 9 -146 7 -38 5 -45 -22 -78 -49 -60 -68 -126 -74 -257 l-6 -118 -34 -26 c-18 -14 -44 -46 -57 -72 -25 -50 -66 -178 -66 -207 0 -10 -17 -41 -38 -69 -68 -90 -95 -162 -111 -292 -19 -151 23 -300 97 -346 20 -12 59 -30 87 -39 41 -13 50 -20 50 -39 0 -28 12 -32 185 -60 459 -74 758 -95 1320 -95 572 0 867 23 1330 101 235 39 238 40 222 56 -19 19 -14 38 16 50 53 23 83 50 106 96 47 94 57 208 31 338 -19 92 -44 151 -88 208 -18 24 -41 72 -51 107 -45 161 -66 207 -114 251 l-47 43 -6 125 c-6 135 -24 198 -75 251 -25 26 -25 27 -13 115 21 157 -1 260 -97 460 -31 65 -47 113 -55 170 -16 116 -35 175 -78 241 -48 75 -98 112 -191 143 l-75 26 -11 64 c-24 144 -61 202 -154 244 -61 28 -68 28 -184 24 l-121 -5 -55 42 c-66 52 -109 74 -175 91 -72 20 -208 17 -278 -6z m-3 -1747 c108 -14 134 -15 241 -2 176 20 334 19 368 -4 40 -26 67 -76 67 -123 l0 -41 -52 -7 c-29 -3 -86 -6 -126 -6 -108 0 -208 -18 -283 -51 l-67 -29 -66 30 c-75 34 -160 49 -296 51 -138 2 -154 7 -158 48 -6 62 35 123 94 141 47 14 149 11 278 -7z m366 -579 c73 -62 80 -149 16 -213 l-36 -36 -189 -3 -189 -3 -35 31 c-41 36 -62 88 -53 133 8 37 51 95 80 107 11 5 101 9 198 9 176 1 177 1 208 -25z m-849 -188 c37 -15 79 -56 100 -96 9 -17 13 -68 13 -155 1 -113 -2 -136 -21 -177 -31 -69 -88 -103 -169 -103 -54 0 -67 4 -101 31 -21 16 -48 50 -60 74 -20 39 -23 59 -23 167 0 166 20 215 105 254 48 22 110 24 156 5z m1424 -5 c81 -37 104 -90 105 -238 0 -144 -12 -194 -60 -237 -69 -62 -143 -68 -227 -20 -68 39 -83 84 -83 243 0 139 11 182 57 223 53 48 141 60 208 29z"/>
		<path d="M1691 6330 c-48 -11 -165 -94 -215 -154 -59 -69 -120 -186 -141 -271 -25 -98 -23 -250 3 -333 54 -169 204 -257 457 -269 115 -5 124 -4 220 27 163 53 251 124 297 239 18 47 22 75 22 171 0 104 -3 125 -34 213 -47 140 -89 199 -205 292 -53 42 -111 81 -128 86 -38 11 -228 10 -276 -1z"/>
		<path d="M1738 1920 c-139 -25 -250 -84 -352 -187 -287 -290 -226 -769 126 -981 287 -172 666 -85 849 195 110 169 133 367 66 562 -61 174 -222 330 -398 386 -89 28 -217 39 -291 25z m72 -325 c0 -41 2 -45 25 -45 23 0 25 4 25 45 0 45 0 45 35 45 35 0 35 -1 35 -43 0 -42 1 -43 49 -60 68 -24 101 -65 101 -126 0 -55 -23 -92 -72 -117 l-31 -16 27 -17 c42 -28 55 -53 56 -103 0 -39 -5 -52 -30 -77 -17 -17 -46 -33 -65 -37 -34 -6 -35 -8 -35 -50 0 -44 0 -44 -35 -44 -34 0 -35 1 -35 40 0 36 -2 40 -25 40 -22 0 -25 -4 -25 -40 0 -39 -1 -40 -35 -40 -34 0 -35 1 -35 40 l0 39 -77 3 -78 3 -3 33 c-3 28 0 32 20 32 45 0 48 14 48 189 0 92 -4 171 -8 177 -4 7 -18 14 -32 15 -20 3 -26 11 -28 36 l-3 32 78 3 78 3 3 43 c3 41 4 42 38 42 34 0 34 0 34 -45z"/>
		<path d="M1777 1463 c-4 -3 -7 -37 -7 -75 l0 -68 61 0 c89 0 119 19 119 77 0 48 -38 73 -110 73 -31 0 -60 -3 -63 -7z"/>
		<path d="M1778 1244 c-5 -4 -8 -34 -8 -66 l0 -58 68 0 c54 0 72 4 85 18 22 24 22 65 0 85 -19 17 -133 34 -145 21z"/>
	</g>
	<g id="layer108" fill="#fefa00" stroke="none">
		<path d="M1660 1897 c-253 -75 -423 -283 -455 -557 -14 -117 34 -290 111 -403 247 -361 798 -360 1038 2 57 86 83 151 102 262 34 199 -37 403 -192 548 -84 78 -160 121 -264 150 -103 29 -239 28 -340 -2z m150 -297 c0 -36 3 -40 25 -40 23 0 25 4 25 40 0 39 1 40 35 40 35 0 35 0 35 -44 0 -42 1 -44 35 -50 20 -4 51 -20 70 -37 44 -39 60 -85 46 -137 -12 -44 -32 -65 -75 -82 l-30 -11 33 -20 c44 -27 66 -81 52 -129 -13 -44 -37 -68 -88 -85 -35 -12 -38 -16 -41 -54 -3 -39 -4 -41 -38 -41 -33 0 -34 1 -34 40 0 36 -2 40 -25 40 -22 0 -25 -4 -25 -40 0 -39 -1 -40 -35 -40 -34 0 -35 1 -35 40 l0 40 -80 0 -80 0 0 35 c0 31 3 36 30 42 l30 6 -2 181 -3 181 -28 3 c-26 3 -28 6 -25 40 l3 37 78 3 77 3 0 39 c0 39 1 40 35 40 34 0 35 -1 35 -40z"/>
		<path d="M1780 1395 l0 -77 64 4 c74 4 106 25 106 68 0 51 -29 73 -104 78 l-66 4 0 -77z"/>
		<path d="M1780 1180 l0 -60 58 0 c67 0 102 19 102 56 0 43 -33 64 -100 64 l-60 0 0 -60z"/>
	</g>
	<g id="layer109" fill="#dce9eb" stroke="none">
		<path d="M4167 6510 c-51 -16 -99 -43 -183 -105 -16 -12 -54 -16 -160 -18 -122 -2 -144 -5 -180 -24 -85 -45 -130 -125 -149 -264 l-7 -46 -70 -22 c-88 -27 -149 -70 -192 -135 -47 -73 -65 -125 -82 -238 -11 -78 -24 -118 -55 -179 -22 -44 -53 -120 -69 -168 -26 -76 -30 -104 -30 -192 1 -57 5 -123 9 -146 7 -38 5 -45 -22 -78 -49 -60 -68 -126 -74 -257 l-6 -118 -34 -26 c-39 -30 -72 -90 -104 -194 -22 -70 -24 -91 -24 -305 0 -253 5 -284 62 -424 24 -60 33 -96 31 -124 -4 -48 -7 -47 182 -77 459 -74 758 -95 1320 -95 472 0 602 7 990 51 126 14 530 79 558 89 9 3 5 16 -14 45 -29 44 -29 46 4 175 41 157 56 501 26 604 -45 157 -65 199 -112 243 l-47 43 -6 125 c-6 135 -24 198 -75 251 -25 26 -25 27 -13 115 21 157 -1 260 -97 460 -31 65 -47 113 -55 170 -16 116 -35 175 -78 241 -48 75 -98 112 -191 143 l-75 26 -11 64 c-24 144 -61 202 -154 244 -61 28 -68 28 -184 24 l-121 -5 -55 42 c-66 52 -109 74 -175 91 -72 20 -208 17 -278 -6z m815 -1551 c29 -6 71 -20 93 -31 41 -21 144 -114 176 -160 l20 -27 -43 -24 c-45 -26 -222 -84 -343 -112 -38 -9 -137 -20 -220 -25 -170 -9 -217 -18 -297 -55 l-57 -26 -38 19 c-82 42 -136 53 -302 62 -143 7 -184 14 -295 44 -151 42 -288 96 -294 115 -7 20 146 164 204 191 27 14 74 26 106 28 65 5 101 -9 233 -92 130 -81 163 -94 277 -107 81 -9 128 -10 207 -1 112 13 161 33 305 126 76 48 161 85 198 86 9 0 41 -5 70 -11z m517 -474 c36 -25 77 -53 91 -64 l25 -20 -18 -83 c-10 -46 -23 -117 -29 -158 -15 -109 -3 -404 21 -520 10 -52 17 -98 15 -102 -2 -3 -41 -19 -87 -34 -100 -33 -119 -42 -228 -111 -103 -64 -112 -66 -444 -85 -491 -27 -1278 -7 -1360 35 -11 5 -56 36 -100 67 -111 80 -136 91 -250 109 -89 15 -100 19 -103 38 -2 12 8 73 22 136 22 98 26 138 26 283 0 144 -4 185 -25 279 -14 60 -25 119 -25 131 0 22 62 69 148 113 50 25 47 26 157 -59 94 -73 264 -161 367 -191 49 -14 116 -22 204 -26 168 -7 241 12 335 87 34 27 67 46 73 43 6 -4 38 -26 71 -49 82 -57 142 -76 255 -82 226 -10 464 76 659 239 111 93 100 91 200 24z"/>
		<path d="M7623 6073 c10 -37 20 -79 22 -98 6 -42 55 -210 131 -445 46 -142 104 -349 109 -391 2 -19 18 -113 34 -209 43 -251 42 -238 56 -622 21 -544 -62 -1053 -243 -1489 -157 -377 -441 -730 -751 -931 -66 -43 -284 -161 -328 -177 -26 -10 -77 -30 -113 -44 -99 -39 -267 -87 -345 -98 -38 -6 -153 -28 -255 -50 -102 -22 -195 -39 -207 -39 -13 0 -23 -4 -23 -8 0 -9 229 -60 296 -67 22 -2 93 -11 159 -21 165 -25 490 -24 630 0 55 10 113 20 130 22 36 5 33 4 165 44 114 35 269 105 376 170 139 86 316 257 429 417 111 157 253 459 307 652 38 137 76 288 87 346 44 230 61 335 66 402 3 43 7 89 10 103 3 14 14 120 26 235 23 230 26 411 10 550 -12 102 -13 261 -2 289 6 16 10 13 26 -20 18 -40 120 -206 158 -259 77 -107 147 -203 182 -250 22 -29 79 -109 127 -177 48 -68 120 -167 160 -221 40 -54 89 -120 108 -146 66 -90 224 -296 359 -466 74 -93 155 -197 180 -229 25 -33 55 -69 66 -80 12 -12 54 -64 95 -116 206 -262 267 -336 354 -423 127 -128 276 -246 276 -220 0 14 -76 205 -112 283 -81 173 -174 429 -184 509 -2 18 -13 68 -23 110 -26 103 -50 237 -56 308 -2 32 -10 110 -17 173 -8 73 -13 246 -13 470 0 317 2 364 20 443 11 48 24 86 29 84 5 -2 27 -34 48 -72 111 -197 306 -483 513 -755 77 -100 151 -198 165 -216 49 -65 219 -270 307 -369 332 -378 692 -705 1025 -932 59 -40 109 -73 112 -73 3 0 32 -18 65 -40 33 -22 63 -40 66 -40 3 0 22 -11 43 -24 90 -56 364 -187 474 -225 29 -10 87 -31 128 -45 41 -15 86 -28 100 -31 14 -2 75 -15 135 -29 138 -32 332 -56 450 -56 92 0 203 15 218 29 7 7 -108 34 -193 45 -19 3 -75 17 -125 32 -49 15 -118 35 -153 45 -126 36 -306 112 -487 203 -408 208 -786 496 -1175 893 -148 151 -164 169 -286 308 -75 86 -286 341 -319 386 -11 15 -93 123 -181 240 -89 118 -185 248 -213 289 -28 41 -66 95 -84 120 -19 25 -57 80 -86 122 -29 43 -57 81 -62 84 -6 3 -14 16 -20 27 -5 12 -46 74 -92 139 -83 118 -257 372 -357 523 -174 261 -384 562 -420 600 -11 12 -20 26 -20 32 0 6 -6 16 -14 22 -8 7 -45 58 -82 114 -37 56 -91 131 -120 167 -56 71 -152 165 -160 157 -3 -3 9 -40 26 -83 85 -213 253 -769 280 -928 5 -28 20 -104 34 -169 32 -145 45 -228 51 -315 3 -37 10 -103 16 -147 17 -133 22 -460 10 -600 -15 -177 -34 -325 -41 -325 -15 0 -176 212 -320 421 -67 97 -193 277 -213 304 -22 30 -108 148 -177 244 -19 26 -75 101 -125 166 -49 66 -106 140 -125 166 -39 54 -204 266 -341 439 -50 63 -109 139 -132 168 -23 29 -58 74 -77 101 -217 298 -371 467 -500 550 -70 45 -84 50 -77 24z"/>
		<path d="M13640 5993 c-94 -5 -319 -43 -465 -78 -77 -18 -158 -36 -180 -40 -22 -4 -98 -18 -170 -33 -170 -34 -334 -34 -555 1 -85 13 -157 20 -158 15 -6 -13 35 -86 83 -147 62 -80 294 -312 558 -560 125 -117 227 -216 227 -221 0 -9 -55 -17 -195 -26 -56 -3 -127 -15 -160 -26 -67 -22 -145 -64 -145 -78 0 -6 77 -10 188 -9 264 0 409 -21 517 -74 41 -20 94 -62 165 -132 58 -56 139 -130 180 -165 225 -191 412 -371 398 -385 -2 -2 -21 0 -43 5 -90 21 -253 6 -498 -44 -42 -9 -124 -16 -184 -16 -102 0 -126 4 -273 46 -14 4 -81 30 -150 59 -143 61 -170 70 -170 58 0 -18 70 -125 112 -172 94 -104 239 -197 363 -232 64 -18 419 -18 631 0 207 17 437 -1 684 -54 36 -7 67 -12 69 -10 5 5 -57 105 -78 126 -244 245 -914 944 -919 960 -2 5 31 9 75 9 97 0 188 14 273 42 68 22 142 60 147 74 2 5 -115 9 -260 9 -245 0 -266 2 -327 23 -36 12 -85 35 -110 52 -25 16 -174 159 -332 317 l-287 288 148 6 c224 10 352 33 552 100 263 88 412 105 540 61 117 -40 188 -98 300 -242 34 -44 66 -80 71 -80 10 0 2 90 -13 155 -14 58 -49 145 -73 180 -28 42 -123 133 -169 162 -83 53 -235 84 -367 76z"/>
		<path d="M10803 5944 c-27 -11 -33 -20 -39 -59 -9 -61 0 -107 32 -169 33 -64 129 -206 242 -357 48 -64 137 -183 197 -264 61 -81 126 -167 145 -190 19 -24 73 -96 120 -160 47 -65 130 -179 186 -254 156 -212 194 -282 194 -362 0 -29 -8 -47 -29 -71 -27 -30 -34 -33 -102 -36 -81 -4 -83 -3 -333 97 -144 58 -186 70 -186 52 0 -20 107 -127 194 -193 81 -62 249 -163 296 -178 14 -5 57 -22 95 -38 94 -39 228 -65 293 -56 93 12 154 92 137 181 -14 74 -59 192 -102 268 -83 145 -233 371 -385 580 -33 44 -93 127 -134 185 -41 58 -88 123 -105 145 -17 22 -62 85 -101 140 -38 55 -78 109 -89 121 -10 11 -19 24 -19 28 0 4 -11 22 -24 39 -59 79 -148 278 -131 295 2 2 47 -1 100 -7 106 -12 256 -49 325 -79 49 -21 130 -35 130 -22 0 5 -37 28 -82 53 -46 24 -121 66 -168 92 -287 161 -480 237 -594 234 -17 0 -45 -7 -63 -15z"/>
		<path d="M14455 1904 l-140 -145 -110 21 c-60 12 -149 29 -197 39 -49 10 -88 14 -88 10 0 -5 67 -63 150 -130 173 -140 162 -103 97 -319 -47 -159 -67 -240 -58 -240 3 0 74 72 156 160 83 88 156 160 164 160 8 0 51 -11 95 -25 45 -13 122 -37 171 -51 50 -15 96 -29 103 -31 34 -13 -1 23 -128 135 -77 67 -140 127 -140 133 0 6 15 81 34 167 38 175 51 263 39 261 -4 -1 -71 -66 -148 -145z"/>
	</g>
</svg>
