<?xml version="1.0" standalone="yes"?>
<svg xmlns="http://www.w3.org/2000/svg" id="logo" version="1.0" viewBox="400 0 7410 7110" preserveAspectRatio="xMidYMid meet">
	<g id="layer101" fill="#000000" stroke="none">
	<path d="M0 3555 l0 -3555 8000 0 8000 0 0 3555 0 3555 -8000 0 -8000 0 0 -3555z"/>
	</g>
	<g id="layer102" fill="#630100" stroke="none">
		<path d="M1300 6418 c0 -222 8 -314 34 -389 12 -34 12 -44 1 -67 -18 -36 -35 -142 -35 -223 0 -220 96 -360 288 -419 l57 -18 0 -1453 0 -1454 -72 -275 c-69 -262 -74 -276 -105 -300 -99 -76 -157 -147 -212 -257 -58 -114 -72 -296 -36 -439 53 -207 240 -393 450 -449 72 -19 258 -19 330 0 195 51 365 210 439 409 28 75 38 223 22 326 -21 136 -116 296 -230 385 l-57 45 -67 262 c-37 145 -72 287 -77 317 -6 29 -10 238 -10 463 0 324 3 409 13 405 6 -3 53 -23 102 -45 176 -77 425 -149 695 -202 36 -7 75 -19 88 -27 24 -14 138 -240 267 -528 165 -368 674 -1411 810 -1660 211 -387 281 -495 322 -495 57 0 223 290 598 1045 134 270 279 569 323 665 110 241 362 777 414 880 51 99 41 94 268 142 246 51 572 166 742 261 169 95 307 246 308 340 0 38 -19 36 -207 -22 -270 -84 -531 -153 -733 -194 -127 -26 -137 -27 -150 -12 -9 10 0 19 42 42 98 52 138 143 138 311 0 157 -41 281 -119 367 -23 25 -42 59 -50 90 -34 133 -62 193 -109 237 l-47 43 -6 125 c-6 135 -24 198 -75 251 l-24 25 12 102 c9 77 9 119 0 174 -6 40 -8 76 -3 80 4 5 74 12 156 17 168 11 251 31 382 92 112 51 218 126 313 222 103 102 165 195 223 333 69 167 78 216 84 472 l6 222 -1107 0 c-608 0 -1106 -3 -1106 -7 0 -5 13 -28 30 -53 39 -58 45 -91 25 -129 l-16 -31 -32 24 c-80 60 -166 86 -283 86 -102 0 -189 -26 -263 -77 -94 -66 -101 -70 -126 -65 -21 4 -24 8 -19 31 11 47 53 127 89 171 19 23 35 44 35 46 0 2 -614 4 -1365 4 l-1365 0 0 -222z m1202 -1049 c115 -47 175 -60 321 -68 178 -10 172 -4 169 -159 -2 -64 1 -138 6 -164 9 -44 7 -49 -21 -83 -49 -60 -68 -126 -74 -257 l-6 -118 -35 -26 c-40 -31 -83 -116 -109 -219 -13 -53 -27 -81 -58 -116 -85 -97 -120 -207 -119 -379 0 -199 54 -289 192 -324 51 -13 73 -46 30 -46 -39 0 -175 27 -348 68 -91 22 -227 55 -304 74 l-139 33 7 215 c3 118 6 504 6 856 l0 641 48 18 c88 33 157 73 196 114 l40 41 63 -36 c35 -20 96 -49 135 -65z m1166 -1384 c91 -39 112 -85 112 -250 0 -148 -18 -194 -90 -232 -83 -44 -170 -23 -225 55 -28 41 -30 50 -33 155 -5 135 7 185 53 232 53 52 118 67 183 40z m1429 -4 c64 -29 92 -80 100 -178 12 -161 -10 -245 -80 -297 -43 -31 -141 -30 -189 4 -61 41 -72 70 -76 208 -5 143 9 196 62 237 64 49 116 56 183 26z"/>
	</g>
	<g id="layer103" fill="#3200d9" stroke="none">
		<path d="M1303 6378 c3 -212 8 -274 22 -318 21 -68 21 -68 0 -160 -21 -94 -21 -236 0 -315 34 -126 126 -217 262 -258 l73 -22 -2 -1450 -3 -1450 -58 -220 c-89 -333 -95 -351 -125 -371 -53 -35 -133 -118 -172 -180 -267 -423 36 -974 535 -974 432 0 738 424 601 834 -43 126 -138 255 -238 320 -31 20 -29 14 -119 361 l-63 240 -4 442 -3 442 87 -40 c175 -81 426 -157 689 -210 61 -12 120 -28 133 -36 24 -14 138 -241 267 -528 165 -368 674 -1411 810 -1660 211 -387 281 -495 322 -495 57 0 223 290 598 1045 134 270 279 569 323 665 110 241 362 777 414 880 51 99 41 94 268 142 246 51 572 166 742 261 169 95 307 246 308 340 0 38 -19 36 -207 -22 -315 -98 -646 -183 -840 -215 -42 -7 -67 19 -38 40 10 8 23 14 28 14 6 0 25 12 44 26 137 105 132 463 -10 632 -21 25 -43 67 -53 100 -46 159 -65 200 -112 244 l-47 43 -6 125 c-6 135 -24 198 -75 251 l-24 25 12 102 c9 77 9 119 0 174 -6 40 -8 76 -3 80 4 5 74 12 156 17 168 11 251 31 382 92 112 51 218 126 313 222 103 102 165 195 223 333 69 167 78 216 84 472 l6 222 -1107 0 c-608 0 -1106 -3 -1106 -7 0 -5 13 -28 30 -53 39 -58 45 -91 25 -129 l-16 -31 -32 24 c-80 60 -166 86 -283 86 -102 0 -189 -26 -263 -77 -94 -66 -101 -70 -126 -65 -21 4 -24 8 -19 31 11 47 53 127 89 171 19 23 35 44 35 46 0 2 -615 4 -1366 4 l-1366 0 5 -262z m1064 -944 c161 -90 274 -123 456 -133 178 -10 172 -4 169 -159 -2 -64 1 -138 6 -164 9 -44 7 -49 -21 -83 -49 -60 -68 -126 -74 -257 l-6 -118 -35 -26 c-40 -31 -82 -116 -109 -219 -12 -48 -30 -86 -56 -119 -73 -94 -98 -160 -117 -313 -7 -54 -6 -94 4 -153 24 -135 80 -204 189 -231 35 -8 47 -16 47 -30 0 -37 -55 -27 -672 123 l-138 33 3 859 2 860 88 34 c65 25 101 47 140 83 29 26 54 48 56 49 2 0 33 -16 68 -36z m1868 -683 c39 -4 110 -3 160 3 50 6 146 10 215 11 102 0 131 -3 158 -18 39 -21 65 -74 60 -121 l-3 -31 -125 -7 c-168 -10 -248 -23 -324 -55 l-64 -26 -64 26 c-89 37 -140 47 -299 54 -77 3 -142 10 -145 15 -4 5 -3 30 1 55 7 51 39 87 89 103 31 10 211 5 341 -9z m275 -569 c64 -32 88 -117 50 -180 -33 -53 -68 -62 -252 -62 -146 0 -166 2 -196 20 -41 25 -66 81 -57 126 7 38 48 92 79 104 12 5 93 9 181 9 133 1 166 -2 195 -17z m-796 -215 c61 -47 70 -74 70 -227 0 -107 -3 -141 -16 -165 -74 -136 -258 -136 -319 -1 -15 33 -19 66 -19 163 0 156 14 193 95 245 46 29 141 21 189 -15z m1401 10 c22 -13 49 -40 62 -62 20 -36 23 -53 23 -170 0 -105 -4 -138 -19 -171 -22 -49 -60 -80 -114 -95 -73 -19 -148 11 -194 80 -21 31 -23 45 -23 173 0 160 12 199 77 243 50 34 131 35 188 2z"/>
	</g>
	<g id="layer104" fill="#fe9a00" stroke="none">
		<path d="M1660 6485 l0 -155 -42 -26 c-109 -68 -188 -155 -247 -273 -84 -165 -84 -422 -1 -552 42 -64 128 -125 217 -152 l73 -22 -2 -1450 -3 -1450 -58 -220 c-89 -333 -95 -351 -125 -371 -53 -35 -133 -118 -172 -180 -267 -423 36 -974 535 -974 432 0 738 424 601 834 -43 126 -138 255 -238 320 -31 20 -30 16 -120 366 l-63 245 0 1439 0 1440 88 34 c71 27 101 46 148 91 82 77 109 155 109 310 0 238 -104 437 -289 551 l-63 38 1 156 2 156 -176 0 -175 0 0 -155z"/>
		<path d="M4167 6510 c-51 -16 -99 -43 -183 -105 -16 -12 -54 -16 -160 -18 -122 -2 -144 -5 -180 -24 -85 -45 -130 -125 -149 -264 l-7 -46 -70 -22 c-88 -27 -149 -70 -192 -135 -47 -73 -65 -125 -82 -238 -11 -78 -24 -118 -55 -179 -22 -44 -53 -120 -69 -168 -26 -76 -30 -104 -30 -192 1 -57 5 -123 9 -146 7 -38 5 -45 -22 -78 -49 -60 -68 -126 -74 -257 l-6 -118 -35 -26 c-40 -31 -82 -116 -109 -219 -12 -48 -30 -86 -56 -119 -73 -94 -98 -160 -117 -313 -7 -54 -6 -94 4 -153 24 -135 80 -204 188 -230 35 -9 48 -17 50 -33 4 -25 21 -30 188 -57 459 -74 758 -95 1320 -95 572 0 867 23 1330 101 243 41 237 39 219 60 -11 14 -10 18 6 30 10 8 23 14 28 14 6 0 25 12 44 26 137 105 132 463 -10 632 -21 25 -43 67 -53 100 -46 159 -65 200 -112 244 l-47 43 -6 125 c-6 135 -24 198 -75 251 -25 26 -25 27 -13 115 21 157 -1 260 -97 460 -31 65 -47 113 -55 170 -16 116 -35 175 -78 241 -48 75 -98 112 -191 143 l-75 26 -11 64 c-24 144 -61 202 -154 244 -61 28 -68 28 -184 24 l-121 -5 -55 42 c-66 52 -109 74 -175 91 -72 20 -208 17 -278 -6z m68 -1759 c39 -4 110 -3 160 3 50 6 146 10 215 11 102 0 131 -3 158 -18 39 -21 65 -74 60 -121 l-3 -31 -125 -7 c-168 -10 -248 -23 -324 -55 l-64 -26 -64 26 c-89 37 -140 47 -299 54 -77 3 -142 10 -145 15 -4 5 -3 30 1 55 7 51 39 87 89 103 31 10 211 5 341 -9z m275 -569 c64 -32 88 -117 50 -180 -33 -53 -68 -62 -252 -62 -146 0 -166 2 -196 20 -41 25 -66 81 -57 126 7 38 48 92 79 104 12 5 93 9 181 9 133 1 166 -2 195 -17z m-796 -215 c61 -47 70 -74 70 -227 0 -107 -3 -141 -16 -165 -74 -136 -258 -136 -319 -1 -15 33 -19 66 -19 163 0 156 14 193 95 245 46 29 141 21 189 -15z m1401 10 c22 -13 49 -40 62 -62 20 -36 23 -53 23 -170 0 -105 -4 -138 -19 -171 -22 -49 -60 -80 -114 -95 -73 -19 -148 11 -194 80 -21 31 -23 45 -23 173 0 160 12 199 77 243 50 34 131 35 188 2z"/>
	</g>
	
		<g id="layer106" fill="#f1ad1f" stroke="none">
		<path d="M4167 6510 c-51 -16 -99 -43 -183 -105 -16 -12 -54 -16 -160 -18 -122 -2 -144 -5 -180 -24 -85 -45 -130 -125 -149 -264 l-7 -46 -70 -22 c-88 -27 -149 -70 -192 -135 -47 -73 -65 -125 -82 -238 -11 -78 -24 -118 -55 -179 -22 -44 -53 -120 -69 -168 -26 -76 -30 -104 -30 -192 1 -57 5 -123 9 -146 7 -38 5 -45 -22 -78 -49 -60 -68 -126 -74 -257 l-6 -118 -34 -26 c-18 -14 -44 -46 -57 -72 -25 -50 -66 -178 -66 -207 0 -10 -15 -34 -34 -55 -83 -93 -126 -219 -126 -376 0 -200 63 -293 222 -328 21 -5 27 -12 25 -28 -3 -26 12 -31 183 -58 459 -74 758 -95 1320 -95 572 0 867 23 1330 101 235 39 238 40 222 56 -21 21 -13 33 34 52 92 38 134 135 135 306 0 152 -37 269 -110 352 -16 18 -36 60 -46 93 -47 162 -65 203 -113 247 l-47 43 -6 125 c-6 135 -24 198 -75 251 -25 26 -25 27 -13 115 21 157 -1 260 -97 460 -31 65 -47 113 -55 170 -16 116 -35 175 -78 241 -48 75 -98 112 -191 143 l-75 26 -11 64 c-24 144 -61 202 -154 244 -61 28 -68 28 -184 24 l-121 -5 -55 42 c-66 52 -109 74 -175 91 -72 20 -208 17 -278 -6z m35 -1752 c80 -9 126 -8 265 6 137 15 180 16 232 6 100 -18 126 -44 135 -136 l4 -41 -51 -7 c-29 -3 -85 -6 -125 -6 -108 0 -208 -18 -283 -51 l-67 -29 -66 30 c-75 34 -163 49 -286 50 -47 0 -102 3 -122 6 -37 6 -38 8 -38 50 0 55 15 86 50 107 64 38 131 41 352 15z m314 -570 c41 -22 79 -97 70 -138 -8 -42 -34 -78 -70 -98 -46 -25 -356 -24 -403 1 -70 37 -85 148 -27 208 41 43 71 48 244 46 124 -2 161 -6 186 -19z m-848 -193 c44 -19 78 -49 100 -90 13 -24 17 -60 17 -171 0 -136 -1 -142 -27 -181 -49 -74 -153 -104 -227 -65 -19 9 -48 34 -64 54 -25 31 -31 50 -38 125 -11 107 2 223 31 263 49 68 134 95 208 65z m1407 4 c61 -17 111 -75 125 -146 15 -71 7 -224 -14 -274 -57 -135 -251 -145 -318 -15 -19 36 -22 58 -22 178 -1 136 -1 136 29 179 31 44 102 89 139 89 12 0 39 -5 61 -11z"/>
		<path d="M1709 6341 c-45 -9 -161 -86 -216 -143 -53 -54 -138 -196 -159 -262 -8 -28 -18 -97 -21 -153 -10 -172 23 -280 110 -360 96 -88 200 -122 384 -124 121 -2 136 0 225 30 210 70 297 175 313 381 5 62 2 93 -19 174 -28 109 -70 206 -112 261 -27 36 -178 160 -224 185 -29 16 -224 23 -281 11z"/>
		<path d="M1698 1914 c-122 -26 -232 -89 -324 -186 -292 -305 -200 -815 181 -1004 369 -182 812 34 901 440 71 327 -145 671 -468 745 -103 24 -194 26 -290 5z m112 -319 c0 -41 2 -45 25 -45 23 0 25 4 25 45 0 45 0 45 35 45 35 0 35 -1 35 -43 0 -42 1 -43 49 -60 68 -24 101 -65 101 -126 0 -55 -23 -92 -72 -117 l-31 -16 27 -17 c42 -28 55 -53 56 -103 0 -39 -5 -52 -30 -77 -17 -17 -46 -33 -65 -37 -34 -6 -35 -8 -35 -50 0 -44 0 -44 -35 -44 -34 0 -35 1 -35 40 0 36 -2 40 -25 40 -22 0 -25 -4 -25 -40 0 -39 -1 -40 -35 -40 -34 0 -35 1 -35 40 l0 39 -77 3 -78 3 -3 33 c-3 28 0 32 20 32 45 0 48 14 48 189 0 92 -4 171 -8 177 -4 7 -18 14 -32 15 -20 3 -26 11 -28 36 l-3 32 78 3 78 3 3 43 c3 41 4 42 38 42 34 0 34 0 34 -45z"/>
	</g>
	<g id="layer107" fill="#f5c124" stroke="none">
		<path d="M4167 6510 c-51 -16 -99 -43 -183 -105 -16 -12 -54 -16 -160 -18 -122 -2 -144 -5 -180 -24 -85 -45 -130 -125 -149 -264 l-7 -46 -70 -22 c-88 -27 -149 -70 -192 -135 -47 -73 -65 -125 -82 -238 -11 -78 -24 -118 -55 -179 -22 -44 -53 -120 -69 -168 -26 -76 -30 -104 -30 -192 1 -57 5 -123 9 -146 7 -38 5 -45 -22 -78 -49 -60 -68 -126 -74 -257 l-6 -118 -34 -26 c-18 -14 -44 -46 -57 -72 -25 -50 -66 -178 -66 -207 0 -10 -17 -41 -38 -69 -68 -90 -95 -162 -111 -292 -19 -151 23 -300 97 -346 20 -12 59 -30 87 -39 41 -13 50 -20 50 -39 0 -28 12 -32 185 -60 459 -74 758 -95 1320 -95 572 0 867 23 1330 101 235 39 238 40 222 56 -19 19 -14 38 16 50 53 23 83 50 106 96 47 94 57 208 31 338 -19 92 -44 151 -88 208 -18 24 -41 72 -51 107 -45 161 -66 207 -114 251 l-47 43 -6 125 c-6 135 -24 198 -75 251 -25 26 -25 27 -13 115 21 157 -1 260 -97 460 -31 65 -47 113 -55 170 -16 116 -35 175 -78 241 -48 75 -98 112 -191 143 l-75 26 -11 64 c-24 144 -61 202 -154 244 -61 28 -68 28 -184 24 l-121 -5 -55 42 c-66 52 -109 74 -175 91 -72 20 -208 17 -278 -6z m-3 -1747 c108 -14 134 -15 241 -2 176 20 334 19 368 -4 40 -26 67 -76 67 -123 l0 -41 -52 -7 c-29 -3 -86 -6 -126 -6 -108 0 -208 -18 -283 -51 l-67 -29 -66 30 c-75 34 -160 49 -296 51 -138 2 -154 7 -158 48 -6 62 35 123 94 141 47 14 149 11 278 -7z m366 -579 c73 -62 80 -149 16 -213 l-36 -36 -189 -3 -189 -3 -35 31 c-41 36 -62 88 -53 133 8 37 51 95 80 107 11 5 101 9 198 9 176 1 177 1 208 -25z m-849 -188 c37 -15 79 -56 100 -96 9 -17 13 -68 13 -155 1 -113 -2 -136 -21 -177 -31 -69 -88 -103 -169 -103 -54 0 -67 4 -101 31 -21 16 -48 50 -60 74 -20 39 -23 59 -23 167 0 166 20 215 105 254 48 22 110 24 156 5z m1424 -5 c81 -37 104 -90 105 -238 0 -144 -12 -194 -60 -237 -69 -62 -143 -68 -227 -20 -68 39 -83 84 -83 243 0 139 11 182 57 223 53 48 141 60 208 29z"/>
		<path d="M1691 6330 c-48 -11 -165 -94 -215 -154 -59 -69 -120 -186 -141 -271 -25 -98 -23 -250 3 -333 54 -169 204 -257 457 -269 115 -5 124 -4 220 27 163 53 251 124 297 239 18 47 22 75 22 171 0 104 -3 125 -34 213 -47 140 -89 199 -205 292 -53 42 -111 81 -128 86 -38 11 -228 10 -276 -1z"/>
		<path d="M1738 1920 c-139 -25 -250 -84 -352 -187 -287 -290 -226 -769 126 -981 287 -172 666 -85 849 195 110 169 133 367 66 562 -61 174 -222 330 -398 386 -89 28 -217 39 -291 25z m72 -325 c0 -41 2 -45 25 -45 23 0 25 4 25 45 0 45 0 45 35 45 35 0 35 -1 35 -43 0 -42 1 -43 49 -60 68 -24 101 -65 101 -126 0 -55 -23 -92 -72 -117 l-31 -16 27 -17 c42 -28 55 -53 56 -103 0 -39 -5 -52 -30 -77 -17 -17 -46 -33 -65 -37 -34 -6 -35 -8 -35 -50 0 -44 0 -44 -35 -44 -34 0 -35 1 -35 40 0 36 -2 40 -25 40 -22 0 -25 -4 -25 -40 0 -39 -1 -40 -35 -40 -34 0 -35 1 -35 40 l0 39 -77 3 -78 3 -3 33 c-3 28 0 32 20 32 45 0 48 14 48 189 0 92 -4 171 -8 177 -4 7 -18 14 -32 15 -20 3 -26 11 -28 36 l-3 32 78 3 78 3 3 43 c3 41 4 42 38 42 34 0 34 0 34 -45z"/>
		<path d="M1777 1463 c-4 -3 -7 -37 -7 -75 l0 -68 61 0 c89 0 119 19 119 77 0 48 -38 73 -110 73 -31 0 -60 -3 -63 -7z"/>
		<path d="M1778 1244 c-5 -4 -8 -34 -8 -66 l0 -58 68 0 c54 0 72 4 85 18 22 24 22 65 0 85 -19 17 -133 34 -145 21z"/>
	</g>
	<g id="layer108" fill="#fefa00" stroke="none">
		<path d="M1660 1897 c-253 -75 -423 -283 -455 -557 -14 -117 34 -290 111 -403 247 -361 798 -360 1038 2 57 86 83 151 102 262 34 199 -37 403 -192 548 -84 78 -160 121 -264 150 -103 29 -239 28 -340 -2z m150 -297 c0 -36 3 -40 25 -40 23 0 25 4 25 40 0 39 1 40 35 40 35 0 35 0 35 -44 0 -42 1 -44 35 -50 20 -4 51 -20 70 -37 44 -39 60 -85 46 -137 -12 -44 -32 -65 -75 -82 l-30 -11 33 -20 c44 -27 66 -81 52 -129 -13 -44 -37 -68 -88 -85 -35 -12 -38 -16 -41 -54 -3 -39 -4 -41 -38 -41 -33 0 -34 1 -34 40 0 36 -2 40 -25 40 -22 0 -25 -4 -25 -40 0 -39 -1 -40 -35 -40 -34 0 -35 1 -35 40 l0 40 -80 0 -80 0 0 35 c0 31 3 36 30 42 l30 6 -2 181 -3 181 -28 3 c-26 3 -28 6 -25 40 l3 37 78 3 77 3 0 39 c0 39 1 40 35 40 34 0 35 -1 35 -40z"/>
		<path d="M1780 1395 l0 -77 64 4 c74 4 106 25 106 68 0 51 -29 73 -104 78 l-66 4 0 -77z"/>
		<path d="M1780 1180 l0 -60 58 0 c67 0 102 19 102 56 0 43 -33 64 -100 64 l-60 0 0 -60z"/>
	</g>
	<g id="layer109" fill="#dce9eb" stroke="none">
		<path d="M4167 6510 c-51 -16 -99 -43 -183 -105 -16 -12 -54 -16 -160 -18 -122 -2 -144 -5 -180 -24 -85 -45 -130 -125 -149 -264 l-7 -46 -70 -22 c-88 -27 -149 -70 -192 -135 -47 -73 -65 -125 -82 -238 -11 -78 -24 -118 -55 -179 -22 -44 -53 -120 -69 -168 -26 -76 -30 -104 -30 -192 1 -57 5 -123 9 -146 7 -38 5 -45 -22 -78 -49 -60 -68 -126 -74 -257 l-6 -118 -34 -26 c-39 -30 -72 -90 -104 -194 -22 -70 -24 -91 -24 -305 0 -253 5 -284 62 -424 24 -60 33 -96 31 -124 -4 -48 -7 -47 182 -77 459 -74 758 -95 1320 -95 472 0 602 7 990 51 126 14 530 79 558 89 9 3 5 16 -14 45 -29 44 -29 46 4 175 41 157 56 501 26 604 -45 157 -65 199 -112 243 l-47 43 -6 125 c-6 135 -24 198 -75 251 -25 26 -25 27 -13 115 21 157 -1 260 -97 460 -31 65 -47 113 -55 170 -16 116 -35 175 -78 241 -48 75 -98 112 -191 143 l-75 26 -11 64 c-24 144 -61 202 -154 244 -61 28 -68 28 -184 24 l-121 -5 -55 42 c-66 52 -109 74 -175 91 -72 20 -208 17 -278 -6z m815 -1551 c29 -6 71 -20 93 -31 41 -21 144 -114 176 -160 l20 -27 -43 -24 c-45 -26 -222 -84 -343 -112 -38 -9 -137 -20 -220 -25 -170 -9 -217 -18 -297 -55 l-57 -26 -38 19 c-82 42 -136 53 -302 62 -143 7 -184 14 -295 44 -151 42 -288 96 -294 115 -7 20 146 164 204 191 27 14 74 26 106 28 65 5 101 -9 233 -92 130 -81 163 -94 277 -107 81 -9 128 -10 207 -1 112 13 161 33 305 126 76 48 161 85 198 86 9 0 41 -5 70 -11z m517 -474 c36 -25 77 -53 91 -64 l25 -20 -18 -83 c-10 -46 -23 -117 -29 -158 -15 -109 -3 -404 21 -520 10 -52 17 -98 15 -102 -2 -3 -41 -19 -87 -34 -100 -33 -119 -42 -228 -111 -103 -64 -112 -66 -444 -85 -491 -27 -1278 -7 -1360 35 -11 5 -56 36 -100 67 -111 80 -136 91 -250 109 -89 15 -100 19 -103 38 -2 12 8 73 22 136 22 98 26 138 26 283 0 144 -4 185 -25 279 -14 60 -25 119 -25 131 0 22 62 69 148 113 50 25 47 26 157 -59 94 -73 264 -161 367 -191 49 -14 116 -22 204 -26 168 -7 241 12 335 87 34 27 67 46 73 43 6 -4 38 -26 71 -49 82 -57 142 -76 255 -82 226 -10 464 76 659 239 111 93 100 91 200 24z"/>
		
		
		
		
	</g>
</svg>
